Public Sans-Bold.ufo
<glyph name="exclam" format="1">
  <advance width="309"/>
  <unicode hex="0021"/>
  <outline>
    <contour>
      <point x="84" y="259" type="line"/>
      <point x="203" y="259" type="line"/>
      <point x="324" y="723" type="line"/>
      <point x="100" y="723" type="line"/>
    </contour>
    <contour>
      <point x="0" y="0" type="line"/>
      <point x="204" y="0" type="line"/>
      <point x="233" y="192" type="line"/>
      <point x="30" y="192" type="line"/>
    </contour>
  </outline>
</glyph>
<glyph name="numbersign" format="1">
  <advance width="609"/>
  <unicode hex="0023"/>
  <outline>
    <contour>
      <point x="420" y="-3" type="line"/>
      <point x="524" y="716" type="line"/>
      <point x="430" y="725" type="line"/>
      <point x="325" y="9" type="line"/>
    </contour>
    <contour>
      <point x="26" y="216" type="line"/>
      <point x="572" y="216" type="line"/>
      <point x="572" y="310" type="line"/>
      <point x="26" y="310" type="line"/>
    </contour>
    <contour>
      <point x="201" y="-3" type="line"/>
      <point x="305" y="716" type="line"/>
      <point x="212" y="725" type="line"/>
      <point x="107" y="9" type="line"/>
    </contour>
    <contour>
      <point x="58" y="421" type="line"/>
      <point x="604" y="421" type="line"/>
      <point x="604" y="515" type="line"/>
      <point x="58" y="515" type="line"/>
    </contour>
  </outline>
</glyph>
<glyph name="dollar" format="1">
  <advance width="698"/>
  <unicode hex="0024"/>
  <outline>
    <contour>
      <point x="325" y="-10" type="curve" smooth="yes"/>
      <point x="505" y="-10"/>
      <point x="630" y="72"/>
      <point x="650" y="205" type="curve" smooth="yes"/>
      <point x="668" y="327"/>
      <point x="621" y="410"/>
      <point x="487" y="439" type="curve" smooth="yes"/>
      <point x="378" y="462" type="line" smooth="yes"/>
      <point x="317" y="475"/>
      <point x="304" y="492"/>
      <point x="309" y="525" type="curve" smooth="yes"/>
      <point x="313" y="551"/>
      <point x="340" y="582"/>
      <point x="416" y="582" type="curve" smooth="yes"/>
      <point x="483" y="582"/>
      <point x="490" y="548"/>
      <point x="487" y="504" type="curve"/>
      <point x="683" y="504" type="line"/>
      <point x="710" y="633"/>
      <point x="610" y="732"/>
      <point x="435" y="732" type="curve" smooth="yes"/>
      <point x="269" y="732"/>
      <point x="119" y="647"/>
      <point x="99" y="501" type="curve" smooth="yes"/>
      <point x="82" y="378"/>
      <point x="145" y="306"/>
      <point x="255" y="288" type="curve" smooth="yes"/>
      <point x="364" y="269" type="line" smooth="yes"/>
      <point x="423" y="259"/>
      <point x="452" y="249"/>
      <point x="445" y="205" type="curve" smooth="yes"/>
      <point x="440" y="170"/>
      <point x="407" y="139"/>
      <point x="347" y="139" type="curve" smooth="yes"/>
      <point x="279" y="139"/>
      <point x="239" y="169"/>
      <point x="236" y="220" type="curve"/>
      <point x="35" y="220" type="line"/>
      <point x="23" y="59"/>
      <point x="134" y="-10"/>
    </contour>
    <contour>
      <point x="230" y="-87" type="line"/>
      <point x="392" y="-87" type="line"/>
      <point x="412" y="43" type="line"/>
      <point x="250" y="43" type="line"/>
    </contour>
    <contour>
      <point x="348" y="692" type="line"/>
      <point x="510" y="692" type="line"/>
      <point x="530" y="822" type="line"/>
      <point x="368" y="822" type="line"/>
    </contour>
  </outline>
</glyph>
<glyph name="percent" format="1">
  <advance width="901"/>
  <unicode hex="0025"/>
  <outline>
    <contour>
      <point x="636" y="-10" type="curve" smooth="yes"/>
      <point x="737" y="-10"/>
      <point x="827" y="87"/>
      <point x="842" y="192" type="curve" smooth="yes"/>
      <point x="857" y="298"/>
      <point x="793" y="399"/>
      <point x="693" y="399" type="curve" smooth="yes"/>
      <point x="594" y="399"/>
      <point x="501" y="298"/>
      <point x="486" y="192" type="curve" smooth="yes"/>
      <point x="471" y="87"/>
      <point x="535" y="-10"/>
    </contour>
    <contour>
      <point x="229" y="326" type="curve" smooth="yes"/>
      <point x="329" y="326"/>
      <point x="419" y="422"/>
      <point x="434" y="527" type="curve" smooth="yes"/>
      <point x="449" y="634"/>
      <point x="384" y="734"/>
      <point x="286" y="734" type="curve" smooth="yes"/>
      <point x="187" y="734"/>
      <point x="93" y="634"/>
      <point x="78" y="527" type="curve" smooth="yes"/>
      <point x="64" y="422"/>
      <point x="127" y="326"/>
    </contour>
    <contour>
      <point x="241" y="421" type="curve" smooth="yes"/>
      <point x="204" y="421"/>
      <point x="198" y="457"/>
      <point x="208" y="527" type="curve" smooth="yes"/>
      <point x="218" y="600"/>
      <point x="236" y="640"/>
      <point x="272" y="640" type="curve" smooth="yes"/>
      <point x="308" y="640"/>
      <point x="314" y="601"/>
      <point x="304" y="527" type="curve" smooth="yes"/>
      <point x="294" y="457"/>
      <point x="279" y="421"/>
    </contour>
    <contour>
      <point x="648" y="86" type="curve" smooth="yes"/>
      <point x="612" y="86"/>
      <point x="607" y="122"/>
      <point x="616" y="191" type="curve" smooth="yes"/>
      <point x="627" y="264"/>
      <point x="643" y="304"/>
      <point x="679" y="304" type="curve" smooth="yes"/>
      <point x="715" y="304"/>
      <point x="721" y="265"/>
      <point x="711" y="191" type="curve" smooth="yes"/>
      <point x="701" y="122"/>
      <point x="686" y="86"/>
    </contour>
    <component base="fraction" xScale="0.92" yxScale="0.141" xOffset="316"/>
  </outline>
</glyph>
<glyph name="ampersand" format="1">
  <advance width="844"/>
  <unicode hex="0026"/>
  <outline>
    <contour>
      <point x="256" y="-5" type="curve" smooth="yes"/>
      <point x="324" y="-5"/>
      <point x="414" y="9"/>
      <point x="504" y="62" type="curve"/>
      <point x="548" y="0" type="line"/>
      <point x="768" y="0" type="line"/>
      <point x="636" y="189" type="line"/>
      <point x="687" y="265"/>
      <point x="774" y="354"/>
      <point x="820" y="430" type="curve"/>
      <point x="619" y="430" type="line"/>
      <point x="603" y="387"/>
      <point x="577" y="332"/>
      <point x="563" y="299" type="curve"/>
      <point x="505" y="384" type="line"/>
      <point x="594" y="438"/>
      <point x="671" y="498"/>
      <point x="683" y="574" type="curve" smooth="yes"/>
      <point x="697" y="668"/>
      <point x="604" y="734"/>
      <point x="467" y="734" type="curve" smooth="yes"/>
      <point x="326" y="734"/>
      <point x="219" y="658"/>
      <point x="203" y="556" type="curve" smooth="yes"/>
      <point x="193" y="492"/>
      <point x="225" y="461"/>
      <point x="264" y="407" type="curve"/>
      <point x="128" y="340"/>
      <point x="54" y="284"/>
      <point x="39" y="181" type="curve" smooth="yes"/>
      <point x="22" y="73"/>
      <point x="82" y="-5"/>
    </contour>
    <contour>
      <point x="328" y="140" type="curve" smooth="yes"/>
      <point x="301" y="140"/>
      <point x="263" y="156"/>
      <point x="259" y="195" type="curve" smooth="yes"/>
      <point x="255" y="241"/>
      <point x="299" y="277"/>
      <point x="340" y="299" type="curve"/>
      <point x="429" y="174" type="line"/>
      <point x="398" y="149"/>
      <point x="351" y="140"/>
    </contour>
    <contour>
      <point x="441" y="477" type="curve"/>
      <point x="422" y="501" type="line"/>
      <point x="399" y="531"/>
      <point x="392" y="552"/>
      <point x="395" y="570" type="curve"/>
      <point x="399" y="599"/>
      <point x="425" y="620"/>
      <point x="459" y="622" type="curve" smooth="yes"/>
      <point x="496" y="624"/>
      <point x="521" y="603"/>
      <point x="515" y="564" type="curve" smooth="yes"/>
      <point x="511" y="534"/>
      <point x="490" y="508"/>
    </contour>
  </outline>
</glyph>
<glyph name="quotesingle" format="1">
  <advance width="272"/>
  <unicode hex="0027"/>
  <outline>
    <contour>
      <point x="107" y="401" type="line"/>
      <point x="198" y="401" type="line"/>
      <point x="292" y="723" type="line"/>
      <point x="110" y="723" type="line"/>
    </contour>
  </outline>
</glyph>
<glyph name="parenleft" format="1">
  <advance width="365"/>
  <unicode hex="0028"/>
  <outline>
    <contour>
      <point x="129" y="-161" type="curve"/>
      <point x="266" y="-161" type="line"/>
      <point x="216" y="-9"/>
      <point x="197" y="124"/>
      <point x="220" y="277" type="curve" smooth="yes"/>
      <point x="244" y="437"/>
      <point x="311" y="592"/>
      <point x="400" y="723" type="curve"/>
      <point x="262" y="723" type="line"/>
      <point x="157" y="598"/>
      <point x="79" y="445"/>
      <point x="53" y="278" type="curve" smooth="yes"/>
      <point x="27" y="106"/>
      <point x="66" y="-20"/>
    </contour>
  </outline>
</glyph>
<glyph name="parenright" format="1">
  <advance width="363"/>
  <unicode hex="0029"/>
  <outline>
    <contour>
      <point x="-58" y="-161" type="curve"/>
      <point x="97" y="-161" type="line"/>
      <point x="196" y="-34"/>
      <point x="268" y="115"/>
      <point x="290" y="274" type="curve" smooth="yes"/>
      <point x="317" y="454"/>
      <point x="273" y="584"/>
      <point x="202" y="723" type="curve"/>
      <point x="81" y="723" type="line"/>
      <point x="130" y="569"/>
      <point x="147" y="440"/>
      <point x="127" y="296" type="curve" smooth="yes"/>
      <point x="102" y="128"/>
      <point x="31" y="-31"/>
    </contour>
  </outline>
</glyph>
<glyph name="asterisk" format="1">
  <advance width="545"/>
  <unicode hex="002A"/>
  <outline>
    <contour>
      <point x="215" y="272" type="line"/>
      <point x="302" y="420" type="line"/>
      <point x="389" y="274" type="line"/>
      <point x="489" y="343" type="line"/>
      <point x="380" y="471" type="line"/>
      <point x="536" y="513" type="line"/>
      <point x="501" y="623" type="line"/>
      <point x="347" y="554" type="line"/>
      <point x="364" y="723" type="line"/>
      <point x="244" y="723" type="line"/>
      <point x="257" y="555" type="line"/>
      <point x="106" y="624" type="line"/>
      <point x="66" y="515" type="line"/>
      <point x="227" y="471" type="line"/>
      <point x="116" y="342" type="line"/>
    </contour>
  </outline>
</glyph>
<glyph name="plus" format="1">
  <advance width="617"/>
  <unicode hex="002B"/>
  <outline>
    <contour>
      <point x="217" y="110" type="line"/>
      <point x="354" y="110" type="line"/>
      <point x="431" y="619" type="line"/>
      <point x="294" y="619" type="line"/>
    </contour>
    <contour>
      <point x="60" y="295" type="line"/>
      <point x="566" y="295" type="line"/>
      <point x="587" y="433" type="line"/>
      <point x="81" y="433" type="line"/>
    </contour>
  </outline>
</glyph>
<glyph name="comma" format="1">
  <advance width="311"/>
  <unicode hex="002C"/>
  <outline>
    <contour>
      <point x="-8" y="-153" type="line"/>
      <point x="56" y="-153" type="line"/>
      <point x="196" y="20" type="line"/>
      <point x="219" y="170" type="line"/>
      <point x="43" y="170" type="line"/>
      <point x="17" y="1" type="line"/>
      <point x="74" y="-6" type="line"/>
    </contour>
  </outline>
</glyph>
<glyph name="hyphen" format="1">
  <advance width="407"/>
  <unicode hex="002D"/>
  <outline>
    <contour>
      <point x="44" y="188" type="line"/>
      <point x="332" y="188" type="line"/>
      <point x="352" y="325" type="line"/>
      <point x="64" y="325" type="line"/>
    </contour>
  </outline>
</glyph>
<glyph name="period" format="1">
  <advance width="311"/>
  <unicode hex="002E"/>
  <outline>
    <contour>
      <point x="9" y="0" type="line"/>
      <point x="212" y="0" type="line"/>
      <point x="242" y="196" type="line"/>
      <point x="39" y="196" type="line"/>
    </contour>
  </outline>
</glyph>
<glyph name="slash" format="1">
  <advance width="416"/>
  <unicode hex="002F"/>
  <outline>
    <contour>
      <point x="-26" y="0" type="line"/>
      <point x="103" y="0" type="line"/>
      <point x="466" y="723" type="line"/>
      <point x="337" y="723" type="line"/>
    </contour>
  </outline>
</glyph>
<glyph name="zero" format="1">
  <advance width="651"/>
  <unicode hex="0030"/>
  <outline>
    <contour>
      <point x="285" y="-8" type="curve" smooth="yes"/>
      <point x="473" y="-8"/>
      <point x="599" y="126"/>
      <point x="635" y="360" type="curve" smooth="yes"/>
      <point x="670" y="595"/>
      <point x="582" y="734"/>
      <point x="397" y="734" type="curve" smooth="yes"/>
      <point x="212" y="734"/>
      <point x="80" y="595"/>
      <point x="44" y="360" type="curve" smooth="yes"/>
      <point x="9" y="126"/>
      <point x="96" y="-8"/>
    </contour>
    <contour>
      <point x="307" y="144" type="curve" smooth="yes"/>
      <point x="236" y="144"/>
      <point x="220" y="202"/>
      <point x="244" y="359" type="curve" smooth="yes"/>
      <point x="269" y="521"/>
      <point x="304" y="584"/>
      <point x="374" y="584" type="curve" smooth="yes"/>
      <point x="443" y="584"/>
      <point x="460" y="522"/>
      <point x="435" y="359" type="curve" smooth="yes"/>
      <point x="411" y="201"/>
      <point x="378" y="144"/>
    </contour>
  </outline>
</glyph>
<glyph name="one" format="1">
  <advance width="440"/>
  <unicode hex="0031"/>
  <outline>
    <contour>
      <point x="111" y="0" type="line"/>
      <point x="305" y="0" type="line"/>
      <point x="415" y="723" type="line"/>
      <point x="291" y="723" type="line"/>
      <point x="271" y="658"/>
      <point x="204" y="613"/>
      <point x="85" y="613" type="curve"/>
      <point x="70" y="511" type="line"/>
      <point x="189" y="511" type="line"/>
    </contour>
  </outline>
</glyph>
<glyph name="two" format="1">
  <advance width="667"/>
  <unicode hex="0032"/>
  <outline>
    <contour>
      <point x="9" y="0" type="line"/>
      <point x="579" y="0" type="line"/>
      <point x="604" y="160" type="line"/>
      <point x="249" y="160" type="line"/>
      <point x="249" y="160" type="line" smooth="yes"/>
      <point x="266" y="276"/>
      <point x="622" y="250"/>
      <point x="661" y="503" type="curve" smooth="yes"/>
      <point x="681" y="640"/>
      <point x="589" y="733"/>
      <point x="412" y="733" type="curve" smooth="yes"/>
      <point x="207" y="733"/>
      <point x="92" y="618"/>
      <point x="69" y="468" type="curve"/>
      <point x="251" y="468" type="line"/>
      <point x="278" y="548"/>
      <point x="332" y="576"/>
      <point x="385" y="576" type="curve" smooth="yes"/>
      <point x="437" y="576"/>
      <point x="464" y="544"/>
      <point x="458" y="501" type="curve" smooth="yes"/>
      <point x="439" y="378"/>
      <point x="67" y="384"/>
      <point x="29" y="130" type="curve" smooth="yes"/>
      <point x="22" y="86" type="line"/>
    </contour>
  </outline>
</glyph>
<glyph name="three" format="1">
  <advance width="661"/>
  <unicode hex="0033"/>
  <outline>
    <contour>
      <point x="277" y="-10" type="curve" smooth="yes"/>
      <point x="446" y="-10"/>
      <point x="606" y="59"/>
      <point x="629" y="210" type="curve" smooth="yes"/>
      <point x="645" y="311"/>
      <point x="579" y="360"/>
      <point x="515" y="378" type="curve"/>
      <point x="612" y="409"/>
      <point x="654" y="461"/>
      <point x="664" y="532" type="curve" smooth="yes"/>
      <point x="686" y="676"/>
      <point x="564" y="733"/>
      <point x="393" y="733" type="curve" smooth="yes"/>
      <point x="225" y="733"/>
      <point x="85" y="659"/>
      <point x="60" y="490" type="curve"/>
      <point x="242" y="490" type="line"/>
      <point x="261" y="567"/>
      <point x="305" y="587"/>
      <point x="366" y="587" type="curve" smooth="yes"/>
      <point x="417" y="587"/>
      <point x="465" y="568"/>
      <point x="458" y="523" type="curve" smooth="yes"/>
      <point x="451" y="478"/>
      <point x="414" y="454"/>
      <point x="352" y="449" type="curve" smooth="yes"/>
      <point x="288" y="444" type="line"/>
      <point x="266" y="294" type="line"/>
      <point x="337" y="290" type="line" smooth="yes"/>
      <point x="399" y="287"/>
      <point x="432" y="257"/>
      <point x="426" y="218" type="curve" smooth="yes"/>
      <point x="419" y="174"/>
      <point x="374" y="142"/>
      <point x="300" y="142" type="curve" smooth="yes"/>
      <point x="249" y="142"/>
      <point x="207" y="162"/>
      <point x="204" y="238" type="curve"/>
      <point x="22" y="238" type="line"/>
      <point x="-2" y="81"/>
      <point x="82" y="-10"/>
    </contour>
  </outline>
</glyph>
<glyph name="four" format="1">
  <advance width="648"/>
  <unicode hex="0034"/>
  <outline>
    <contour>
      <point x="305" y="0" type="line"/>
      <point x="489" y="0" type="line"/>
      <point x="510" y="138" type="line"/>
      <point x="614" y="138" type="line"/>
      <point x="638" y="297" type="line"/>
      <point x="535" y="297" type="line"/>
      <point x="599" y="723" type="line"/>
      <point x="412" y="723" type="line"/>
      <point x="26" y="290" type="line"/>
      <point x="3" y="138" type="line"/>
      <point x="327" y="138" type="line"/>
    </contour>
    <contour>
      <point x="203" y="297" type="line"/>
      <point x="383" y="498" type="line"/>
      <point x="353" y="297" type="line"/>
    </contour>
  </outline>
</glyph>
<glyph name="five" format="1">
  <advance width="683"/>
  <unicode hex="0035"/>
  <outline>
    <contour>
      <point x="310" y="-10" type="curve" smooth="yes"/>
      <point x="493" y="-10"/>
      <point x="621" y="81"/>
      <point x="645" y="236" type="curve" smooth="yes"/>
      <point x="667" y="385"/>
      <point x="574" y="472"/>
      <point x="418" y="472" type="curve" smooth="yes"/>
      <point x="369" y="472"/>
      <point x="333" y="463"/>
      <point x="273" y="447" type="curve"/>
      <point x="302" y="567" type="line"/>
      <point x="637" y="567" type="line"/>
      <point x="669" y="723" type="line"/>
      <point x="178" y="723" type="line"/>
      <point x="90" y="364" type="line"/>
      <point x="210" y="293" type="line" smooth="yes"/>
      <point x="223" y="286"/>
      <point x="224" y="286"/>
      <point x="239" y="292" type="curve" smooth="yes"/>
      <point x="285" y="311"/>
      <point x="309" y="318"/>
      <point x="340" y="318" type="curve" smooth="yes"/>
      <point x="415" y="318"/>
      <point x="449" y="274"/>
      <point x="442" y="229" type="curve" smooth="yes"/>
      <point x="435" y="181"/>
      <point x="382" y="142"/>
      <point x="310" y="142" type="curve" smooth="yes"/>
      <point x="233" y="142"/>
      <point x="202" y="188"/>
      <point x="168" y="243" type="curve"/>
      <point x="9" y="145" type="line"/>
      <point x="48" y="56"/>
      <point x="160" y="-10"/>
    </contour>
  </outline>
</glyph>
<glyph name="six" format="1">
  <advance width="674"/>
  <unicode hex="0036"/>
  <outline>
    <contour>
      <point x="305" y="-6" type="curve" smooth="yes"/>
      <point x="475" y="-6"/>
      <point x="614" y="97"/>
      <point x="636" y="236" type="curve" smooth="yes"/>
      <point x="655" y="363"/>
      <point x="568" y="451"/>
      <point x="418" y="451" type="curve" smooth="yes"/>
      <point x="366" y="451"/>
      <point x="311" y="442"/>
      <point x="269" y="418" type="curve"/>
      <point x="267" y="502"/>
      <point x="322" y="583"/>
      <point x="403" y="583" type="curve" smooth="yes"/>
      <point x="454" y="583"/>
      <point x="482" y="560"/>
      <point x="490" y="506" type="curve"/>
      <point x="665" y="506" type="line"/>
      <point x="686" y="649"/>
      <point x="570" y="733"/>
      <point x="421" y="733" type="curve" smooth="yes"/>
      <point x="226" y="733"/>
      <point x="79" y="588"/>
      <point x="42" y="345" type="curve" smooth="yes"/>
      <point x="10" y="135"/>
      <point x="106" y="-6"/>
    </contour>
    <contour>
      <point x="318" y="135" type="curve" smooth="yes"/>
      <point x="263" y="135"/>
      <point x="230" y="174"/>
      <point x="242" y="258" type="curve"/>
      <point x="245" y="276"/>
      <point x="301" y="311"/>
      <point x="346" y="311" type="curve" smooth="yes"/>
      <point x="392" y="311"/>
      <point x="441" y="289"/>
      <point x="432" y="227" type="curve" smooth="yes"/>
      <point x="423" y="173"/>
      <point x="369" y="135"/>
    </contour>
  </outline>
</glyph>
<glyph name="seven" format="1">
  <advance width="607"/>
  <unicode hex="0037"/>
  <outline>
    <contour>
      <point x="113" y="0" type="curve"/>
      <point x="321" y="0" type="line"/>
      <point x="344" y="178"/>
      <point x="516" y="455"/>
      <point x="633" y="567" type="curve"/>
      <point x="657" y="723" type="line"/>
      <point x="91" y="723" type="line"/>
      <point x="68" y="567" type="line"/>
      <point x="436" y="567" type="line"/>
      <point x="223" y="348"/>
      <point x="129" y="104"/>
    </contour>
  </outline>
</glyph>
<glyph name="eight" format="1">
  <advance width="648"/>
  <unicode hex="0038"/>
  <outline>
    <contour>
      <point x="284" y="-8" type="curve" smooth="yes"/>
      <point x="466" y="-8"/>
      <point x="600" y="72"/>
      <point x="620" y="205" type="curve" smooth="yes"/>
      <point x="633" y="287"/>
      <point x="575" y="360"/>
      <point x="517" y="374" type="curve"/>
      <point x="574" y="402"/>
      <point x="627" y="453"/>
      <point x="638" y="524" type="curve" smooth="yes"/>
      <point x="659" y="660"/>
      <point x="552" y="731"/>
      <point x="396" y="731" type="curve" smooth="yes"/>
      <point x="240" y="731"/>
      <point x="112" y="660"/>
      <point x="92" y="524" type="curve" smooth="yes"/>
      <point x="81" y="453"/>
      <point x="119" y="402"/>
      <point x="167" y="374" type="curve"/>
      <point x="104" y="360"/>
      <point x="25" y="287"/>
      <point x="12" y="205" type="curve" smooth="yes"/>
      <point x="-8" y="72"/>
      <point x="102" y="-8"/>
    </contour>
    <contour>
      <point x="305" y="132" type="curve" smooth="yes"/>
      <point x="242" y="132"/>
      <point x="211" y="164"/>
      <point x="218" y="212" type="curve" smooth="yes"/>
      <point x="225" y="261"/>
      <point x="266" y="294"/>
      <point x="330" y="294" type="curve" smooth="yes"/>
      <point x="393" y="294"/>
      <point x="424" y="261"/>
      <point x="417" y="212" type="curve" smooth="yes"/>
      <point x="409" y="164"/>
      <point x="369" y="132"/>
    </contour>
    <contour>
      <point x="353" y="446" type="curve" smooth="yes"/>
      <point x="307" y="446"/>
      <point x="275" y="477"/>
      <point x="283" y="527" type="curve" smooth="yes"/>
      <point x="290" y="577"/>
      <point x="332" y="608"/>
      <point x="378" y="608" type="curve" smooth="yes"/>
      <point x="423" y="608"/>
      <point x="455" y="577"/>
      <point x="448" y="527" type="curve" smooth="yes"/>
      <point x="440" y="477"/>
      <point x="399" y="446"/>
    </contour>
  </outline>
</glyph>
<glyph name="nine" format="1">
  <advance width="631"/>
  <unicode hex="0039"/>
  <outline>
    <contour>
      <point x="262" y="-8" type="curve" smooth="yes"/>
      <point x="442" y="-8"/>
      <point x="575" y="107"/>
      <point x="613" y="380" type="curve" smooth="yes"/>
      <point x="643" y="591"/>
      <point x="554" y="731"/>
      <point x="370" y="731" type="curve" smooth="yes"/>
      <point x="213" y="731"/>
      <point x="87" y="629"/>
      <point x="67" y="489" type="curve" smooth="yes"/>
      <point x="48" y="353"/>
      <point x="137" y="264"/>
      <point x="276" y="264" type="curve" smooth="yes"/>
      <point x="341" y="264"/>
      <point x="390" y="282"/>
      <point x="424" y="315" type="curve"/>
      <point x="417" y="183"/>
      <point x="350" y="142"/>
      <point x="274" y="142" type="curve" smooth="yes"/>
      <point x="227" y="142"/>
      <point x="202" y="172"/>
      <point x="201" y="219" type="curve"/>
      <point x="33" y="219" type="line"/>
      <point x="15" y="82"/>
      <point x="124" y="-8"/>
    </contour>
    <contour>
      <point x="332" y="414" type="curve" smooth="yes"/>
      <point x="290" y="414"/>
      <point x="252" y="442"/>
      <point x="260" y="498" type="curve" smooth="yes"/>
      <point x="268" y="553"/>
      <point x="311" y="591"/>
      <point x="358" y="591" type="curve" smooth="yes"/>
      <point x="409" y="591"/>
      <point x="440" y="552"/>
      <point x="428" y="467" type="curve"/>
      <point x="425" y="449"/>
      <point x="373" y="414"/>
    </contour>
  </outline>
</glyph>
<glyph name="colon" format="1">
  <advance width="314"/>
  <unicode hex="003A"/>
  <outline>
    <contour>
      <point x="57" y="320" type="line"/>
      <point x="261" y="320" type="line"/>
      <point x="290" y="512" type="line"/>
      <point x="86" y="512" type="line"/>
    </contour>
    <contour>
      <point x="9" y="3" type="line"/>
      <point x="213" y="3" type="line"/>
      <point x="242" y="195" type="line"/>
      <point x="38" y="195" type="line"/>
    </contour>
  </outline>
</glyph>
<glyph name="semicolon" format="1">
  <advance width="318"/>
  <unicode hex="003B"/>
  <outline>
    <contour>
      <point x="-15" y="-165" type="line"/>
      <point x="61" y="-165" type="line"/>
      <point x="220" y="22" type="line"/>
      <point x="246" y="193" type="line"/>
      <point x="42" y="193" type="line"/>
      <point x="13" y="0" type="line"/>
      <point x="82" y="0" type="line"/>
    </contour>
    <contour>
      <point x="60" y="313" type="line"/>
      <point x="264" y="313" type="line"/>
      <point x="293" y="509" type="line"/>
      <point x="90" y="509" type="line"/>
    </contour>
  </outline>
</glyph>
<glyph name="less" format="1">
  <advance width="616"/>
  <unicode hex="003C"/>
  <outline>
    <contour>
      <point x="510" y="72" type="line"/>
      <point x="534" y="234" type="line"/>
      <point x="262" y="339" type="line"/>
      <point x="567" y="449" type="line"/>
      <point x="591" y="609" type="line"/>
      <point x="69" y="418" type="line"/>
      <point x="46" y="263" type="line"/>
    </contour>
  </outline>
</glyph>
<glyph name="equal" format="1">
  <advance width="617"/>
  <unicode hex="003D"/>
  <outline>
    <contour>
      <point x="71" y="389" type="line"/>
      <point x="577" y="389" type="line"/>
      <point x="598" y="527" type="line"/>
      <point x="92" y="527" type="line"/>
    </contour>
    <contour>
      <point x="35" y="154" type="line"/>
      <point x="541" y="154" type="line"/>
      <point x="562" y="292" type="line"/>
      <point x="56" y="292" type="line"/>
    </contour>
  </outline>
</glyph>
<glyph name="greater" format="1">
  <advance width="608"/>
  <unicode hex="003E"/>
  <outline>
    <contour>
      <point x="29" y="72" type="line"/>
      <point x="552" y="263" type="line"/>
      <point x="575" y="418" type="line"/>
      <point x="110" y="609" type="line"/>
      <point x="86" y="449" type="line"/>
      <point x="359" y="339" type="line"/>
      <point x="54" y="234" type="line"/>
    </contour>
  </outline>
</glyph>
<glyph name="question" format="1">
  <advance width="553"/>
  <unicode hex="003F"/>
  <outline>
    <contour>
      <point x="180" y="262" type="curve"/>
      <point x="331" y="262" type="line"/>
      <point x="353" y="402"/>
      <point x="540" y="409"/>
      <point x="563" y="566" type="curve" smooth="yes"/>
      <point x="577" y="654"/>
      <point x="488" y="733"/>
      <point x="338" y="733" type="curve" smooth="yes"/>
      <point x="204" y="733"/>
      <point x="103" y="670"/>
      <point x="42" y="551" type="curve"/>
      <point x="198" y="516" type="line"/>
      <point x="229" y="574"/>
      <point x="273" y="606"/>
      <point x="317" y="606" type="curve" smooth="yes"/>
      <point x="351" y="606"/>
      <point x="378" y="586"/>
      <point x="373" y="555" type="curve" smooth="yes"/>
      <point x="361" y="478"/>
      <point x="208" y="442"/>
    </contour>
    <contour>
      <point x="114" y="0" type="line"/>
      <point x="318" y="0" type="line"/>
      <point x="347" y="192" type="line"/>
      <point x="143" y="192" type="line"/>
    </contour>
  </outline>
</glyph>
<glyph name="at" format="1">
  <advance width="1691"/>
  <unicode hex="0040"/>
  <outline>
    <contour>
      <point x="743" y="-220" type="curve" smooth="yes"/>
      <point x="973" y="-220"/>
      <point x="1165" y="-144"/>
      <point x="1263" y="-68" type="curve"/>
      <point x="1181" y="74" type="line"/>
      <point x="1075" y="10"/>
      <point x="985" y="-40"/>
      <point x="805" y="-40" type="curve" smooth="yes"/>
      <point x="457" y="-40"/>
      <point x="253" y="144"/>
      <point x="309" y="516" type="curve" smooth="yes"/>
      <point x="357" y="826"/>
      <point x="557" y="1092"/>
      <point x="987" y="1092" type="curve" smooth="yes"/>
      <point x="1249" y="1092"/>
      <point x="1471" y="990"/>
      <point x="1419" y="648" type="curve" smooth="yes"/>
      <point x="1387" y="444"/>
      <point x="1293" y="360"/>
      <point x="1225" y="360" type="curve" smooth="yes"/>
      <point x="1191" y="360"/>
      <point x="1169" y="382"/>
      <point x="1195" y="458" type="curve" smooth="yes"/>
      <point x="1327" y="876" type="line"/>
      <point x="1121" y="876" type="line"/>
      <point x="1113" y="852" type="line" smooth="yes"/>
      <point x="1109" y="838"/>
      <point x="1101" y="836"/>
      <point x="1095" y="844" type="curve" smooth="yes"/>
      <point x="1055" y="886"/>
      <point x="1015" y="926"/>
      <point x="905" y="926" type="curve" smooth="yes"/>
      <point x="655" y="926"/>
      <point x="469" y="708"/>
      <point x="435" y="476" type="curve" smooth="yes"/>
      <point x="401" y="266"/>
      <point x="511" y="130"/>
      <point x="689" y="130" type="curve" smooth="yes"/>
      <point x="793" y="130"/>
      <point x="889" y="176"/>
      <point x="957" y="240" type="curve" smooth="yes"/>
      <point x="971" y="254"/>
      <point x="973" y="256"/>
      <point x="983" y="242" type="curve" smooth="yes"/>
      <point x="1003" y="214"/>
      <point x="1045" y="158"/>
      <point x="1167" y="158" type="curve" smooth="yes"/>
      <point x="1399" y="158"/>
      <point x="1585" y="364"/>
      <point x="1631" y="660" type="curve" smooth="yes"/>
      <point x="1697" y="1102"/>
      <point x="1377" y="1288"/>
      <point x="1017" y="1288" type="curve" smooth="yes"/>
      <point x="513" y="1288"/>
      <point x="153" y="930"/>
      <point x="89" y="510" type="curve" smooth="yes"/>
      <point x="29" y="108"/>
      <point x="263" y="-220"/>
    </contour>
    <contour>
      <point x="793" y="348" type="curve" smooth="yes"/>
      <point x="707" y="348"/>
      <point x="681" y="426"/>
      <point x="693" y="504" type="curve" smooth="yes"/>
      <point x="711" y="620"/>
      <point x="805" y="710"/>
      <point x="893" y="710" type="curve" smooth="yes"/>
      <point x="977" y="710"/>
      <point x="1007" y="630"/>
      <point x="995" y="552" type="curve" smooth="yes"/>
      <point x="979" y="452"/>
      <point x="891" y="348"/>
    </contour>
  </outline>
</glyph>
<glyph name="A" format="1">
  <advance width="727"/>
  <unicode hex="0041"/>
  <outline>
    <contour>
      <point x="-26" y="0" type="line"/>
      <point x="167" y="0" type="line"/>
      <point x="237" y="140" type="line"/>
      <point x="464" y="140" type="line"/>
      <point x="490" y="0" type="line"/>
      <point x="681" y="0" type="line"/>
      <point x="536" y="723" type="line"/>
      <point x="339" y="723" type="line"/>
    </contour>
    <contour>
      <point x="303" y="306" type="line"/>
      <point x="410" y="537" type="line"/>
      <point x="445" y="306" type="line"/>
    </contour>
    <contour>
      <point x="328" y="0" type="move" name="bottom"/>
    </contour>
    <contour>
      <point x="659" y="5" type="move" name="ogonek"/>
    </contour>
    <contour>
      <point x="438" y="723" type="move" name="top"/>
    </contour>
  </outline>
</glyph>
<glyph name="B" format="1">
  <advance width="1408"/>
  <unicode hex="0042"/>
  <outline>
    <contour>
      <point x="67" y="0" type="line"/>
      <point x="673" y="0" type="line" smooth="yes"/>
      <point x="1089" y="0"/>
      <point x="1269" y="124"/>
      <point x="1311" y="394" type="curve"/>
      <point x="1327" y="502"/>
      <point x="1339" y="668"/>
      <point x="1097" y="744" type="curve"/>
      <point x="1287" y="832"/>
      <point x="1359" y="930"/>
      <point x="1379" y="1064" type="curve" smooth="yes"/>
      <point x="1415" y="1310"/>
      <point x="1261" y="1446"/>
      <point x="861" y="1446" type="curve" smooth="yes"/>
      <point x="285" y="1446" type="line"/>
    </contour>
    <contour>
      <point x="499" y="292" type="line"/>
      <point x="543" y="582" type="line"/>
      <point x="785" y="582" type="line"/>
      <point x="881" y="582"/>
      <point x="937" y="522"/>
      <point x="925" y="442" type="curve" smooth="yes"/>
      <point x="913" y="366"/>
      <point x="843" y="292"/>
      <point x="731" y="292" type="curve"/>
    </contour>
    <contour>
      <point x="587" y="882" type="line"/>
      <point x="629" y="1154" type="line"/>
      <point x="857" y="1154" type="line" smooth="yes"/>
      <point x="949" y="1154"/>
      <point x="1013" y="1100"/>
      <point x="999" y="1014" type="curve" smooth="yes"/>
      <point x="987" y="938"/>
      <point x="921" y="882"/>
      <point x="831" y="882" type="curve" smooth="yes"/>
    </contour>
  </outline>
</glyph>
<glyph name="C" format="1">
  <advance width="743"/>
  <unicode hex="0043"/>
  <outline>
    <contour>
      <point x="347" y="-10" type="curve" smooth="yes"/>
      <point x="577" y="-10"/>
      <point x="659" y="120"/>
      <point x="702" y="270" type="curve"/>
      <point x="500" y="270" type="line"/>
      <point x="479" y="203"/>
      <point x="430" y="146"/>
      <point x="364" y="146" type="curve" smooth="yes"/>
      <point x="291" y="146"/>
      <point x="248" y="207"/>
      <point x="272" y="368" type="curve" smooth="yes"/>
      <point x="296" y="527"/>
      <point x="357" y="577"/>
      <point x="429" y="577" type="curve" smooth="yes"/>
      <point x="496" y="577"/>
      <point x="529" y="535"/>
      <point x="530" y="468" type="curve"/>
      <point x="732" y="468" type="line"/>
      <point x="739" y="624"/>
      <point x="631" y="733"/>
      <point x="460" y="733" type="curve" smooth="yes"/>
      <point x="250" y="733"/>
      <point x="94" y="591"/>
      <point x="61" y="371" type="curve" smooth="yes"/>
      <point x="28" y="151"/>
      <point x="139" y="-10"/>
    </contour>
    <contour>
      <point x="349" y="0" type="move" name="bottom"/>
    </contour>
    <contour>
      <point x="458" y="723" type="move" name="top"/>
    </contour>
  </outline>
</glyph>
<glyph name="D" format="1">
  <advance width="743"/>
  <unicode hex="0044"/>
  <outline>
    <contour>
      <point x="33" y="0" type="line"/>
      <point x="290" y="0" type="line" smooth="yes"/>
      <point x="545" y="0"/>
      <point x="686" y="153"/>
      <point x="718" y="364" type="curve" smooth="yes"/>
      <point x="749" y="569"/>
      <point x="659" y="713"/>
      <point x="401" y="722" type="curve" smooth="yes"/>
      <point x="339" y="724"/>
      <point x="164" y="723"/>
      <point x="143" y="723" type="curve"/>
    </contour>
    <contour>
      <point x="250" y="153" type="line"/>
      <point x="313" y="570" type="line"/>
      <point x="383" y="570" type="line" smooth="yes"/>
      <point x="481" y="570"/>
      <point x="537" y="500"/>
      <point x="517" y="367" type="curve" smooth="yes"/>
      <point x="493" y="210"/>
      <point x="393" y="153"/>
      <point x="319" y="153" type="curve" smooth="yes"/>
    </contour>
    <contour>
      <point x="316" y="0" type="move" name="bottom"/>
    </contour>
    <contour>
      <point x="390" y="362" type="move" name="center"/>
    </contour>
    <contour>
      <point x="445" y="723" type="move" name="top"/>
    </contour>
  </outline>
</glyph>
<glyph name="E" format="1">
  <advance width="662"/>
  <unicode hex="0045"/>
  <outline>
    <contour>
      <point x="33" y="0" type="line"/>
      <point x="564" y="0" type="line"/>
      <point x="589" y="162" type="line"/>
      <point x="251" y="162" type="line"/>
      <point x="270" y="285" type="line"/>
      <point x="551" y="285" type="line"/>
      <point x="575" y="442" type="line"/>
      <point x="295" y="442" type="line"/>
      <point x="313" y="562" type="line"/>
      <point x="648" y="562" type="line"/>
      <point x="673" y="723" type="line"/>
      <point x="143" y="723" type="line"/>
    </contour>
    <contour>
      <point x="298" y="0" type="move" name="bottom"/>
    </contour>
    <contour>
      <point x="565" y="10" type="move" name="ogonek"/>
    </contour>
    <contour>
      <point x="408" y="723" type="move" name="top"/>
    </contour>
  </outline>
</glyph>
<glyph name="F" format="1">
  <advance width="634"/>
  <unicode hex="0046"/>
  <outline>
    <contour>
      <point x="33" y="0" type="line"/>
      <point x="227" y="0" type="line"/>
      <point x="269" y="279" type="line"/>
      <point x="546" y="279" type="line"/>
      <point x="570" y="434" type="line"/>
      <point x="292" y="434" type="line"/>
      <point x="312" y="564" type="line"/>
      <point x="644" y="564" type="line"/>
      <point x="669" y="723" type="line"/>
      <point x="143" y="723" type="line"/>
    </contour>
  </outline>
</glyph>
<glyph name="G" format="1">
  <advance width="1563"/>
  <unicode hex="0047"/>
  <outline>
    <contour>
      <point x="684" y="-20" type="curve" smooth="yes"/>
      <point x="922" y="-20"/>
      <point x="1038" y="86"/>
      <point x="1122" y="160" type="curve"/>
      <point x="1098" y="0" type="line"/>
      <point x="1352" y="0" type="line"/>
      <point x="1468" y="764" type="line"/>
      <point x="810" y="768" type="line"/>
      <point x="770" y="506" type="line"/>
      <point x="1020" y="506" type="line"/>
      <point x="996" y="454" type="line"/>
      <point x="966" y="388"/>
      <point x="876" y="318"/>
      <point x="766" y="318" type="curve" smooth="yes"/>
      <point x="642" y="318"/>
      <point x="486" y="376"/>
      <point x="540" y="730" type="curve" smooth="yes"/>
      <point x="588" y="1042"/>
      <point x="732" y="1144"/>
      <point x="876" y="1144" type="curve" smooth="yes"/>
      <point x="1010" y="1144"/>
      <point x="1070" y="1054"/>
      <point x="1078" y="936" type="curve"/>
      <point x="1482" y="936" type="line"/>
      <point x="1518" y="1206"/>
      <point x="1320" y="1466"/>
      <point x="934" y="1466" type="curve" smooth="yes"/>
      <point x="520" y="1466"/>
      <point x="186" y="1168"/>
      <point x="118" y="718" type="curve" smooth="yes"/>
      <point x="50" y="282"/>
      <point x="276" y="-20"/>
    </contour>
    <contour>
      <point x="692" y="0" type="move" name="bottom"/>
    </contour>
    <contour>
      <point x="920" y="1446" type="move" name="top"/>
    </contour>
  </outline>
</glyph>
<glyph name="H" format="1">
  <advance width="754"/>
  <unicode hex="0048"/>
  <outline>
    <contour>
      <point x="34" y="0" type="line"/>
      <point x="228" y="0" type="line"/>
      <point x="272" y="290" type="line"/>
      <point x="489" y="290" type="line"/>
      <point x="445" y="0" type="line"/>
      <point x="639" y="0" type="line"/>
      <point x="749" y="723" type="line"/>
      <point x="555" y="723" type="line"/>
      <point x="514" y="449" type="line"/>
      <point x="296" y="449" type="line"/>
      <point x="338" y="723" type="line"/>
      <point x="144" y="723" type="line"/>
    </contour>
    <contour>
      <point x="332" y="0" type="move" name="bottom"/>
    </contour>
    <contour>
      <point x="446" y="723" type="move" name="top"/>
    </contour>
  </outline>
</glyph>
<glyph name="I" format="1">
  <advance width="340"/>
  <unicode hex="0049"/>
  <outline>
    <contour>
      <point x="33" y="0" type="line"/>
      <point x="227" y="0" type="line"/>
      <point x="336" y="723" type="line"/>
      <point x="142" y="723" type="line"/>
    </contour>
    <contour>
      <point x="140" y="0" type="move" name="bottom"/>
    </contour>
    <contour>
      <point x="203" y="3" type="move" name="ogonek"/>
    </contour>
    <contour>
      <point x="240" y="723" type="move" name="top"/>
    </contour>
  </outline>
</glyph>
<glyph name="J" format="1">
  <advance width="431"/>
  <unicode hex="004A"/>
  <outline>
    <contour>
      <point x="118" y="-10" type="curve" smooth="yes"/>
      <point x="291" y="-10"/>
      <point x="342" y="69"/>
      <point x="366" y="229" type="curve" smooth="yes"/>
      <point x="441" y="723" type="line"/>
      <point x="248" y="723" type="line"/>
      <point x="180" y="279" type="line" smooth="yes"/>
      <point x="169" y="204"/>
      <point x="147" y="170"/>
      <point x="78" y="170" type="curve" smooth="yes"/>
      <point x="57" y="170"/>
      <point x="33" y="173"/>
      <point x="15" y="175" type="curve"/>
      <point x="-11" y="0" type="line"/>
      <point x="18" y="-6"/>
      <point x="77" y="-10"/>
    </contour>
    <contour>
      <point x="340" y="723" type="move" name="top"/>
    </contour>
  </outline>
</glyph>
<glyph name="K" format="1">
  <advance width="1496"/>
  <unicode hex="004B"/>
  <outline>
    <contour>
      <point x="67" y="0" type="line"/>
      <point x="469" y="0" type="line"/>
      <point x="527" y="378" type="line"/>
      <point x="741" y="610" type="line"/>
      <point x="969" y="0" type="line"/>
      <point x="1383" y="0" type="line"/>
      <point x="1059" y="894" type="line"/>
      <point x="1539" y="1446" type="line"/>
      <point x="1105" y="1446" type="line"/>
      <point x="601" y="862" type="line"/>
      <point x="689" y="1446" type="line"/>
      <point x="287" y="1446" type="line"/>
    </contour>
    <contour>
      <point x="649" y="0" type="move" name="bottom"/>
    </contour>
    <contour>
      <point x="893" y="1446" type="move" name="top"/>
    </contour>
  </outline>
</glyph>
<glyph name="L" format="1">
  <advance width="578"/>
  <unicode hex="004C"/>
  <outline>
    <contour>
      <point x="34" y="0" type="line"/>
      <point x="515" y="0" type="line"/>
      <point x="539" y="160" type="line"/>
      <point x="252" y="160" type="line"/>
      <point x="337" y="723" type="line"/>
      <point x="144" y="723" type="line"/>
    </contour>
    <contour>
      <point x="271" y="0" type="move" name="bottom"/>
    </contour>
    <contour>
      <point x="236" y="723" type="move" name="top"/>
    </contour>
    <contour>
      <point x="562" y="723" type="move" name="topright"/>
    </contour>
  </outline>
</glyph>
<glyph name="M" format="1">
  <advance width="955"/>
  <unicode hex="004D"/>
  <outline>
    <contour>
      <point x="34" y="0" type="line"/>
      <point x="227" y="0" type="line"/>
      <point x="307" y="524" type="line"/>
      <point x="368" y="0" type="line"/>
      <point x="507" y="0" type="line"/>
      <point x="726" y="524" type="line"/>
      <point x="647" y="0" type="line"/>
      <point x="841" y="0" type="line"/>
      <point x="950" y="723" type="line"/>
      <point x="664" y="723" type="line"/>
      <point x="480" y="282" type="line"/>
      <point x="431" y="723" type="line"/>
      <point x="143" y="723" type="line"/>
    </contour>
  </outline>
</glyph>
<glyph name="N" format="1">
  <advance width="816"/>
  <unicode hex="004E"/>
  <outline>
    <contour>
      <point x="33" y="0" type="line"/>
      <point x="227" y="0" type="line"/>
      <point x="292" y="431" type="line"/>
      <point x="527" y="0" type="line"/>
      <point x="702" y="0" type="line"/>
      <point x="812" y="723" type="line"/>
      <point x="618" y="723" type="line"/>
      <point x="557" y="320" type="line"/>
      <point x="338" y="723" type="line"/>
      <point x="143" y="723" type="line"/>
    </contour>
    <contour>
      <point x="367" y="0" type="move" name="bottom"/>
    </contour>
    <contour>
      <point x="477" y="723" type="move" name="top"/>
    </contour>
  </outline>
</glyph>
<glyph name="O" format="1">
  <advance width="1573"/>
  <unicode hex="004F"/>
  <outline>
    <contour>
      <point x="705" y="-20" type="curve" smooth="yes"/>
      <point x="1127" y="-20"/>
      <point x="1443" y="272"/>
      <point x="1511" y="720" type="curve" smooth="yes"/>
      <point x="1579" y="1172"/>
      <point x="1347" y="1466"/>
      <point x="929" y="1466" type="curve" smooth="yes"/>
      <point x="511" y="1466"/>
      <point x="187" y="1172"/>
      <point x="119" y="720" type="curve" smooth="yes"/>
      <point x="51" y="270"/>
      <point x="277" y="-20"/>
    </contour>
    <contour>
      <point x="751" y="292" type="curve" smooth="yes"/>
      <point x="593" y="292"/>
      <point x="493" y="402"/>
      <point x="539" y="714" type="curve" smooth="yes"/>
      <point x="589" y="1036"/>
      <point x="723" y="1154"/>
      <point x="883" y="1154" type="curve" smooth="yes"/>
      <point x="1041" y="1154"/>
      <point x="1139" y="1036"/>
      <point x="1089" y="714" type="curve" smooth="yes"/>
      <point x="1043" y="402"/>
      <point x="911" y="292"/>
    </contour>
    <contour>
      <point x="709" y="0" type="move" name="bottom"/>
    </contour>
    <contour>
      <point x="1359" y="1094" type="move" name="horn"/>
    </contour>
    <contour>
      <point x="889" y="20" type="move" name="ogonek"/>
    </contour>
    <contour>
      <point x="907" y="1446" type="move" name="top"/>
    </contour>
  </outline>
</glyph>
<glyph name="P" format="1">
  <advance width="671"/>
  <unicode hex="0050"/>
  <outline>
    <contour>
      <point x="33" y="0" type="line"/>
      <point x="227" y="0" type="line"/>
      <point x="265" y="249" type="line"/>
      <point x="380" y="249" type="line" smooth="yes"/>
      <point x="538" y="249"/>
      <point x="650" y="335"/>
      <point x="672" y="478" type="curve" smooth="yes"/>
      <point x="696" y="635"/>
      <point x="586" y="723"/>
      <point x="427" y="723" type="curve" smooth="yes"/>
      <point x="143" y="723" type="line"/>
    </contour>
    <contour>
      <point x="285" y="394" type="line"/>
      <point x="313" y="579" type="line"/>
      <point x="424" y="579" type="line" smooth="yes"/>
      <point x="467" y="579"/>
      <point x="503" y="538"/>
      <point x="496" y="488" type="curve" smooth="yes"/>
      <point x="489" y="441"/>
      <point x="445" y="394"/>
      <point x="396" y="394" type="curve" smooth="yes"/>
    </contour>
  </outline>
</glyph>
<glyph name="Q" format="1">
  <advance width="1565"/>
  <unicode hex="0051"/>
  <outline>
    <contour>
      <point x="1335" y="-250" type="curve"/>
      <point x="1381" y="54" type="line"/>
      <point x="1283" y="54"/>
      <point x="1201" y="104"/>
      <point x="1195" y="160" type="curve"/>
      <point x="1345" y="300"/>
      <point x="1447" y="486"/>
      <point x="1483" y="720" type="curve" smooth="yes"/>
      <point x="1551" y="1172"/>
      <point x="1319" y="1466"/>
      <point x="899" y="1466" type="curve" smooth="yes"/>
      <point x="481" y="1466"/>
      <point x="157" y="1172"/>
      <point x="89" y="720" type="curve" smooth="yes"/>
      <point x="21" y="270"/>
      <point x="247" y="-20"/>
      <point x="675" y="-20" type="curve" smooth="yes"/>
      <point x="725" y="-20"/>
      <point x="765" y="-18"/>
      <point x="835" y="-10" type="curve"/>
      <point x="973" y="-226"/>
      <point x="1105" y="-250"/>
    </contour>
    <contour>
      <point x="721" y="292" type="curve" smooth="yes"/>
      <point x="551" y="292"/>
      <point x="465" y="402"/>
      <point x="511" y="716" type="curve" smooth="yes"/>
      <point x="561" y="1038"/>
      <point x="685" y="1154"/>
      <point x="853" y="1154" type="curve" smooth="yes"/>
      <point x="1019" y="1154"/>
      <point x="1109" y="1038"/>
      <point x="1061" y="716" type="curve" smooth="yes"/>
      <point x="1013" y="402"/>
      <point x="893" y="292"/>
    </contour>
  </outline>
</glyph>
<glyph name="R" format="1">
  <advance width="713"/>
  <unicode hex="0052"/>
  <outline>
    <contour>
      <point x="33" y="0" type="line"/>
      <point x="226" y="0" type="line"/>
      <point x="264" y="249" type="line"/>
      <point x="366" y="249" type="line"/>
      <point x="432" y="0" type="line"/>
      <point x="630" y="0" type="line"/>
      <point x="546" y="280" type="line"/>
      <point x="619" y="321"/>
      <point x="675" y="379"/>
      <point x="692" y="490" type="curve" smooth="yes"/>
      <point x="712" y="621"/>
      <point x="655" y="723"/>
      <point x="468" y="723" type="curve" smooth="yes"/>
      <point x="142" y="723" type="line"/>
    </contour>
    <contour>
      <point x="286" y="394" type="line"/>
      <point x="314" y="579" type="line"/>
      <point x="425" y="579" type="line" smooth="yes"/>
      <point x="468" y="579"/>
      <point x="505" y="538"/>
      <point x="497" y="488" type="curve" smooth="yes"/>
      <point x="490" y="441"/>
      <point x="446" y="394"/>
      <point x="397" y="394" type="curve" smooth="yes"/>
    </contour>
    <contour>
      <point x="323" y="0" type="move" name="bottom"/>
    </contour>
    <contour>
      <point x="423" y="723" type="move" name="top"/>
    </contour>
  </outline>
</glyph>
<glyph name="S" format="1">
  <advance width="1438"/>
  <unicode hex="0053"/>
  <outline>
    <contour>
      <point x="649" y="-20" type="curve" smooth="yes"/>
      <point x="1009" y="-20"/>
      <point x="1307" y="164"/>
      <point x="1343" y="410" type="curve" smooth="yes"/>
      <point x="1365" y="554"/>
      <point x="1379" y="814"/>
      <point x="973" y="886" type="curve" smooth="yes"/>
      <point x="755" y="924" type="line" smooth="yes"/>
      <point x="633" y="946"/>
      <point x="607" y="984"/>
      <point x="617" y="1050" type="curve" smooth="yes"/>
      <point x="625" y="1102"/>
      <point x="679" y="1164"/>
      <point x="831" y="1164" type="curve" smooth="yes"/>
      <point x="965" y="1164"/>
      <point x="1039" y="1120"/>
      <point x="1033" y="1008" type="curve"/>
      <point x="1425" y="1008" type="line"/>
      <point x="1435" y="1246"/>
      <point x="1219" y="1464"/>
      <point x="867" y="1464" type="curve" smooth="yes"/>
      <point x="537" y="1464"/>
      <point x="237" y="1294"/>
      <point x="195" y="1002" type="curve" smooth="yes"/>
      <point x="163" y="756"/>
      <point x="289" y="612"/>
      <point x="509" y="576" type="curve" smooth="yes"/>
      <point x="727" y="538" type="line" smooth="yes"/>
      <point x="845" y="518"/>
      <point x="961" y="498"/>
      <point x="949" y="410" type="curve" smooth="yes"/>
      <point x="933" y="308"/>
      <point x="813" y="278"/>
      <point x="691" y="278" type="curve" smooth="yes"/>
      <point x="557" y="278"/>
      <point x="477" y="338"/>
      <point x="471" y="440" type="curve"/>
      <point x="69" y="440" type="line"/>
      <point x="45" y="118"/>
      <point x="347" y="-20"/>
    </contour>
    <contour>
      <point x="645" y="0" type="move" name="bottom"/>
    </contour>
    <contour>
      <point x="865" y="1446" type="move" name="top"/>
    </contour>
  </outline>
</glyph>
<glyph name="T" format="1">
  <advance width="637"/>
  <unicode hex="0054"/>
  <outline>
    <contour>
      <point x="177" y="0" type="line"/>
      <point x="370" y="0" type="line"/>
      <point x="454" y="552" type="line"/>
      <point x="660" y="552" type="line"/>
      <point x="686" y="723" type="line"/>
      <point x="83" y="723" type="line"/>
      <point x="57" y="552" type="line"/>
      <point x="260" y="552" type="line"/>
    </contour>
    <contour>
      <point x="283" y="0" type="move" name="bottom"/>
    </contour>
    <contour>
      <point x="393" y="723" type="move" name="top"/>
    </contour>
  </outline>
</glyph>
<glyph name="U" format="1">
  <advance width="749"/>
  <unicode hex="0055"/>
  <outline>
    <contour>
      <point x="338" y="-10" type="curve" smooth="yes"/>
      <point x="569" y="-10"/>
      <point x="667" y="115"/>
      <point x="695" y="299" type="curve" smooth="yes"/>
      <point x="759" y="723" type="line"/>
      <point x="563" y="723" type="line"/>
      <point x="498" y="291" type="line" smooth="yes"/>
      <point x="483" y="191"/>
      <point x="422" y="153"/>
      <point x="363" y="153" type="curve" smooth="yes"/>
      <point x="302" y="153"/>
      <point x="254" y="191"/>
      <point x="269" y="291" type="curve" smooth="yes"/>
      <point x="335" y="723" type="line"/>
      <point x="139" y="723" type="line"/>
      <point x="75" y="299" type="line" smooth="yes"/>
      <point x="47" y="115"/>
      <point x="106" y="-10"/>
    </contour>
    <contour>
      <point x="339" y="0" type="move" name="bottom"/>
    </contour>
    <contour>
      <point x="699" y="547" type="move" name="horn"/>
    </contour>
    <contour>
      <point x="420" y="12" type="move" name="ogonek"/>
    </contour>
    <contour>
      <point x="449" y="723" type="move" name="top"/>
    </contour>
  </outline>
</glyph>
<glyph name="V" format="1">
  <advance width="720"/>
  <unicode hex="0056"/>
  <outline>
    <contour>
      <point x="209" y="0" type="line"/>
      <point x="421" y="0" type="line"/>
      <point x="774" y="723" type="line"/>
      <point x="591" y="723" type="line"/>
      <point x="350" y="228" type="line"/>
      <point x="258" y="723" type="line"/>
      <point x="76" y="723" type="line"/>
    </contour>
  </outline>
</glyph>
<glyph name="W" format="1">
  <advance width="978"/>
  <unicode hex="0057"/>
  <outline>
    <contour>
      <point x="188" y="0" type="line"/>
      <point x="330" y="0" type="line"/>
      <point x="504" y="393" type="line"/>
      <point x="558" y="0" type="line"/>
      <point x="702" y="0" type="line"/>
      <point x="1027" y="723" type="line"/>
      <point x="840" y="723" type="line"/>
      <point x="674" y="335" type="line"/>
      <point x="621" y="723" type="line"/>
      <point x="486" y="723" type="line"/>
      <point x="320" y="335" type="line"/>
      <point x="268" y="723" type="line"/>
      <point x="81" y="723" type="line"/>
    </contour>
    <contour>
      <point x="554" y="723" type="move" name="top"/>
    </contour>
  </outline>
</glyph>
<glyph name="X" format="1">
  <advance width="740"/>
  <unicode hex="0058"/>
  <outline>
    <contour>
      <point x="-20" y="0" type="line"/>
      <point x="186" y="0" type="line"/>
      <point x="349" y="227" type="line"/>
      <point x="447" y="0" type="line"/>
      <point x="688" y="0" type="line"/>
      <point x="495" y="393" type="line"/>
      <point x="759" y="723" type="line"/>
      <point x="557" y="723" type="line"/>
      <point x="417" y="527" type="line"/>
      <point x="335" y="723" type="line"/>
      <point x="96" y="723" type="line"/>
      <point x="270" y="365" type="line"/>
    </contour>
  </outline>
</glyph>
<glyph name="Y" format="1">
  <advance width="713"/>
  <unicode hex="0059"/>
  <outline>
    <contour>
      <point x="214" y="0" type="line"/>
      <point x="407" y="0" type="line"/>
      <point x="453" y="301" type="line"/>
      <point x="773" y="723" type="line"/>
      <point x="562" y="723" type="line"/>
      <point x="382" y="466" type="line"/>
      <point x="279" y="723" type="line"/>
      <point x="70" y="723" type="line"/>
      <point x="259" y="301" type="line"/>
    </contour>
    <contour>
      <point x="311" y="0" type="move" name="bottom"/>
    </contour>
    <contour>
      <point x="412" y="723" type="move" name="top"/>
    </contour>
  </outline>
</glyph>
<glyph name="Z" format="1">
  <advance width="711"/>
  <unicode hex="005A"/>
  <outline>
    <contour>
      <point x="9" y="0" type="line"/>
      <point x="620" y="0" type="line"/>
      <point x="645" y="162" type="line"/>
      <point x="305" y="162" type="line"/>
      <point x="723" y="638" type="line"/>
      <point x="736" y="723" type="line"/>
      <point x="151" y="723" type="line"/>
      <point x="126" y="563" type="line"/>
      <point x="433" y="563" type="line"/>
      <point x="23" y="89" type="line"/>
    </contour>
    <contour>
      <point x="320" y="0" type="move" name="bottom"/>
    </contour>
    <contour>
      <point x="453" y="723" type="move" name="top"/>
    </contour>
  </outline>
</glyph>
<glyph name="bracketleft" format="1">
  <advance width="376"/>
  <unicode hex="005B"/>
  <outline>
    <contour>
      <point x="1" y="-161" type="line"/>
      <point x="267" y="-161" type="line"/>
      <point x="283" y="-57" type="line"/>
      <point x="171" y="-57" type="line"/>
      <point x="273" y="619" type="line"/>
      <point x="385" y="619" type="line"/>
      <point x="401" y="723" type="line"/>
      <point x="135" y="723" type="line"/>
    </contour>
  </outline>
</glyph>
<glyph name="backslash" format="1">
  <advance width="398"/>
  <unicode hex="005C"/>
  <outline>
    <contour>
      <point x="214" y="0" type="line"/>
      <point x="342" y="0" type="line"/>
      <point x="198" y="723" type="line"/>
      <point x="70" y="723" type="line"/>
    </contour>
  </outline>
</glyph>
<glyph name="asciicircum" format="1">
  <advance width="491"/>
  <unicode hex="005E"/>
  <outline>
    <contour>
      <point x="5" y="117" type="line"/>
      <point x="127" y="117" type="line"/>
      <point x="252" y="339" type="line"/>
      <point x="310" y="117" type="line"/>
      <point x="431" y="117" type="line"/>
      <point x="329" y="492" type="line" smooth="yes"/>
      <point x="315" y="539"/>
      <point x="249" y="536"/>
      <point x="222" y="491" type="curve" smooth="yes"/>
    </contour>
  </outline>
</glyph>
<glyph name="underscore" format="1">
  <advance width="584"/>
  <unicode hex="005F"/>
  <outline>
    <contour>
      <point x="-3" y="-156" type="line"/>
      <point x="464" y="-156" type="line"/>
      <point x="485" y="-20" type="line"/>
      <point x="18" y="-20" type="line"/>
    </contour>
  </outline>
</glyph>
<glyph name="a" format="1">
  <advance width="571"/>
  <unicode hex="0061"/>
  <outline>
    <contour>
      <point x="163" y="-10" type="curve" smooth="yes"/>
      <point x="232" y="-10"/>
      <point x="278" y="12"/>
      <point x="320" y="82" type="curve"/>
      <point x="324" y="0" type="line"/>
      <point x="484" y="0" type="line"/>
      <point x="540" y="366" type="line" smooth="yes"/>
      <point x="554" y="461"/>
      <point x="510" y="527"/>
      <point x="332" y="527" type="curve" smooth="yes"/>
      <point x="199" y="527"/>
      <point x="85" y="478"/>
      <point x="60" y="356" type="curve"/>
      <point x="217" y="356" type="line"/>
      <point x="238" y="391"/>
      <point x="277" y="400"/>
      <point x="304" y="401" type="curve" smooth="yes"/>
      <point x="342" y="402"/>
      <point x="358" y="387"/>
      <point x="353" y="354" type="curve" smooth="yes"/>
      <point x="350" y="332" type="line"/>
      <point x="310" y="332" type="line" smooth="yes"/>
      <point x="123" y="332"/>
      <point x="27" y="267"/>
      <point x="10" y="155" type="curve" smooth="yes"/>
      <point x="-6" y="48"/>
      <point x="65" y="-10"/>
    </contour>
    <contour>
      <point x="249" y="113" type="curve" smooth="yes"/>
      <point x="216" y="113"/>
      <point x="189" y="136"/>
      <point x="195" y="175" type="curve" smooth="yes"/>
      <point x="202" y="226"/>
      <point x="274" y="240"/>
      <point x="305" y="240" type="curve" smooth="yes"/>
      <point x="336" y="240" type="line"/>
      <point x="326" y="175" type="line"/>
      <point x="320" y="142"/>
      <point x="287" y="113"/>
    </contour>
    <contour>
      <point x="251" y="0" type="move" name="bottom"/>
    </contour>
    <contour>
      <point x="458" y="10" type="move" name="ogonek"/>
    </contour>
    <contour>
      <point x="330" y="517" type="move" name="top"/>
    </contour>
  </outline>
</glyph>
<glyph name="b" format="1">
  <advance width="613"/>
  <unicode hex="0062"/>
  <outline>
    <contour>
      <point x="326" y="-10" type="curve" smooth="yes"/>
      <point x="468" y="-10"/>
      <point x="563" y="97"/>
      <point x="588" y="262" type="curve" smooth="yes"/>
      <point x="613" y="425"/>
      <point x="555" y="527"/>
      <point x="428" y="527" type="curve" smooth="yes"/>
      <point x="378" y="527"/>
      <point x="318" y="502"/>
      <point x="274" y="439" type="curve"/>
      <point x="320" y="743" type="line"/>
      <point x="126" y="743" type="line"/>
      <point x="14" y="0" type="line"/>
      <point x="150" y="0" type="line"/>
      <point x="180" y="72" type="line"/>
      <point x="200" y="16"/>
      <point x="262" y="-10"/>
    </contour>
    <contour>
      <point x="295" y="126" type="curve"/>
      <point x="252" y="126"/>
      <point x="233" y="168"/>
      <point x="247" y="264" type="curve"/>
      <point x="247" y="264" type="line"/>
      <point x="261" y="353"/>
      <point x="294" y="390"/>
      <point x="338" y="390" type="curve" smooth="yes"/>
      <point x="378" y="390"/>
      <point x="408" y="368"/>
      <point x="392" y="264" type="curve" smooth="yes"/>
      <point x="377" y="160"/>
      <point x="341" y="126"/>
    </contour>
  </outline>
</glyph>
<glyph name="c" format="1">
  <advance width="558"/>
  <unicode hex="0063"/>
  <outline>
    <contour>
      <point x="331" y="526" type="curve" smooth="yes"/>
      <point x="181" y="526"/>
      <point x="46" y="416"/>
      <point x="23" y="256" type="curve" smooth="yes"/>
      <point x="1" y="97"/>
      <point x="107" y="-10"/>
      <point x="255" y="-10" type="curve" smooth="yes"/>
      <point x="397" y="-10"/>
      <point x="499" y="89"/>
      <point x="516" y="179" type="curve"/>
      <point x="357" y="200" type="line"/>
      <point x="347" y="170"/>
      <point x="327" y="114"/>
      <point x="278" y="114" type="curve" smooth="yes"/>
      <point x="228" y="114"/>
      <point x="200" y="172"/>
      <point x="211" y="258" type="curve" smooth="yes"/>
      <point x="223" y="341"/>
      <point x="265" y="402"/>
      <point x="315" y="402" type="curve" smooth="yes"/>
      <point x="365" y="402"/>
      <point x="368" y="343"/>
      <point x="369" y="306" type="curve"/>
      <point x="540" y="326" type="line"/>
      <point x="551" y="423"/>
      <point x="477" y="526"/>
    </contour>
    <contour>
      <point x="256" y="0" type="move" name="bottom"/>
    </contour>
    <contour>
      <point x="329" y="516" type="move" name="top"/>
    </contour>
  </outline>
</glyph>
<glyph name="d" format="1">
  <advance width="1221"/>
  <unicode hex="0064"/>
  <outline>
    <contour>
      <point x="409" y="-20" type="curve" smooth="yes"/>
      <point x="575" y="-20"/>
      <point x="687" y="68"/>
      <point x="753" y="212" type="curve"/>
      <point x="767" y="0" type="line"/>
      <point x="1041" y="0" type="line"/>
      <point x="1267" y="1486" type="line"/>
      <point x="879" y="1486" type="line"/>
      <point x="793" y="916" type="line"/>
      <point x="745" y="1022"/>
      <point x="631" y="1054"/>
      <point x="529" y="1054" type="curve" smooth="yes"/>
      <point x="277" y="1054"/>
      <point x="99" y="850"/>
      <point x="51" y="524" type="curve" smooth="yes"/>
      <point x="-1" y="194"/>
      <point x="125" y="-20"/>
    </contour>
    <contour>
      <point x="543" y="252" type="curve"/>
      <point x="453" y="252"/>
      <point x="393" y="320"/>
      <point x="425" y="528" type="curve" smooth="yes"/>
      <point x="455" y="736"/>
      <point x="541" y="780"/>
      <point x="619" y="780" type="curve" smooth="yes"/>
      <point x="705" y="780"/>
      <point x="765" y="728"/>
      <point x="741" y="568" type="curve"/>
      <point x="727" y="478" type="line"/>
      <point x="703" y="324"/>
      <point x="629" y="252"/>
    </contour>
    <contour>
      <point x="513" y="0" type="move" name="bottom"/>
    </contour>
    <contour>
      <point x="591" y="516" type="move" name="center"/>
    </contour>
    <contour>
      <point x="1225" y="1034" type="move" name="topright"/>
    </contour>
  </outline>
</glyph>
<glyph name="e" format="1">
  <advance width="1129"/>
  <unicode hex="0065"/>
  <outline>
    <contour>
      <point x="506" y="-20" type="curve" smooth="yes"/>
      <point x="736" y="-20"/>
      <point x="990" y="122"/>
      <point x="1056" y="352" type="curve"/>
      <point x="714" y="352" type="line"/>
      <point x="670" y="272"/>
      <point x="610" y="252"/>
      <point x="538" y="252" type="curve" smooth="yes"/>
      <point x="454" y="252"/>
      <point x="394" y="304"/>
      <point x="416" y="428" type="curve"/>
      <point x="1064" y="428" type="line"/>
      <point x="1078" y="518" type="line"/>
      <point x="1124" y="824"/>
      <point x="990" y="1054"/>
      <point x="654" y="1054" type="curve" smooth="yes"/>
      <point x="324" y="1054"/>
      <point x="92" y="800"/>
      <point x="48" y="504" type="curve" smooth="yes"/>
      <point x="0" y="190"/>
      <point x="186" y="-20"/>
    </contour>
    <contour>
      <point x="446" y="646" type="line"/>
      <point x="458" y="724"/>
      <point x="534" y="792"/>
      <point x="614" y="792" type="curve" smooth="yes"/>
      <point x="712" y="792"/>
      <point x="752" y="724"/>
      <point x="740" y="646" type="curve"/>
    </contour>
    <contour>
      <point x="502" y="0" type="move" name="bottom"/>
    </contour>
    <contour>
      <point x="758" y="50" type="move" name="ogonek"/>
    </contour>
    <contour>
      <point x="652" y="1034" type="move" name="top"/>
    </contour>
  </outline>
</glyph>
<glyph name="f" format="1">
  <advance width="388"/>
  <unicode hex="0066"/>
  <outline>
    <contour>
      <point x="52" y="0" type="line"/>
      <point x="245" y="0" type="line"/>
      <point x="304" y="385" type="line"/>
      <point x="397" y="385" type="line"/>
      <point x="417" y="517" type="line"/>
      <point x="320" y="517" type="line"/>
      <point x="324" y="547" type="line" smooth="yes"/>
      <point x="330" y="585"/>
      <point x="343" y="597"/>
      <point x="375" y="597" type="curve" smooth="yes"/>
      <point x="434" y="597" type="line"/>
      <point x="453" y="723" type="line"/>
      <point x="315" y="723" type="line" smooth="yes"/>
      <point x="221" y="723"/>
      <point x="154" y="671"/>
      <point x="141" y="586" type="curve" smooth="yes"/>
      <point x="130" y="517" type="line"/>
      <point x="48" y="517" type="line"/>
      <point x="28" y="385" type="line"/>
      <point x="110" y="385" type="line"/>
    </contour>
  </outline>
</glyph>
<glyph name="g" format="1">
  <advance width="635"/>
  <unicode hex="0067"/>
  <outline>
    <contour>
      <point x="244" y="-171" type="curve" smooth="yes"/>
      <point x="439" y="-171"/>
      <point x="549" y="-97"/>
      <point x="564" y="3" type="curve" smooth="yes"/>
      <point x="576" y="83"/>
      <point x="523" y="148"/>
      <point x="383" y="158" type="curve" smooth="yes"/>
      <point x="339" y="161"/>
      <point x="299" y="163"/>
      <point x="281" y="164" type="curve" smooth="yes"/>
      <point x="231" y="167"/>
      <point x="199" y="167"/>
      <point x="201" y="181" type="curve"/>
      <point x="202" y="186"/>
      <point x="206" y="188"/>
      <point x="217" y="190" type="curve"/>
      <point x="233" y="188"/>
      <point x="269" y="187"/>
      <point x="285" y="187" type="curve" smooth="yes"/>
      <point x="448" y="187"/>
      <point x="548" y="277"/>
      <point x="561" y="365" type="curve" smooth="yes"/>
      <point x="562" y="371"/>
      <point x="563" y="390"/>
      <point x="561" y="405" type="curve"/>
      <point x="651" y="417" type="line"/>
      <point x="672" y="555" type="line"/>
      <point x="612" y="531"/>
      <point x="534" y="503"/>
      <point x="493" y="488" type="curve"/>
      <point x="459" y="508"/>
      <point x="421" y="525"/>
      <point x="348" y="525" type="curve" smooth="yes"/>
      <point x="208" y="525"/>
      <point x="78" y="468"/>
      <point x="62" y="364" type="curve" smooth="yes"/>
      <point x="54" y="309"/>
      <point x="80" y="243"/>
      <point x="149" y="210" type="curve"/>
      <point x="67" y="199"/>
      <point x="23" y="160"/>
      <point x="17" y="119" type="curve" smooth="yes"/>
      <point x="8" y="62"/>
      <point x="63" y="40"/>
      <point x="76" y="32" type="curve"/>
      <point x="68" y="30"/>
      <point x="-29" y="15"/>
      <point x="-39" y="-52" type="curve" smooth="yes"/>
      <point x="-49" y="-118"/>
      <point x="42" y="-171"/>
    </contour>
    <contour>
      <point x="290" y="-69" type="curve" smooth="yes"/>
      <point x="191" y="-69"/>
      <point x="148" y="-62"/>
      <point x="153" y="-29" type="curve" smooth="yes"/>
      <point x="155" y="-12"/>
      <point x="172" y="11"/>
      <point x="225" y="8" type="curve" smooth="yes"/>
      <point x="317" y="2" type="line" smooth="yes"/>
      <point x="357" y="-1"/>
      <point x="378" y="-15"/>
      <point x="375" y="-37" type="curve" smooth="yes"/>
      <point x="372" y="-56"/>
      <point x="357" y="-69"/>
    </contour>
    <contour>
      <point x="306" y="289" type="curve" smooth="yes"/>
      <point x="269" y="289"/>
      <point x="249" y="318"/>
      <point x="255" y="357" type="curve" smooth="yes"/>
      <point x="261" y="396"/>
      <point x="291" y="430"/>
      <point x="328" y="430" type="curve" smooth="yes"/>
      <point x="364" y="430"/>
      <point x="384" y="396"/>
      <point x="378" y="357" type="curve" smooth="yes"/>
      <point x="372" y="318"/>
      <point x="343" y="289"/>
    </contour>
    <contour>
      <point x="348" y="517" type="move" name="top"/>
    </contour>
  </outline>
</glyph>
<glyph name="h" format="1">
  <advance width="610"/>
  <unicode hex="0068"/>
  <outline>
    <contour>
      <point x="14" y="0" type="line"/>
      <point x="208" y="0" type="line"/>
      <point x="257" y="321" type="line"/>
      <point x="261" y="350"/>
      <point x="296" y="370"/>
      <point x="325" y="370" type="curve" smooth="yes"/>
      <point x="354" y="370"/>
      <point x="383" y="352"/>
      <point x="378" y="323" type="curve" smooth="yes"/>
      <point x="329" y="0" type="line"/>
      <point x="523" y="0" type="line"/>
      <point x="576" y="346" type="line" smooth="yes"/>
      <point x="591" y="449"/>
      <point x="518" y="517"/>
      <point x="422" y="517" type="curve" smooth="yes"/>
      <point x="341" y="517"/>
      <point x="305" y="483"/>
      <point x="277" y="453" type="curve"/>
      <point x="321" y="743" type="line"/>
      <point x="127" y="743" type="line"/>
    </contour>
    <contour>
      <point x="270" y="0" type="move" name="bottom"/>
    </contour>
    <contour>
      <point x="483" y="517" type="move" name="top"/>
    </contour>
  </outline>
</glyph>
<glyph name="i" format="1">
  <advance width="298"/>
  <unicode hex="0069"/>
  <outline>
    <contour>
      <point x="14" y="0" type="line"/>
      <point x="208" y="0" type="line"/>
      <point x="286" y="517" type="line"/>
      <point x="93" y="517" type="line"/>
    </contour>
    <contour>
      <point x="102" y="579" type="line"/>
      <point x="296" y="579" type="line"/>
      <point x="321" y="743" type="line"/>
      <point x="127" y="743" type="line"/>
    </contour>
    <contour>
      <point x="112" y="0" type="move" name="bottom"/>
    </contour>
  </outline>
</glyph>
<glyph name="j" format="1">
  <advance width="324"/>
  <unicode hex="006A"/>
  <outline>
    <contour>
      <point x="-3" y="-166" type="curve"/>
      <point x="134" y="-166"/>
      <point x="210" y="-100"/>
      <point x="229" y="28" type="curve" smooth="yes"/>
      <point x="304" y="517" type="line"/>
      <point x="110" y="517" type="line"/>
      <point x="36" y="28" type="line"/>
      <point x="33" y="7"/>
      <point x="21" y="-6"/>
      <point x="-17" y="-14" type="curve"/>
      <point x="-48" y="-19" type="line"/>
      <point x="-67" y="-149" type="line"/>
      <point x="-67" y="-149"/>
      <point x="-54" y="-166"/>
    </contour>
    <contour>
      <point x="119" y="579" type="line"/>
      <point x="313" y="579" type="line"/>
      <point x="338" y="743" type="line"/>
      <point x="144" y="743" type="line"/>
    </contour>
  </outline>
</glyph>
<glyph name="k" format="1">
  <advance width="603"/>
  <unicode hex="006B"/>
  <outline>
    <contour>
      <point x="14" y="0" type="line"/>
      <point x="207" y="0" type="line"/>
      <point x="230" y="146" type="line"/>
      <point x="274" y="190" type="line"/>
      <point x="363" y="0" type="line"/>
      <point x="551" y="0" type="line"/>
      <point x="408" y="303" type="line"/>
      <point x="629" y="517" type="line"/>
      <point x="427" y="517" type="line"/>
      <point x="259" y="343" type="line"/>
      <point x="320" y="743" type="line"/>
      <point x="126" y="743" type="line"/>
    </contour>
    <contour>
      <point x="265" y="0" type="move" name="bottom"/>
    </contour>
  </outline>
</glyph>
<glyph name="l" format="1">
  <advance width="338"/>
  <unicode hex="006C"/>
  <outline>
    <contour>
      <point x="207" y="-11" type="curve" smooth="yes"/>
      <point x="231" y="-11"/>
      <point x="257" y="-4"/>
      <point x="281" y="5" type="curve"/>
      <point x="299" y="123" type="line"/>
      <point x="279" y="125" type="line"/>
      <point x="228" y="132"/>
      <point x="226" y="157"/>
      <point x="230" y="182" type="curve" smooth="yes"/>
      <point x="315" y="743" type="line"/>
      <point x="125" y="743" type="line"/>
      <point x="36" y="156" type="line"/>
      <point x="25" y="80"/>
      <point x="17" y="-11"/>
    </contour>
    <contour>
      <point x="95" y="0" type="move" name="bottom"/>
    </contour>
    <contour>
      <point x="225" y="765" type="move" name="top"/>
    </contour>
    <contour>
      <point x="466" y="765" type="move" name="topright"/>
    </contour>
  </outline>
</glyph>
<glyph name="m" format="1">
  <advance width="923"/>
  <unicode hex="006D"/>
  <outline>
    <contour>
      <point x="14" y="0" type="line"/>
      <point x="207" y="0" type="line"/>
      <point x="259" y="341" type="line"/>
      <point x="264" y="371"/>
      <point x="298" y="389"/>
      <point x="327" y="389" type="curve" smooth="yes"/>
      <point x="356" y="389"/>
      <point x="385" y="371"/>
      <point x="380" y="341" type="curve" smooth="yes"/>
      <point x="328" y="0" type="line"/>
      <point x="521" y="0" type="line"/>
      <point x="568" y="310" type="line" smooth="yes"/>
      <point x="576" y="358"/>
      <point x="587" y="389"/>
      <point x="643" y="389" type="curve" smooth="yes"/>
      <point x="672" y="389"/>
      <point x="700" y="371"/>
      <point x="695" y="341" type="curve" smooth="yes"/>
      <point x="643" y="0" type="line"/>
      <point x="837" y="0" type="line"/>
      <point x="892" y="364" type="line" smooth="yes"/>
      <point x="908" y="467"/>
      <point x="829" y="527"/>
      <point x="749" y="527" type="curve" smooth="yes"/>
      <point x="694" y="527"/>
      <point x="625" y="499"/>
      <point x="582" y="455" type="curve"/>
      <point x="557" y="509"/>
      <point x="501" y="527"/>
      <point x="451" y="527" type="curve" smooth="yes"/>
      <point x="371" y="527"/>
      <point x="313" y="496"/>
      <point x="273" y="455" type="curve"/>
      <point x="283" y="517" type="line"/>
      <point x="92" y="517" type="line"/>
    </contour>
  </outline>
</glyph>
<glyph name="n" format="1">
  <advance width="609"/>
  <unicode hex="006E"/>
  <outline>
    <contour>
      <point x="14" y="0" type="line"/>
      <point x="208" y="0" type="line"/>
      <point x="257" y="323" type="line"/>
      <point x="261" y="352"/>
      <point x="298" y="370"/>
      <point x="327" y="370" type="curve" smooth="yes"/>
      <point x="355" y="370"/>
      <point x="384" y="352"/>
      <point x="379" y="323" type="curve" smooth="yes"/>
      <point x="330" y="0" type="line"/>
      <point x="524" y="0" type="line"/>
      <point x="577" y="349" type="line" smooth="yes"/>
      <point x="592" y="446"/>
      <point x="513" y="519"/>
      <point x="423" y="519" type="curve" smooth="yes"/>
      <point x="342" y="519"/>
      <point x="312" y="488"/>
      <point x="275" y="455" type="curve"/>
      <point x="284" y="517" type="line"/>
      <point x="93" y="517" type="line"/>
    </contour>
    <contour>
      <point x="269" y="0" type="move" name="bottom"/>
    </contour>
    <contour>
      <point x="347" y="517" type="move" name="top"/>
    </contour>
  </outline>
</glyph>
<glyph name="o" format="1">
  <advance width="573"/>
  <unicode hex="006F"/>
  <outline>
    <contour>
      <point x="245" y="-10" type="curve" smooth="yes"/>
      <point x="405" y="-10"/>
      <point x="523" y="101"/>
      <point x="547" y="255" type="curve" smooth="yes"/>
      <point x="571" y="412"/>
      <point x="489" y="527"/>
      <point x="328" y="527" type="curve" smooth="yes"/>
      <point x="175" y="527"/>
      <point x="50" y="418"/>
      <point x="25" y="255" type="curve" smooth="yes"/>
      <point x="2" y="100"/>
      <point x="86" y="-10"/>
    </contour>
    <contour>
      <point x="268" y="131" type="curve" smooth="yes"/>
      <point x="205" y="131"/>
      <point x="206" y="207"/>
      <point x="214" y="262" type="curve" smooth="yes"/>
      <point x="222" y="318"/>
      <point x="244" y="388"/>
      <point x="307" y="388" type="curve" smooth="yes"/>
      <point x="368" y="388"/>
      <point x="369" y="318"/>
      <point x="360" y="262" type="curve" smooth="yes"/>
      <point x="352" y="207"/>
      <point x="329" y="131"/>
    </contour>
    <contour>
      <point x="245" y="0" type="move" name="bottom"/>
    </contour>
    <contour>
      <point x="481" y="334" type="move" name="horn"/>
    </contour>
    <contour>
      <point x="325" y="10" type="move" name="ogonek"/>
    </contour>
    <contour>
      <point x="326" y="517" type="move" name="top"/>
    </contour>
  </outline>
</glyph>
<glyph name="p" format="1">
  <advance width="616"/>
  <unicode hex="0070"/>
  <outline>
    <contour>
      <point x="-9" y="-161" type="line"/>
      <point x="185" y="-161" type="line"/>
      <point x="221" y="78" type="line"/>
      <point x="241" y="4"/>
      <point x="281" y="-10"/>
      <point x="329" y="-10" type="curve" smooth="yes"/>
      <point x="438" y="-10"/>
      <point x="559" y="63"/>
      <point x="589" y="260" type="curve" smooth="yes"/>
      <point x="617" y="443"/>
      <point x="538" y="527"/>
      <point x="431" y="527" type="curve" smooth="yes"/>
      <point x="382" y="527"/>
      <point x="326" y="510"/>
      <point x="279" y="457" type="curve"/>
      <point x="288" y="517" type="line"/>
      <point x="94" y="517" type="line"/>
    </contour>
    <contour>
      <point x="309" y="126" type="curve"/>
      <point x="267" y="126"/>
      <point x="234" y="167"/>
      <point x="243" y="221" type="curve"/>
      <point x="254" y="299" type="line"/>
      <point x="261" y="344"/>
      <point x="307" y="390"/>
      <point x="349" y="390" type="curve" smooth="yes"/>
      <point x="391" y="390"/>
      <point x="423" y="344"/>
      <point x="410" y="260" type="curve" smooth="yes"/>
      <point x="396" y="167"/>
      <point x="351" y="126"/>
    </contour>
  </outline>
</glyph>
<glyph name="q" format="1">
  <advance width="1218"/>
  <unicode hex="0071"/>
  <outline>
    <contour>
      <point x="607" y="-322" type="line"/>
      <point x="995" y="-322" type="line"/>
      <point x="1201" y="1034" type="line"/>
      <point x="811" y="1034" type="line"/>
      <point x="799" y="954" type="line"/>
      <point x="729" y="1020"/>
      <point x="629" y="1054"/>
      <point x="533" y="1054" type="curve" smooth="yes"/>
      <point x="317" y="1054"/>
      <point x="107" y="886"/>
      <point x="51" y="520" type="curve" smooth="yes"/>
      <point x="-9" y="126"/>
      <point x="163" y="-20"/>
      <point x="379" y="-20" type="curve" smooth="yes"/>
      <point x="467" y="-20"/>
      <point x="559" y="4"/>
      <point x="671" y="96" type="curve"/>
    </contour>
    <contour>
      <point x="553" y="232" type="curve"/>
      <point x="465" y="232"/>
      <point x="417" y="342"/>
      <point x="445" y="528" type="curve" smooth="yes"/>
      <point x="473" y="716"/>
      <point x="551" y="800"/>
      <point x="639" y="800" type="curve" smooth="yes"/>
      <point x="727" y="800"/>
      <point x="765" y="716"/>
      <point x="737" y="528" type="curve"/>
      <point x="737" y="528" type="line"/>
      <point x="709" y="342"/>
      <point x="639" y="232"/>
    </contour>
  </outline>
</glyph>
<glyph name="r" format="1">
  <advance width="424"/>
  <unicode hex="0072"/>
  <outline>
    <contour>
      <point x="14" y="0" type="line"/>
      <point x="208" y="0" type="line"/>
      <point x="246" y="248" type="line" smooth="yes"/>
      <point x="254" y="302"/>
      <point x="285" y="359"/>
      <point x="427" y="344" type="curve"/>
      <point x="454" y="527" type="line"/>
      <point x="358" y="527"/>
      <point x="294" y="457"/>
      <point x="258" y="374" type="curve"/>
      <point x="279" y="517" type="line"/>
      <point x="93" y="517" type="line"/>
    </contour>
    <contour>
      <point x="123" y="0" type="move" name="bottom"/>
    </contour>
    <contour>
      <point x="277" y="517" type="move" name="top"/>
    </contour>
  </outline>
</glyph>
<glyph name="s" format="1">
  <advance width="539"/>
  <unicode hex="0073"/>
  <outline>
    <contour>
      <point x="236" y="-10" type="curve" smooth="yes"/>
      <point x="367" y="-10"/>
      <point x="479" y="49"/>
      <point x="495" y="160" type="curve" smooth="yes"/>
      <point x="502" y="203"/>
      <point x="492" y="290"/>
      <point x="365" y="322" type="curve"/>
      <point x="301" y="334" type="line"/>
      <point x="247" y="343"/>
      <point x="227" y="353"/>
      <point x="229" y="371" type="curve" smooth="yes"/>
      <point x="232" y="391"/>
      <point x="259" y="399"/>
      <point x="295" y="399" type="curve" smooth="yes"/>
      <point x="331" y="399"/>
      <point x="362" y="387"/>
      <point x="365" y="356" type="curve"/>
      <point x="522" y="356" type="line"/>
      <point x="542" y="461"/>
      <point x="460" y="527"/>
      <point x="320" y="527" type="curve" smooth="yes"/>
      <point x="170" y="527"/>
      <point x="74" y="451"/>
      <point x="60" y="355" type="curve" smooth="yes"/>
      <point x="47" y="262"/>
      <point x="105" y="215"/>
      <point x="201" y="197" type="curve"/>
      <point x="276" y="185" type="line"/>
      <point x="320" y="178"/>
      <point x="335" y="168"/>
      <point x="332" y="149" type="curve" smooth="yes"/>
      <point x="329" y="128"/>
      <point x="297" y="118"/>
      <point x="255" y="118" type="curve" smooth="yes"/>
      <point x="238" y="118"/>
      <point x="187" y="124"/>
      <point x="182" y="174" type="curve"/>
      <point x="18" y="174" type="line"/>
      <point x="19" y="42"/>
      <point x="129" y="-10"/>
    </contour>
    <contour>
      <point x="239" y="0" type="move" name="bottom"/>
    </contour>
    <contour>
      <point x="318" y="517" type="move" name="top"/>
    </contour>
  </outline>
</glyph>
<glyph name="t" format="1">
  <advance width="889"/>
  <unicode hex="0074"/>
  <outline>
    <contour>
      <point x="518" y="-16" type="curve" smooth="yes"/>
      <point x="642" y="-16"/>
      <point x="698" y="2"/>
      <point x="728" y="16" type="curve"/>
      <point x="762" y="246" type="line"/>
      <point x="602" y="246" type="line" smooth="yes"/>
      <point x="568" y="246"/>
      <point x="542" y="256"/>
      <point x="548" y="302" type="curve" smooth="yes"/>
      <point x="618" y="770" type="line"/>
      <point x="842" y="770" type="line"/>
      <point x="882" y="1036" type="line"/>
      <point x="658" y="1036" type="line"/>
      <point x="706" y="1356" type="line"/>
      <point x="392" y="1356" type="line"/>
      <point x="286" y="1034" type="line"/>
      <point x="106" y="1034" type="line"/>
      <point x="66" y="770" type="line"/>
      <point x="232" y="770" type="line"/>
      <point x="158" y="284" type="line" smooth="yes"/>
      <point x="134" y="118"/>
      <point x="194" y="-16"/>
    </contour>
    <contour>
      <point x="424" y="18" type="move" name="bottom"/>
    </contour>
    <contour>
      <point x="428" y="516" type="move" name="center"/>
    </contour>
    <contour>
      <point x="1008" y="1590" type="move" name="topright"/>
    </contour>
  </outline>
</glyph>
<glyph name="u" format="1">
  <advance width="609"/>
  <unicode hex="0075"/>
  <outline>
    <contour>
      <point x="200" y="-10" type="curve" smooth="yes"/>
      <point x="249" y="-10"/>
      <point x="333" y="3"/>
      <point x="367" y="106" type="curve"/>
      <point x="374" y="0" type="line"/>
      <point x="517" y="0" type="line"/>
      <point x="599" y="517" type="line"/>
      <point x="404" y="517" type="line"/>
      <point x="353" y="180" type="line"/>
      <point x="348" y="150"/>
      <point x="323" y="127"/>
      <point x="284" y="127" type="curve" smooth="yes"/>
      <point x="245" y="127"/>
      <point x="228" y="150"/>
      <point x="232" y="180" type="curve" smooth="yes"/>
      <point x="284" y="517" type="line"/>
      <point x="90" y="517" type="line"/>
      <point x="35" y="153" type="line" smooth="yes"/>
      <point x="19" y="49"/>
      <point x="116" y="-10"/>
    </contour>
    <contour>
      <point x="267" y="0" type="move" name="bottom"/>
    </contour>
    <contour>
      <point x="543" y="357" type="move" name="horn"/>
    </contour>
    <contour>
      <point x="492" y="10" type="move" name="ogonek"/>
    </contour>
    <contour>
      <point x="344" y="517" type="move" name="top"/>
    </contour>
  </outline>
</glyph>
<glyph name="v" format="1">
  <advance width="530"/>
  <unicode hex="0076"/>
  <outline>
    <contour>
      <point x="160" y="0" type="line"/>
      <point x="284" y="0" type="line"/>
      <point x="563" y="517" type="line"/>
      <point x="388" y="517" type="line"/>
      <point x="261" y="253" type="line"/>
      <point x="261" y="253" type="line"/>
      <point x="211" y="517" type="line"/>
      <point x="39" y="517" type="line"/>
    </contour>
  </outline>
</glyph>
<glyph name="w" format="1">
  <advance width="789"/>
  <unicode hex="0077"/>
  <outline>
    <contour>
      <point x="134" y="0" type="line"/>
      <point x="266" y="0" type="line"/>
      <point x="386" y="251" type="line"/>
      <point x="424" y="0" type="line"/>
      <point x="562" y="0" type="line"/>
      <point x="822" y="517" type="line"/>
      <point x="650" y="517" type="line"/>
      <point x="532" y="265" type="line"/>
      <point x="532" y="265" type="line"/>
      <point x="497" y="517" type="line"/>
      <point x="363" y="517" type="line"/>
      <point x="249" y="266" type="line"/>
      <point x="249" y="266" type="line"/>
      <point x="207" y="517" type="line"/>
      <point x="39" y="517" type="line"/>
    </contour>
    <contour>
      <point x="434" y="517" type="move" name="top"/>
    </contour>
  </outline>
</glyph>
<glyph name="x" format="1">
  <advance width="605"/>
  <unicode hex="0078"/>
  <outline>
    <contour>
      <point x="-31" y="0" type="line"/>
      <point x="168" y="0" type="line"/>
      <point x="288" y="137" type="line"/>
      <point x="366" y="0" type="line"/>
      <point x="564" y="0" type="line"/>
      <point x="409" y="270" type="line"/>
      <point x="627" y="517" type="line"/>
      <point x="428" y="517" type="line"/>
      <point x="330" y="405" type="line"/>
      <point x="264" y="517" type="line"/>
      <point x="66" y="517" type="line"/>
      <point x="207" y="270" type="line"/>
    </contour>
  </outline>
</glyph>
<glyph name="y" format="1">
  <advance width="583"/>
  <unicode hex="0079"/>
  <outline>
    <contour>
      <point x="88" y="-165" type="curve" smooth="yes"/>
      <point x="177" y="-165"/>
      <point x="250" y="-133"/>
      <point x="342" y="30" type="curve" smooth="yes"/>
      <point x="616" y="517" type="line"/>
      <point x="427" y="517" type="line"/>
      <point x="283" y="236" type="line"/>
      <point x="229" y="517" type="line"/>
      <point x="39" y="517" type="line"/>
      <point x="165" y="30" type="line"/>
      <point x="161" y="20" type="line"/>
      <point x="158" y="14"/>
      <point x="147" y="-31"/>
      <point x="47" y="-23" type="curve" smooth="yes"/>
      <point x="-2" y="-20" type="line"/>
      <point x="-20" y="-143" type="line" smooth="yes"/>
      <point x="-20" y="-143"/>
      <point x="9" y="-165"/>
    </contour>
    <contour>
      <point x="351" y="517" type="move" name="top"/>
    </contour>
  </outline>
</glyph>
<glyph name="z" format="1">
  <advance width="552"/>
  <unicode hex="007A"/>
  <outline>
    <contour>
      <point x="-9" y="0" type="line"/>
      <point x="477" y="0" type="line"/>
      <point x="496" y="121" type="line"/>
      <point x="252" y="121" type="line"/>
      <point x="541" y="428" type="line"/>
      <point x="555" y="517" type="line"/>
      <point x="92" y="517" type="line"/>
      <point x="74" y="398" type="line"/>
      <point x="291" y="398" type="line"/>
      <point x="5" y="92" type="line"/>
    </contour>
    <contour>
      <point x="245" y="0" type="move" name="bottom"/>
    </contour>
    <contour>
      <point x="323" y="517" type="move" name="top"/>
    </contour>
  </outline>
</glyph>
<glyph name="braceleft" format="1">
  <advance width="440"/>
  <unicode hex="007B"/>
  <outline>
    <contour>
      <point x="241" y="-161" type="curve" smooth="yes"/>
      <point x="330" y="-161" type="line"/>
      <point x="346" y="-57" type="line"/>
      <point x="296" y="-57" type="line" smooth="yes"/>
      <point x="248" y="-57"/>
      <point x="236" y="-42"/>
      <point x="242" y="-5" type="curve" smooth="yes"/>
      <point x="270" y="182" type="line" smooth="yes"/>
      <point x="280" y="264"/>
      <point x="219" y="280"/>
      <point x="175" y="284" type="curve" smooth="yes"/>
      <point x="167" y="285"/>
      <point x="168" y="289"/>
      <point x="176" y="290" type="curve" smooth="yes"/>
      <point x="223" y="295"/>
      <point x="288" y="316"/>
      <point x="301" y="382" type="curve" smooth="yes"/>
      <point x="329" y="567" type="line" smooth="yes"/>
      <point x="333" y="593"/>
      <point x="337" y="619"/>
      <point x="398" y="619" type="curve" smooth="yes"/>
      <point x="449" y="619" type="line"/>
      <point x="465" y="723" type="line"/>
      <point x="372" y="723" type="line" smooth="yes"/>
      <point x="296" y="723"/>
      <point x="192" y="682"/>
      <point x="178" y="591" type="curve" smooth="yes"/>
      <point x="151" y="414" type="line" smooth="yes"/>
      <point x="143" y="356"/>
      <point x="108" y="332"/>
      <point x="27" y="332" type="curve"/>
      <point x="13" y="242" type="line"/>
      <point x="94" y="242"/>
      <point x="121" y="211"/>
      <point x="113" y="164" type="curve" smooth="yes"/>
      <point x="84" y="-28" type="line" smooth="yes"/>
      <point x="70" y="-121"/>
      <point x="162" y="-161"/>
    </contour>
  </outline>
</glyph>
<glyph name="bar" format="1">
  <advance width="574"/>
  <unicode hex="007C"/>
  <outline>
    <contour>
      <point x="22" y="-322" type="line"/>
      <point x="296" y="-322" type="line"/>
      <point x="594" y="1652" type="line"/>
      <point x="320" y="1652" type="line"/>
    </contour>
  </outline>
</glyph>
<glyph name="braceright" format="1">
  <advance width="430"/>
  <unicode hex="007D"/>
  <outline>
    <contour>
      <point x="-49" y="-161" type="line"/>
      <point x="48" y="-161" type="line" smooth="yes"/>
      <point x="125" y="-161"/>
      <point x="224" y="-125"/>
      <point x="237" y="-34" type="curve" smooth="yes"/>
      <point x="262" y="142" type="line" smooth="yes"/>
      <point x="270" y="201"/>
      <point x="306" y="230"/>
      <point x="386" y="230" type="curve"/>
      <point x="400" y="321" type="line"/>
      <point x="314" y="321"/>
      <point x="288" y="346"/>
      <point x="297" y="393" type="curve" smooth="yes"/>
      <point x="324" y="585" type="line" smooth="yes"/>
      <point x="337" y="677"/>
      <point x="241" y="723"/>
      <point x="161" y="723" type="curve" smooth="yes"/>
      <point x="76" y="723" type="line"/>
      <point x="60" y="619" type="line"/>
      <point x="174" y="619" type="line"/>
      <point x="141" y="386" type="line" smooth="yes"/>
      <point x="133" y="304"/>
      <point x="197" y="283"/>
      <point x="246" y="281" type="curve" smooth="yes"/>
      <point x="249" y="279"/>
      <point x="241" y="275"/>
      <point x="229" y="275" type="curve" smooth="yes"/>
      <point x="186" y="268"/>
      <point x="126" y="252"/>
      <point x="113" y="186" type="curve" smooth="yes"/>
      <point x="87" y="1" type="line" smooth="yes"/>
      <point x="84" y="-24"/>
      <point x="75" y="-57"/>
      <point x="13" y="-57" type="curve" smooth="yes"/>
      <point x="-34" y="-57" type="line"/>
    </contour>
  </outline>
</glyph>
<glyph name="asciitilde" format="1">
  <advance width="649"/>
  <unicode hex="007E"/>
  <outline>
    <contour>
      <point x="108" y="255" type="line"/>
      <point x="150" y="297"/>
      <point x="190" y="339"/>
      <point x="241" y="339" type="curve" smooth="yes"/>
      <point x="307" y="339"/>
      <point x="340" y="269"/>
      <point x="421" y="269" type="curve" smooth="yes"/>
      <point x="478" y="269"/>
      <point x="548" y="304"/>
      <point x="601" y="381" type="curve"/>
      <point x="559" y="471" type="line"/>
      <point x="526" y="424"/>
      <point x="481" y="387"/>
      <point x="435" y="387" type="curve" smooth="yes"/>
      <point x="374" y="387"/>
      <point x="347" y="456"/>
      <point x="262" y="456" type="curve" smooth="yes"/>
      <point x="192" y="456"/>
      <point x="135" y="410"/>
      <point x="67" y="347" type="curve"/>
    </contour>
  </outline>
</glyph>
<glyph name="exclamdown" format="1">
  <advance width="307"/>
  <unicode hex="00A1"/>
  <outline>
    <contour>
      <point x="-22" y="-161" type="line"/>
      <point x="204" y="-161" type="line"/>
      <point x="210" y="257" type="line"/>
      <point x="92" y="257" type="line"/>
    </contour>
    <contour>
      <point x="57" y="325" type="line"/>
      <point x="262" y="325" type="line"/>
      <point x="289" y="517" type="line"/>
      <point x="84" y="517" type="line"/>
    </contour>
  </outline>
</glyph>
<glyph name="cent" format="1">
  <advance width="614"/>
  <unicode hex="00A2"/>
  <outline>
    <contour>
      <point x="312" y="532" type="line"/>
      <point x="433" y="532" type="line"/>
      <point x="462" y="723" type="line"/>
      <point x="341" y="723" type="line"/>
    </contour>
    <contour>
      <point x="232" y="0" type="line"/>
      <point x="353" y="0" type="line"/>
      <point x="382" y="191" type="line"/>
      <point x="261" y="191" type="line"/>
    </contour>
    <component base="c" xScale="1.08" xOffset="33" yOffset="111"/>
  </outline>
</glyph>
<glyph name="sterling" format="1">
  <advance width="677"/>
  <unicode hex="00A3"/>
  <outline>
    <contour>
      <point x="-13" y="0" type="line"/>
      <point x="358" y="0" type="line" smooth="yes"/>
      <point x="492" y="0"/>
      <point x="581" y="70"/>
      <point x="634" y="206" type="curve"/>
      <point x="477" y="238" type="line"/>
      <point x="448" y="181"/>
      <point x="427" y="160"/>
      <point x="367" y="160" type="curve" smooth="yes"/>
      <point x="268" y="160" type="line"/>
      <point x="308" y="191"/>
      <point x="323" y="205"/>
      <point x="338" y="237" type="curve" smooth="yes"/>
      <point x="352" y="267"/>
      <point x="357" y="290"/>
      <point x="362" y="334" type="curve"/>
      <point x="481" y="334" type="line"/>
      <point x="496" y="435" type="line"/>
      <point x="364" y="435" type="line"/>
      <point x="364" y="481"/>
      <point x="364" y="504"/>
      <point x="367" y="523" type="curve" smooth="yes"/>
      <point x="373" y="561"/>
      <point x="394" y="583"/>
      <point x="424" y="583" type="curve" smooth="yes"/>
      <point x="452" y="583"/>
      <point x="462" y="566"/>
      <point x="475" y="519" type="curve"/>
      <point x="649" y="567" type="line"/>
      <point x="619" y="677"/>
      <point x="535" y="733"/>
      <point x="416" y="733" type="curve" smooth="yes"/>
      <point x="285" y="733"/>
      <point x="153" y="666"/>
      <point x="143" y="532" type="curve" smooth="yes"/>
      <point x="133" y="435" type="line"/>
      <point x="53" y="435" type="line"/>
      <point x="37" y="334" type="line"/>
      <point x="140" y="334" type="line"/>
      <point x="138" y="282"/>
      <point x="138" y="261"/>
      <point x="133" y="231" type="curve" smooth="yes"/>
      <point x="125" y="178"/>
      <point x="90" y="159"/>
      <point x="42" y="159" type="curve" smooth="yes"/>
      <point x="11" y="159" type="line"/>
    </contour>
  </outline>
</glyph>
<glyph name="currency" format="1">
  <advance width="614"/>
  <unicode hex="00A4"/>
  <outline>
    <contour>
      <point x="75" y="89" type="line"/>
      <point x="150" y="153" type="line" smooth="yes"/>
      <point x="154" y="157"/>
      <point x="161" y="159"/>
      <point x="167" y="155" type="curve" smooth="yes"/>
      <point x="200" y="134"/>
      <point x="240" y="123"/>
      <point x="282" y="123" type="curve" smooth="yes"/>
      <point x="327" y="123"/>
      <point x="371" y="137"/>
      <point x="413" y="161" type="curve"/>
      <point x="465" y="98" type="line"/>
      <point x="553" y="176" type="line"/>
      <point x="501" y="236" type="line" smooth="yes"/>
      <point x="500" y="237"/>
      <point x="501" y="239"/>
      <point x="502" y="241" type="curve" smooth="yes"/>
      <point x="531" y="276"/>
      <point x="549" y="321"/>
      <point x="555" y="364" type="curve" smooth="yes"/>
      <point x="562" y="410"/>
      <point x="556" y="451"/>
      <point x="538" y="490" type="curve"/>
      <point x="610" y="552" type="line"/>
      <point x="546" y="630" type="line"/>
      <point x="481" y="572" type="line" smooth="yes"/>
      <point x="477" y="569"/>
      <point x="473" y="569"/>
      <point x="470" y="571" type="curve" smooth="yes"/>
      <point x="435" y="593"/>
      <point x="394" y="605"/>
      <point x="351" y="605" type="curve" smooth="yes"/>
      <point x="308" y="605"/>
      <point x="262" y="590"/>
      <point x="221" y="567" type="curve"/>
      <point x="159" y="640" type="line"/>
      <point x="72" y="561" type="line"/>
      <point x="125" y="497" type="line" smooth="yes"/>
      <point x="131" y="491"/>
      <point x="130" y="488"/>
      <point x="125" y="480" type="curve" smooth="yes"/>
      <point x="99" y="444"/>
      <point x="84" y="407"/>
      <point x="77" y="363" type="curve" smooth="yes"/>
      <point x="70" y="313"/>
      <point x="76" y="278"/>
      <point x="94" y="238" type="curve"/>
      <point x="12" y="167" type="line"/>
    </contour>
    <contour>
      <point x="298" y="244" type="curve" smooth="yes"/>
      <point x="230" y="244"/>
      <point x="187" y="300"/>
      <point x="197" y="364" type="curve" smooth="yes"/>
      <point x="206" y="427"/>
      <point x="267" y="484"/>
      <point x="334" y="484" type="curve" smooth="yes"/>
      <point x="403" y="484"/>
      <point x="445" y="427"/>
      <point x="435" y="364" type="curve" smooth="yes"/>
      <point x="425" y="300"/>
      <point x="366" y="244"/>
    </contour>
  </outline>
</glyph>
<glyph name="yen" format="1">
  <advance width="699"/>
  <unicode hex="00A5"/>
  <outline>
    <contour>
      <point x="198" y="0" type="line"/>
      <point x="417" y="0" type="line"/>
      <point x="466" y="319" type="line"/>
      <point x="777" y="723" type="line"/>
      <point x="576" y="723" type="line"/>
      <point x="401" y="471" type="line"/>
      <point x="301" y="723" type="line"/>
      <point x="50" y="723" type="line"/>
      <point x="243" y="301" type="line"/>
    </contour>
    <contour>
      <point x="67" y="93" type="line"/>
      <point x="577" y="93" type="line"/>
      <point x="591" y="191" type="line"/>
      <point x="82" y="191" type="line"/>
    </contour>
    <contour>
      <point x="92" y="258" type="line"/>
      <point x="602" y="258" type="line"/>
      <point x="617" y="357" type="line"/>
      <point x="107" y="357" type="line"/>
    </contour>
  </outline>
</glyph>
<glyph name="brokenbar" format="1">
  <advance width="287"/>
  <unicode hex="00A6"/>
  <outline>
    <contour>
      <point x="98" y="412" type="line"/>
      <point x="235" y="412" type="line"/>
      <point x="297" y="826" type="line"/>
      <point x="160" y="826" type="line"/>
    </contour>
    <contour>
      <point x="11" y="-161" type="line"/>
      <point x="148" y="-161" type="line"/>
      <point x="210" y="253" type="line"/>
      <point x="73" y="253" type="line"/>
    </contour>
  </outline>
</glyph>
<glyph name="section" format="1">
  <advance width="532"/>
  <unicode hex="00A7"/>
  <outline>
    <contour>
      <point x="213" y="-83" type="curve" smooth="yes"/>
      <point x="368" y="-83"/>
      <point x="457" y="-10"/>
      <point x="473" y="95" type="curve" smooth="yes"/>
      <point x="482" y="150"/>
      <point x="465" y="187"/>
      <point x="410" y="221" type="curve"/>
      <point x="461" y="251"/>
      <point x="494" y="293"/>
      <point x="503" y="353" type="curve" smooth="yes"/>
      <point x="516" y="438"/>
      <point x="471" y="481"/>
      <point x="361" y="525" type="curve"/>
      <point x="292" y="552" type="line"/>
      <point x="281" y="556"/>
      <point x="258" y="566"/>
      <point x="261" y="585" type="curve"/>
      <point x="264" y="607"/>
      <point x="285" y="621"/>
      <point x="315" y="621" type="curve" smooth="yes"/>
      <point x="362" y="621"/>
      <point x="387" y="589"/>
      <point x="410" y="561" type="curve"/>
      <point x="533" y="616" type="line"/>
      <point x="515" y="676"/>
      <point x="440" y="733"/>
      <point x="328" y="733" type="curve" smooth="yes"/>
      <point x="194" y="733"/>
      <point x="103" y="660"/>
      <point x="89" y="566" type="curve" smooth="yes"/>
      <point x="82" y="519"/>
      <point x="96" y="482"/>
      <point x="140" y="449" type="curve"/>
      <point x="86" y="423"/>
      <point x="50" y="378"/>
      <point x="41" y="317" type="curve" smooth="yes"/>
      <point x="28" y="232"/>
      <point x="73" y="189"/>
      <point x="184" y="145" type="curve" smooth="yes"/>
      <point x="248" y="120" type="line" smooth="yes"/>
      <point x="293" y="102"/>
      <point x="304" y="88"/>
      <point x="301" y="68" type="curve" smooth="yes"/>
      <point x="297" y="41"/>
      <point x="267" y="29"/>
      <point x="225" y="29" type="curve" smooth="yes"/>
      <point x="158" y="29"/>
      <point x="133" y="61"/>
      <point x="113" y="90" type="curve"/>
      <point x="-11" y="34" type="line"/>
      <point x="8" y="-25"/>
      <point x="84" y="-83"/>
    </contour>
    <contour>
      <point x="296" y="276" type="curve"/>
      <point x="258" y="292" type="line" smooth="yes"/>
      <point x="204" y="313"/>
      <point x="194" y="323"/>
      <point x="197" y="346" type="curve" smooth="yes"/>
      <point x="201" y="369"/>
      <point x="216" y="389"/>
      <point x="253" y="392" type="curve"/>
      <point x="287" y="378" type="line" smooth="yes"/>
      <point x="328" y="362"/>
      <point x="345" y="346"/>
      <point x="347" y="327" type="curve" smooth="yes"/>
      <point x="347" y="297"/>
      <point x="327" y="272"/>
    </contour>
  </outline>
</glyph>
<glyph name="copyright" format="1">
  <advance width="837"/>
  <unicode hex="00A9"/>
  <outline>
    <contour>
      <point x="372" y="-10" type="curve" smooth="yes"/>
      <point x="575" y="-10"/>
      <point x="766" y="155"/>
      <point x="798" y="362" type="curve" smooth="yes"/>
      <point x="829" y="566"/>
      <point x="688" y="733"/>
      <point x="484" y="733" type="curve" smooth="yes"/>
      <point x="281" y="733"/>
      <point x="90" y="566"/>
      <point x="59" y="362" type="curve" smooth="yes"/>
      <point x="28" y="155"/>
      <point x="168" y="-10"/>
    </contour>
    <contour>
      <point x="400" y="157" type="curve" smooth="yes"/>
      <point x="523" y="157"/>
      <point x="589" y="254"/>
      <point x="602" y="297" type="curve"/>
      <point x="513" y="315" type="line"/>
      <point x="490" y="279"/>
      <point x="470" y="251"/>
      <point x="427" y="251" type="curve" smooth="yes"/>
      <point x="384" y="251"/>
      <point x="364" y="280"/>
      <point x="377" y="364" type="curve" smooth="yes"/>
      <point x="389" y="444"/>
      <point x="416" y="475"/>
      <point x="452" y="475" type="curve" smooth="yes"/>
      <point x="489" y="475"/>
      <point x="492" y="440"/>
      <point x="491" y="416" type="curve"/>
      <point x="622" y="423" type="line"/>
      <point x="620" y="489"/>
      <point x="572" y="569"/>
      <point x="462" y="569" type="curve" smooth="yes"/>
      <point x="345" y="569"/>
      <point x="245" y="486"/>
      <point x="226" y="362" type="curve" smooth="yes"/>
      <point x="208" y="241"/>
      <point x="282" y="157"/>
    </contour>
    <contour>
      <point x="387" y="89" type="curve" smooth="yes"/>
      <point x="227" y="89"/>
      <point x="142" y="195"/>
      <point x="168" y="362" type="curve" smooth="yes"/>
      <point x="193" y="527"/>
      <point x="310" y="636"/>
      <point x="470" y="636" type="curve" smooth="yes"/>
      <point x="628" y="636"/>
      <point x="714" y="527"/>
      <point x="689" y="362" type="curve" smooth="yes"/>
      <point x="664" y="195"/>
      <point x="545" y="89"/>
    </contour>
  </outline>
</glyph>
<glyph name="ordfeminine" format="1">
  <advance width="372"/>
  <unicode hex="00AA"/>
  <outline>
    <contour>
      <point x="142" y="398" type="curve" smooth="yes"/>
      <point x="177" y="398"/>
      <point x="199" y="410"/>
      <point x="234" y="432" type="curve"/>
      <point x="237" y="404" type="line"/>
      <point x="346" y="404" type="line"/>
      <point x="343" y="428" type="line"/>
      <point x="342" y="443"/>
      <point x="349" y="494"/>
      <point x="350" y="501" type="curve" smooth="yes"/>
      <point x="356" y="549"/>
      <point x="360" y="576"/>
      <point x="368" y="633" type="curve" smooth="yes"/>
      <point x="377" y="695"/>
      <point x="352" y="732"/>
      <point x="246" y="733" type="curve" smooth="yes"/>
      <point x="156" y="733"/>
      <point x="119" y="702"/>
      <point x="86" y="643" type="curve"/>
      <point x="180" y="623" type="line"/>
      <point x="194" y="653"/>
      <point x="215" y="660"/>
      <point x="233" y="660" type="curve" smooth="yes"/>
      <point x="244" y="660"/>
      <point x="266" y="656"/>
      <point x="261" y="625" type="curve"/>
      <point x="259" y="605" type="line"/>
      <point x="236" y="605" type="line" smooth="yes"/>
      <point x="137" y="605"/>
      <point x="67" y="557"/>
      <point x="58" y="491" type="curve" smooth="yes"/>
      <point x="50" y="436"/>
      <point x="79" y="398"/>
    </contour>
    <contour>
      <point x="197" y="470" type="curve" smooth="yes"/>
      <point x="175" y="470"/>
      <point x="165" y="482"/>
      <point x="167" y="499" type="curve" smooth="yes"/>
      <point x="171" y="527"/>
      <point x="199" y="545"/>
      <point x="232" y="545" type="curve" smooth="yes"/>
      <point x="250" y="545" type="line"/>
      <point x="244" y="501" type="line" smooth="yes"/>
      <point x="243" y="491"/>
      <point x="238" y="487"/>
      <point x="232" y="482" type="curve" smooth="yes"/>
      <point x="224" y="475"/>
      <point x="210" y="470"/>
    </contour>
  </outline>
</glyph>
<glyph name="guillemetleft" format="1">
  <advance width="539"/>
  <unicode hex="00AB"/>
  <outline>
    <contour>
      <point x="337" y="59" type="line"/>
      <point x="437" y="59" type="line"/>
      <point x="402" y="251" type="line"/>
      <point x="496" y="451" type="line"/>
      <point x="396" y="451" type="line"/>
      <point x="259" y="251" type="line"/>
    </contour>
    <contour>
      <point x="136" y="59" type="line"/>
      <point x="235" y="59" type="line"/>
      <point x="201" y="251" type="line"/>
      <point x="295" y="451" type="line"/>
      <point x="194" y="451" type="line"/>
      <point x="59" y="251" type="line"/>
    </contour>
  </outline>
</glyph>
<glyph name="logicalnot" format="1">
  <advance width="614"/>
  <unicode hex="00AC"/>
  <outline>
    <contour>
      <point x="55" y="295" type="line"/>
      <point x="561" y="295" type="line"/>
      <point x="582" y="433" type="line"/>
      <point x="76" y="433" type="line"/>
    </contour>
    <contour>
      <point x="382" y="137" type="line"/>
      <point x="537" y="137" type="line"/>
      <point x="574" y="383" type="line"/>
      <point x="419" y="383" type="line"/>
    </contour>
  </outline>
</glyph>
<glyph name="registered" format="1">
  <advance width="560"/>
  <unicode hex="00AE"/>
  <outline>
    <contour>
      <point x="275" y="268" type="curve" smooth="yes"/>
      <point x="402" y="268"/>
      <point x="521" y="371"/>
      <point x="540" y="500" type="curve" smooth="yes"/>
      <point x="560" y="629"/>
      <point x="472" y="733"/>
      <point x="345" y="733" type="curve" smooth="yes"/>
      <point x="216" y="733"/>
      <point x="98" y="629"/>
      <point x="78" y="500" type="curve" smooth="yes"/>
      <point x="59" y="371"/>
      <point x="146" y="268"/>
    </contour>
    <contour>
      <point x="285" y="337" type="curve" smooth="yes"/>
      <point x="189" y="337"/>
      <point x="139" y="401"/>
      <point x="154" y="500" type="curve" smooth="yes"/>
      <point x="169" y="599"/>
      <point x="238" y="664"/>
      <point x="335" y="664" type="curve" smooth="yes"/>
      <point x="429" y="664"/>
      <point x="480" y="599"/>
      <point x="465" y="500" type="curve" smooth="yes"/>
      <point x="450" y="401"/>
      <point x="380" y="337"/>
    </contour>
    <contour>
      <point x="195" y="384" type="line"/>
      <point x="265" y="384" type="line"/>
      <point x="279" y="480" type="line"/>
      <point x="308" y="480" type="line"/>
      <point x="325" y="384" type="line"/>
      <point x="402" y="384" type="line"/>
      <point x="372" y="488" type="line"/>
      <point x="399" y="499"/>
      <point x="421" y="521"/>
      <point x="426" y="550" type="curve" smooth="yes"/>
      <point x="432" y="591"/>
      <point x="400" y="614"/>
      <point x="341" y="614" type="curve" smooth="yes"/>
      <point x="230" y="614" type="line"/>
    </contour>
    <contour>
      <point x="286" y="526" type="line"/>
      <point x="292" y="568" type="line"/>
      <point x="330" y="568" type="line" smooth="yes"/>
      <point x="343" y="568"/>
      <point x="355" y="561"/>
      <point x="353" y="547" type="curve"/>
      <point x="351" y="535"/>
      <point x="341" y="526"/>
      <point x="327" y="526" type="curve"/>
    </contour>
  </outline>
</glyph>
<glyph name="degree" format="1">
  <advance width="482"/>
  <unicode hex="00B0"/>
  <outline>
    <contour>
      <point x="265" y="481" type="curve" smooth="yes"/>
      <point x="365" y="481"/>
      <point x="452" y="554"/>
      <point x="468" y="658" type="curve" smooth="yes"/>
      <point x="483" y="761"/>
      <point x="419" y="836"/>
      <point x="319" y="836" type="curve" smooth="yes"/>
      <point x="218" y="836"/>
      <point x="132" y="761"/>
      <point x="116" y="658" type="curve" smooth="yes"/>
      <point x="100" y="554"/>
      <point x="164" y="481"/>
    </contour>
    <contour>
      <point x="280" y="584" type="curve" smooth="yes"/>
      <point x="237" y="584"/>
      <point x="216" y="614"/>
      <point x="221" y="657" type="curve" smooth="yes"/>
      <point x="227" y="699"/>
      <point x="259" y="729"/>
      <point x="301" y="729" type="curve" smooth="yes"/>
      <point x="343" y="729"/>
      <point x="366" y="699"/>
      <point x="359" y="657" type="curve" smooth="yes"/>
      <point x="353" y="614"/>
      <point x="321" y="584"/>
    </contour>
  </outline>
</glyph>
<glyph name="plusminus" format="1">
  <advance width="621"/>
  <unicode hex="00B1"/>
  <outline>
    <contour>
      <point x="234" y="203" type="line"/>
      <point x="371" y="203" type="line"/>
      <point x="449" y="712" type="line"/>
      <point x="311" y="712" type="line"/>
    </contour>
    <contour>
      <point x="21" y="15" type="line"/>
      <point x="527" y="15" type="line"/>
      <point x="547" y="152" type="line"/>
      <point x="42" y="152" type="line"/>
    </contour>
    <contour>
      <point x="77" y="388" type="line"/>
      <point x="583" y="388" type="line"/>
      <point x="604" y="526" type="line"/>
      <point x="98" y="526" type="line"/>
    </contour>
  </outline>
</glyph>
<glyph name="micro" format="1">
  <advance width="626"/>
  <unicode hex="00B5"/>
  <outline>
    <contour>
      <point x="-10" y="-165" type="line"/>
      <point x="189" y="-165" type="line"/>
      <point x="219" y="34" type="line"/>
      <point x="241" y="30"/>
      <point x="266" y="32"/>
      <point x="288" y="39" type="curve" smooth="yes"/>
      <point x="313" y="47"/>
      <point x="336" y="62"/>
      <point x="352" y="82" type="curve"/>
      <point x="340" y="0" type="line"/>
      <point x="534" y="0" type="line"/>
      <point x="618" y="530" type="line"/>
      <point x="417" y="530" type="line"/>
      <point x="372" y="229" type="line"/>
      <point x="365" y="197"/>
      <point x="338" y="176"/>
      <point x="304" y="176" type="curve" smooth="yes"/>
      <point x="266" y="176"/>
      <point x="244" y="197"/>
      <point x="248" y="229" type="curve"/>
      <point x="294" y="530" type="line"/>
      <point x="95" y="530" type="line"/>
    </contour>
  </outline>
</glyph>
<glyph name="paragraph" format="1">
  <advance width="630"/>
  <unicode hex="00B6"/>
  <outline>
    <contour>
      <point x="170" y="-83" type="line"/>
      <point x="284" y="-83" type="line"/>
      <point x="391" y="617" type="line"/>
      <point x="455" y="617" type="line"/>
      <point x="349" y="-83" type="line"/>
      <point x="463" y="-83" type="line"/>
      <point x="569" y="617" type="line"/>
      <point x="633" y="617" type="line"/>
      <point x="649" y="723" type="line"/>
      <point x="327" y="723" type="line" smooth="yes"/>
      <point x="177" y="723"/>
      <point x="79" y="632"/>
      <point x="61" y="512" type="curve" smooth="yes"/>
      <point x="40" y="373"/>
      <point x="129" y="312"/>
      <point x="228" y="300" type="curve"/>
    </contour>
  </outline>
</glyph>
<glyph name="periodcentered" format="1">
  <advance width="287"/>
  <unicode hex="00B7"/>
  <outline>
    <contour>
      <point x="48" y="277" type="line"/>
      <point x="228" y="277" type="line"/>
      <point x="255" y="451" type="line"/>
      <point x="75" y="451" type="line"/>
    </contour>
  </outline>
</glyph>
<glyph name="ordmasculine" format="1">
  <advance width="364"/>
  <unicode hex="00BA"/>
  <outline>
    <contour>
      <point x="201" y="398" type="curve" smooth="yes"/>
      <point x="293" y="398"/>
      <point x="369" y="467"/>
      <point x="382" y="564" type="curve" smooth="yes"/>
      <point x="396" y="662"/>
      <point x="342" y="733"/>
      <point x="249" y="733" type="curve" smooth="yes"/>
      <point x="160" y="733"/>
      <point x="83" y="665"/>
      <point x="68" y="564" type="curve" smooth="yes"/>
      <point x="55" y="467"/>
      <point x="109" y="398"/>
    </contour>
    <contour>
      <point x="212" y="476" type="curve" smooth="yes"/>
      <point x="183" y="476"/>
      <point x="173" y="503"/>
      <point x="182" y="566" type="curve" smooth="yes"/>
      <point x="191" y="630"/>
      <point x="208" y="657"/>
      <point x="238" y="657" type="curve" smooth="yes"/>
      <point x="268" y="657"/>
      <point x="278" y="630"/>
      <point x="269" y="566" type="curve" smooth="yes"/>
      <point x="260" y="503"/>
      <point x="243" y="476"/>
    </contour>
  </outline>
</glyph>
<glyph name="guillemetright" format="1">
  <advance width="539"/>
  <unicode hex="00BB"/>
  <outline>
    <contour>
      <point x="232" y="59" type="line"/>
      <point x="333" y="59" type="line"/>
      <point x="468" y="251" type="line"/>
      <point x="393" y="451" type="line"/>
      <point x="292" y="451" type="line"/>
      <point x="326" y="251" type="line"/>
    </contour>
    <contour>
      <point x="32" y="59" type="line"/>
      <point x="131" y="59" type="line"/>
      <point x="267" y="251" type="line"/>
      <point x="192" y="451" type="line"/>
      <point x="91" y="451" type="line"/>
      <point x="124" y="251" type="line"/>
    </contour>
  </outline>
</glyph>
<glyph name="questiondown" format="1">
  <advance width="567"/>
  <unicode hex="00BF"/>
  <outline>
    <contour>
      <point x="227" y="-171" type="curve" smooth="yes"/>
      <point x="362" y="-171"/>
      <point x="463" y="-107"/>
      <point x="522" y="12" type="curve"/>
      <point x="365" y="46" type="line"/>
      <point x="337" y="-7"/>
      <point x="291" y="-39"/>
      <point x="247" y="-39" type="curve" smooth="yes"/>
      <point x="213" y="-39"/>
      <point x="186" y="-19"/>
      <point x="190" y="8" type="curve" smooth="yes"/>
      <point x="201" y="86"/>
      <point x="354" y="115"/>
      <point x="375" y="264" type="curve"/>
      <point x="222" y="264" type="line"/>
      <point x="206" y="155"/>
      <point x="21" y="156"/>
      <point x="-2" y="-3" type="curve" smooth="yes"/>
      <point x="-14" y="-92"/>
      <point x="56" y="-171"/>
    </contour>
    <contour>
      <point x="205" y="325" type="line"/>
      <point x="410" y="325" type="line"/>
      <point x="437" y="517" type="line"/>
      <point x="232" y="517" type="line"/>
    </contour>
  </outline>
</glyph>
<glyph name="AE" format="1">
  <advance width="1104"/>
  <unicode hex="00C6"/>
  <outline>
    <contour>
      <point x="-36" y="0" type="line"/>
      <point x="157" y="0" type="line"/>
      <point x="246" y="140" type="line"/>
      <point x="465" y="140" type="line"/>
      <point x="444" y="0" type="line"/>
      <point x="1012" y="0" type="line"/>
      <point x="1036" y="160" type="line"/>
      <point x="689" y="160" type="line"/>
      <point x="708" y="285" type="line"/>
      <point x="919" y="285" type="line"/>
      <point x="943" y="442" type="line"/>
      <point x="731" y="442" type="line"/>
      <point x="750" y="564" type="line"/>
      <point x="1088" y="564" type="line"/>
      <point x="1113" y="723" type="line"/>
      <point x="446" y="723" type="line"/>
    </contour>
    <contour>
      <point x="342" y="306" type="line"/>
      <point x="535" y="601" type="line"/>
      <point x="490" y="306" type="line"/>
    </contour>
    <contour>
      <point x="760" y="723" type="move" name="top"/>
    </contour>
  </outline>
</glyph>
<glyph name="Eth" format="1">
  <advance width="815"/>
  <unicode hex="00D0"/>
  <outline>
    <contour>
      <point x="38" y="286" type="line"/>
      <point x="468" y="286" type="line"/>
      <point x="488" y="423" type="line"/>
      <point x="58" y="423" type="line"/>
    </contour>
    <component base="D" xOffset="72"/>
  </outline>
</glyph>
<glyph name="multiply" format="1">
  <advance width="609"/>
  <unicode hex="00D7"/>
  <outline>
    <contour>
      <point x="129" y="115" type="line"/>
      <point x="590" y="516" type="line"/>
      <point x="508" y="614" type="line"/>
      <point x="49" y="213" type="line"/>
    </contour>
    <contour>
      <point x="430" y="115" type="line"/>
      <point x="542" y="213" type="line"/>
      <point x="204" y="614" type="line"/>
      <point x="94" y="516" type="line"/>
    </contour>
  </outline>
</glyph>
<glyph name="Oslash" format="1">
  <advance width="799"/>
  <unicode hex="00D8"/>
  <outline>
    <contour>
      <point x="53" y="-14" type="line"/>
      <point x="142" y="61" type="line"/>
      <point x="193" y="16"/>
      <point x="264" y="-10"/>
      <point x="354" y="-10" type="curve" smooth="yes"/>
      <point x="565" y="-10"/>
      <point x="723" y="136"/>
      <point x="757" y="360" type="curve" smooth="yes"/>
      <point x="769" y="442"/>
      <point x="762" y="513"/>
      <point x="737" y="570" type="curve"/>
      <point x="836" y="656" type="line"/>
      <point x="773" y="736" type="line"/>
      <point x="679" y="657" type="line"/>
      <point x="629" y="706"/>
      <point x="557" y="733"/>
      <point x="466" y="733" type="curve" smooth="yes"/>
      <point x="256" y="733"/>
      <point x="95" y="586"/>
      <point x="61" y="360" type="curve" smooth="yes"/>
      <point x="48" y="276"/>
      <point x="56" y="204"/>
      <point x="81" y="146" type="curve"/>
      <point x="-12" y="67" type="line"/>
    </contour>
    <contour>
      <point x="377" y="142" type="curve" smooth="yes"/>
      <point x="334" y="142"/>
      <point x="307" y="157"/>
      <point x="293" y="190" type="curve"/>
      <point x="531" y="395" type="line"/>
      <point x="522" y="335"/>
      <point x="512" y="288"/>
      <point x="499" y="251" type="curve" smooth="yes"/>
      <point x="472" y="174"/>
      <point x="433" y="142"/>
    </contour>
    <contour>
      <point x="286" y="320" type="line"/>
      <point x="293" y="370"/>
      <point x="302" y="412"/>
      <point x="313" y="447" type="curve" smooth="yes"/>
      <point x="341" y="542"/>
      <point x="382" y="583"/>
      <point x="444" y="583" type="curve" smooth="yes"/>
      <point x="486" y="583"/>
      <point x="514" y="566"/>
      <point x="526" y="526" type="curve"/>
    </contour>
    <contour>
      <point x="464" y="723" type="move" name="top"/>
    </contour>
  </outline>
</glyph>
<glyph name="Yacute" format="1">
  <advance width="714"/>
  <unicode hex="00DD"/>
  <outline>
    <component base="Y"/>
    <component base="acutecomb" xOffset="245" yOffset="206"/>
    <contour>
      <point x="358" y="12" type="move" name="bottom"/>
    </contour>
  </outline>
</glyph>
<glyph name="Thorn" format="1">
  <advance width="747"/>
  <unicode hex="00DE"/>
  <outline>
    <contour>
      <point x="33" y="0" type="line"/>
      <point x="254" y="0" type="line"/>
      <point x="275" y="138" type="line"/>
      <point x="432" y="138" type="line" smooth="yes"/>
      <point x="590" y="138"/>
      <point x="711" y="223"/>
      <point x="732" y="363" type="curve" smooth="yes"/>
      <point x="755" y="517"/>
      <point x="634" y="593"/>
      <point x="475" y="593" type="curve" smooth="yes"/>
      <point x="344" y="593" type="line"/>
      <point x="363" y="723" type="line"/>
      <point x="143" y="723" type="line"/>
    </contour>
    <contour>
      <point x="298" y="294" type="line"/>
      <point x="320" y="437" type="line"/>
      <point x="438" y="437" type="line" smooth="yes"/>
      <point x="482" y="437"/>
      <point x="515" y="410"/>
      <point x="508" y="366" type="curve" smooth="yes"/>
      <point x="502" y="327"/>
      <point x="468" y="294"/>
      <point x="422" y="294" type="curve" smooth="yes"/>
    </contour>
  </outline>
</glyph>
<glyph name="germandbls" format="1">
  <advance width="639"/>
  <unicode hex="00DF"/>
  <outline>
    <contour>
      <point x="365" y="-10" type="curve" smooth="yes"/>
      <point x="492" y="-10"/>
      <point x="581" y="54"/>
      <point x="598" y="175" type="curve" smooth="yes"/>
      <point x="616" y="305"/>
      <point x="529" y="351"/>
      <point x="436" y="400" type="curve" smooth="yes"/>
      <point x="431" y="402"/>
      <point x="430" y="405"/>
      <point x="430" y="408" type="curve" smooth="yes"/>
      <point x="431" y="410"/>
      <point x="433" y="413"/>
      <point x="436" y="414" type="curve" smooth="yes"/>
      <point x="535" y="455"/>
      <point x="576" y="498"/>
      <point x="585" y="566" type="curve" smooth="yes"/>
      <point x="600" y="670"/>
      <point x="528" y="723"/>
      <point x="396" y="723" type="curve" smooth="yes"/>
      <point x="204" y="723"/>
      <point x="130" y="601"/>
      <point x="109" y="484" type="curve"/>
      <point x="60" y="484" type="line"/>
      <point x="42" y="352" type="line"/>
      <point x="91" y="352" type="line"/>
      <point x="42" y="0" type="line"/>
      <point x="218" y="0" type="line"/>
      <point x="291" y="522" type="line" smooth="yes"/>
      <point x="297" y="566"/>
      <point x="326" y="602"/>
      <point x="373" y="602" type="curve" smooth="yes"/>
      <point x="411" y="602"/>
      <point x="427" y="580"/>
      <point x="423" y="554" type="curve" smooth="yes"/>
      <point x="419" y="522"/>
      <point x="389" y="499"/>
      <point x="359" y="470" type="curve" smooth="yes"/>
      <point x="332" y="444"/>
      <point x="305" y="410"/>
      <point x="297" y="359" type="curve" smooth="yes"/>
      <point x="287" y="288"/>
      <point x="323" y="243"/>
      <point x="377" y="215" type="curve" smooth="yes"/>
      <point x="420" y="193"/>
      <point x="441" y="182"/>
      <point x="437" y="154" type="curve" smooth="yes"/>
      <point x="433" y="123"/>
      <point x="406" y="110"/>
      <point x="378" y="110" type="curve" smooth="yes"/>
      <point x="346" y="110"/>
      <point x="327" y="127"/>
      <point x="314" y="138" type="curve"/>
      <point x="249" y="22" type="line"/>
      <point x="274" y="4"/>
      <point x="310" y="-10"/>
    </contour>
  </outline>
</glyph>
<glyph name="ae" format="1">
  <advance width="902"/>
  <unicode hex="00E6"/>
  <outline>
    <contour>
      <point x="154" y="-10" type="curve" smooth="yes"/>
      <point x="243" y="-10"/>
      <point x="309" y="12"/>
      <point x="377" y="69" type="curve" smooth="yes"/>
      <point x="381" y="73"/>
      <point x="384" y="73"/>
      <point x="387" y="69" type="curve" smooth="yes"/>
      <point x="428" y="20"/>
      <point x="495" y="-10"/>
      <point x="577" y="-10" type="curve" smooth="yes"/>
      <point x="690" y="-10"/>
      <point x="764" y="20"/>
      <point x="855" y="132" type="curve"/>
      <point x="745" y="180" type="line"/>
      <point x="692" y="134"/>
      <point x="658" y="119"/>
      <point x="622" y="119" type="curve" smooth="yes"/>
      <point x="567" y="119"/>
      <point x="528" y="152"/>
      <point x="539" y="223" type="curve"/>
      <point x="872" y="223" type="line"/>
      <point x="901" y="415"/>
      <point x="806" y="527"/>
      <point x="654" y="527" type="curve" smooth="yes"/>
      <point x="605" y="527"/>
      <point x="554" y="513"/>
      <point x="508" y="488" type="curve"/>
      <point x="475" y="512"/>
      <point x="420" y="526"/>
      <point x="334" y="527" type="curve" smooth="yes"/>
      <point x="179" y="527"/>
      <point x="111" y="477"/>
      <point x="58" y="383" type="curve"/>
      <point x="220" y="350" type="line"/>
      <point x="245" y="398"/>
      <point x="282" y="410"/>
      <point x="312" y="410" type="curve" smooth="yes"/>
      <point x="351" y="410"/>
      <point x="365" y="390"/>
      <point x="360" y="354" type="curve" smooth="yes"/>
      <point x="356" y="325" type="line"/>
      <point x="315" y="323" type="line" smooth="yes"/>
      <point x="128" y="314"/>
      <point x="24" y="244"/>
      <point x="8" y="139" type="curve" smooth="yes"/>
      <point x="-5" y="51"/>
      <point x="44" y="-10"/>
    </contour>
    <contour>
      <point x="250" y="105" type="curve" smooth="yes"/>
      <point x="212" y="105"/>
      <point x="195" y="124"/>
      <point x="199" y="152" type="curve" smooth="yes"/>
      <point x="206" y="200"/>
      <point x="273" y="224"/>
      <point x="310" y="227" type="curve" smooth="yes"/>
      <point x="341" y="229" type="line"/>
      <point x="330" y="156" type="line" smooth="yes"/>
      <point x="325" y="124"/>
      <point x="286" y="105"/>
    </contour>
    <contour>
      <point x="699" y="324" type="curve"/>
      <point x="557" y="325" type="line"/>
      <point x="565" y="385"/>
      <point x="606" y="412"/>
      <point x="646" y="412" type="curve" smooth="yes"/>
      <point x="695" y="412"/>
      <point x="704" y="354"/>
    </contour>
    <contour>
      <point x="490" y="517" type="move" name="top"/>
    </contour>
  </outline>
</glyph>
<glyph name="eth" format="1">
  <advance width="591"/>
  <unicode hex="00F0"/>
  <outline>
    <contour>
      <point x="253" y="-10" type="curve" smooth="yes"/>
      <point x="415" y="-10"/>
      <point x="541" y="99"/>
      <point x="568" y="275" type="curve" smooth="yes"/>
      <point x="591" y="429"/>
      <point x="540" y="567"/>
      <point x="432" y="652" type="curve"/>
      <point x="491" y="683" type="line"/>
      <point x="469" y="737" type="line"/>
      <point x="376" y="689" type="line"/>
      <point x="340" y="709"/>
      <point x="298" y="723"/>
      <point x="253" y="734" type="curve"/>
      <point x="141" y="651" type="line"/>
      <point x="172" y="640"/>
      <point x="201" y="627"/>
      <point x="228" y="612" type="curve"/>
      <point x="140" y="568" type="line"/>
      <point x="165" y="515" type="line"/>
      <point x="282" y="575" type="line"/>
      <point x="305" y="555"/>
      <point x="322" y="537"/>
      <point x="336" y="512" type="curve" smooth="yes"/>
      <point x="337" y="509"/>
      <point x="337" y="507"/>
      <point x="333" y="507" type="curve" smooth="yes"/>
      <point x="180" y="507"/>
      <point x="46" y="399"/>
      <point x="23" y="246" type="curve" smooth="yes"/>
      <point x="1" y="100"/>
      <point x="95" y="-10"/>
    </contour>
    <contour>
      <point x="273" y="115" type="curve" smooth="yes"/>
      <point x="223" y="115"/>
      <point x="205" y="158"/>
      <point x="219" y="250" type="curve" smooth="yes"/>
      <point x="233" y="342"/>
      <point x="264" y="386"/>
      <point x="314" y="386" type="curve" smooth="yes"/>
      <point x="367" y="386"/>
      <point x="382" y="342"/>
      <point x="368" y="250" type="curve" smooth="yes"/>
      <point x="355" y="159"/>
      <point x="326" y="115"/>
    </contour>
  </outline>
</glyph>
<glyph name="divide" format="1">
  <advance width="616"/>
  <unicode hex="00F7"/>
  <outline>
    <contour>
      <point x="55" y="295" type="line"/>
      <point x="561" y="295" type="line"/>
      <point x="582" y="433" type="line"/>
      <point x="76" y="433" type="line"/>
    </contour>
    <contour>
      <point x="181" y="59" type="line"/>
      <point x="365" y="59" type="line"/>
      <point x="392" y="237" type="line"/>
      <point x="208" y="237" type="line"/>
    </contour>
    <contour>
      <point x="247" y="491" type="line"/>
      <point x="431" y="491" type="line"/>
      <point x="458" y="669" type="line"/>
      <point x="274" y="669" type="line"/>
    </contour>
  </outline>
</glyph>
<glyph name="oslash" format="1">
  <advance width="597"/>
  <unicode hex="00F8"/>
  <outline>
    <contour>
      <point x="59" y="-9" type="line"/>
      <point x="566" y="463" type="line"/>
      <point x="509" y="525" type="line"/>
      <point x="1" y="53" type="line"/>
    </contour>
    <component base="o" xOffset="9"/>
    <contour>
      <point x="284" y="517" type="move" name="top"/>
    </contour>
  </outline>
</glyph>
<glyph name="thorn" format="1">
  <advance width="616"/>
  <unicode hex="00FE"/>
  <outline>
    <contour>
      <point x="-9" y="-161" type="line"/>
      <point x="185" y="-161" type="line"/>
      <point x="215" y="35" type="line" smooth="yes"/>
      <point x="218" y="55"/>
      <point x="221" y="54"/>
      <point x="235" y="40" type="curve" smooth="yes"/>
      <point x="270" y="1"/>
      <point x="308" y="-10"/>
      <point x="352" y="-10" type="curve" smooth="yes"/>
      <point x="460" y="-10"/>
      <point x="560" y="63"/>
      <point x="589" y="260" type="curve" smooth="yes"/>
      <point x="617" y="443"/>
      <point x="548" y="527"/>
      <point x="440" y="527" type="curve" smooth="yes"/>
      <point x="373" y="527"/>
      <point x="327" y="501"/>
      <point x="280" y="457" type="curve"/>
      <point x="320" y="723" type="line"/>
      <point x="125" y="723" type="line"/>
    </contour>
    <contour>
      <point x="293" y="108" type="curve" smooth="yes"/>
      <point x="262" y="108"/>
      <point x="244" y="124"/>
      <point x="232" y="147" type="curve"/>
      <point x="263" y="354" type="line" smooth="yes"/>
      <point x="268" y="385"/>
      <point x="301" y="409"/>
      <point x="339" y="409" type="curve" smooth="yes"/>
      <point x="390" y="409"/>
      <point x="412" y="379"/>
      <point x="395" y="266" type="curve" smooth="yes"/>
      <point x="376" y="141"/>
      <point x="342" y="108"/>
    </contour>
  </outline>
</glyph>
<glyph name="dcroat" format="1">
  <advance width="656"/>
  <unicode hex="0111"/>
  <outline>
    <contour>
      <point x="300" y="566" type="line"/>
      <point x="662" y="566" type="line"/>
      <point x="676" y="670" type="line"/>
      <point x="314" y="670" type="line"/>
    </contour>
    <component base="d"/>
  </outline>
</glyph>
<glyph name="gcommaaccent" format="1">
  <advance width="635"/>
  <unicode hex="0123"/>
  <outline>
    <contour>
      <point x="281" y="584" type="line"/>
      <point x="407" y="584" type="line"/>
      <point x="421" y="684" type="line"/>
      <point x="360" y="684" type="line"/>
      <point x="440" y="776" type="line"/>
      <point x="374" y="776" type="line"/>
      <point x="296" y="692" type="line"/>
    </contour>
    <component base="g"/>
    <contour>
      <point x="347" y="517" type="move" name="_top"/>
    </contour>
  </outline>
</glyph>
<glyph name="Hbar" format="1">
  <advance width="815"/>
  <unicode hex="0126"/>
  <outline>
    <contour>
      <point x="60" y="541" type="line"/>
      <point x="834" y="541" type="line"/>
      <point x="849" y="642" type="line"/>
      <point x="75" y="642" type="line"/>
    </contour>
    <component base="H" xOffset="36"/>
  </outline>
</glyph>
<glyph name="hbar" format="1">
  <advance width="659"/>
  <unicode hex="0127"/>
  <outline>
    <contour>
      <point x="64" y="566" type="line"/>
      <point x="425" y="566" type="line"/>
      <point x="439" y="670" type="line"/>
      <point x="78" y="670" type="line"/>
    </contour>
    <component base="h" xOffset="50"/>
  </outline>
</glyph>
<glyph name="idotless" format="1">
  <advance width="296"/>
  <unicode hex="0131"/>
  <outline>
    <contour>
      <point x="14" y="0" type="line"/>
      <point x="208" y="0" type="line"/>
      <point x="287" y="517" type="line"/>
      <point x="93" y="517" type="line"/>
    </contour>
    <contour>
      <point x="182" y="9" type="move" name="ogonek"/>
    </contour>
    <contour>
      <point x="193" y="517" type="move" name="top"/>
    </contour>
  </outline>
</glyph>
<glyph name="kgreenlandic" format="1">
  <advance width="628"/>
  <unicode hex="0138"/>
  <outline>
    <contour>
      <point x="14" y="0" type="line"/>
      <point x="208" y="0" type="line"/>
      <point x="230" y="146" type="line"/>
      <point x="308" y="211" type="line"/>
      <point x="364" y="0" type="line"/>
      <point x="582" y="0" type="line"/>
      <point x="457" y="350" type="line"/>
      <point x="647" y="517" type="line"/>
      <point x="457" y="517" type="line"/>
      <point x="257" y="322" type="line"/>
      <point x="286" y="517" type="line"/>
      <point x="93" y="517" type="line"/>
    </contour>
  </outline>
</glyph>
<glyph name="Lslash" format="1">
  <advance width="622"/>
  <unicode hex="0141"/>
  <outline>
    <contour>
      <point x="24" y="269" type="line"/>
      <point x="461" y="393" type="line"/>
      <point x="461" y="544" type="line"/>
      <point x="24" y="428" type="line"/>
    </contour>
    <component base="L" xOffset="44"/>
  </outline>
</glyph>
<glyph name="lslash" format="1">
  <advance width="409"/>
  <unicode hex="0142"/>
  <outline>
    <contour>
      <point x="46" y="142" type="line"/>
      <point x="362" y="349" type="line"/>
      <point x="362" y="502" type="line"/>
      <point x="46" y="304" type="line"/>
    </contour>
    <component base="l" xOffset="86"/>
  </outline>
</glyph>
<glyph name="eng" format="1">
  <advance width="578"/>
  <unicode hex="014B"/>
  <outline>
    <contour>
      <point x="281" y="-166" type="curve" smooth="yes"/>
      <point x="388" y="-166"/>
      <point x="474" y="-92"/>
      <point x="491" y="28" type="curve" smooth="yes"/>
      <point x="539" y="369" type="line" smooth="yes"/>
      <point x="552" y="465"/>
      <point x="504" y="527"/>
      <point x="420" y="527" type="curve" smooth="yes"/>
      <point x="361" y="527"/>
      <point x="301" y="488"/>
      <point x="254" y="436" type="curve"/>
      <point x="265" y="517" type="line"/>
      <point x="90" y="517" type="line"/>
      <point x="14" y="0" type="line"/>
      <point x="195" y="0" type="line"/>
      <point x="243" y="340" type="line"/>
      <point x="264" y="373"/>
      <point x="287" y="389"/>
      <point x="315" y="389" type="curve" smooth="yes"/>
      <point x="344" y="389"/>
      <point x="360" y="371"/>
      <point x="356" y="342" type="curve" smooth="yes"/>
      <point x="311" y="25" type="line"/>
      <point x="308" y="0"/>
      <point x="294" y="-10"/>
      <point x="266" y="-15" type="curve"/>
      <point x="244" y="-18" type="line"/>
      <point x="225" y="-153" type="line"/>
      <point x="225" y="-153"/>
      <point x="229" y="-166"/>
    </contour>
  </outline>
</glyph>
<glyph name="OE" format="1">
  <advance width="1130"/>
  <unicode hex="0152"/>
  <outline>
    <contour>
      <point x="363" y="-10" type="curve" smooth="yes"/>
      <point x="417" y="-10"/>
      <point x="463" y="-7"/>
      <point x="501" y="0" type="curve"/>
      <point x="549" y="0" type="line"/>
      <point x="1036" y="0" type="line"/>
      <point x="1061" y="160" type="line"/>
      <point x="713" y="160" type="line"/>
      <point x="732" y="285" type="line"/>
      <point x="944" y="285" type="line"/>
      <point x="968" y="442" type="line"/>
      <point x="756" y="442" type="line"/>
      <point x="774" y="564" type="line"/>
      <point x="1113" y="564" type="line"/>
      <point x="1138" y="723" type="line"/>
      <point x="671" y="723" type="line"/>
      <point x="610" y="723" type="line"/>
      <point x="578" y="730"/>
      <point x="536" y="733"/>
      <point x="487" y="733" type="curve" smooth="yes"/>
      <point x="254" y="733"/>
      <point x="93" y="586"/>
      <point x="59" y="360" type="curve" smooth="yes"/>
      <point x="24" y="135"/>
      <point x="138" y="-10"/>
    </contour>
    <contour>
      <point x="374" y="142" type="curve" smooth="yes"/>
      <point x="288" y="142"/>
      <point x="265" y="201"/>
      <point x="289" y="357" type="curve" smooth="yes"/>
      <point x="313" y="518"/>
      <point x="357" y="583"/>
      <point x="441" y="583" type="curve" smooth="yes"/>
      <point x="524" y="583"/>
      <point x="548" y="518"/>
      <point x="523" y="357" type="curve" smooth="yes"/>
      <point x="499" y="201"/>
      <point x="459" y="142"/>
    </contour>
  </outline>
</glyph>
<glyph name="oe" format="1">
  <advance width="1845"/>
  <unicode hex="0153"/>
  <outline>
    <contour>
      <point x="507" y="-20" type="curve" smooth="yes"/>
      <point x="635" y="-20"/>
      <point x="749" y="16"/>
      <point x="849" y="76" type="curve" smooth="yes"/>
      <point x="861" y="84"/>
      <point x="871" y="86"/>
      <point x="883" y="78" type="curve" smooth="yes"/>
      <point x="963" y="16"/>
      <point x="1069" y="-20"/>
      <point x="1195" y="-20" type="curve" smooth="yes"/>
      <point x="1423" y="-20"/>
      <point x="1571" y="40"/>
      <point x="1749" y="264" type="curve"/>
      <point x="1529" y="360" type="line"/>
      <point x="1425" y="268"/>
      <point x="1355" y="238"/>
      <point x="1287" y="238" type="curve" smooth="yes"/>
      <point x="1173" y="238"/>
      <point x="1095" y="304"/>
      <point x="1117" y="446" type="curve"/>
      <point x="1785" y="446" type="line"/>
      <point x="1843" y="830"/>
      <point x="1655" y="1054"/>
      <point x="1351" y="1054" type="curve" smooth="yes"/>
      <point x="1237" y="1054"/>
      <point x="1127" y="1020"/>
      <point x="1031" y="958" type="curve" smooth="yes"/>
      <point x="1009" y="944"/>
      <point x="1001" y="944"/>
      <point x="983" y="958" type="curve" smooth="yes"/>
      <point x="903" y="1018"/>
      <point x="801" y="1054"/>
      <point x="673" y="1054" type="curve" smooth="yes"/>
      <point x="367" y="1054"/>
      <point x="99" y="836"/>
      <point x="49" y="510" type="curve" smooth="yes"/>
      <point x="3" y="200"/>
      <point x="191" y="-20"/>
    </contour>
    <contour>
      <point x="547" y="230" type="curve" smooth="yes"/>
      <point x="447" y="230"/>
      <point x="411" y="316"/>
      <point x="443" y="518" type="curve" smooth="yes"/>
      <point x="473" y="724"/>
      <point x="535" y="812"/>
      <point x="637" y="812" type="curve" smooth="yes"/>
      <point x="741" y="812"/>
      <point x="771" y="724"/>
      <point x="741" y="518" type="curve" smooth="yes"/>
      <point x="711" y="318"/>
      <point x="653" y="230"/>
    </contour>
    <contour>
      <point x="1439" y="648" type="curve"/>
      <point x="1155" y="650" type="line"/>
      <point x="1171" y="770"/>
      <point x="1253" y="824"/>
      <point x="1331" y="824" type="curve" smooth="yes"/>
      <point x="1429" y="824"/>
      <point x="1449" y="708"/>
    </contour>
  </outline>
</glyph>
<glyph name="Tbar" format="1">
  <advance width="637"/>
  <unicode hex="0166"/>
  <outline>
    <contour>
      <point x="99" y="274" type="line"/>
      <point x="526" y="274" type="line"/>
      <point x="546" y="411" type="line"/>
      <point x="119" y="411" type="line"/>
    </contour>
    <component base="T"/>
  </outline>
</glyph>
<glyph name="tbar" format="1">
  <advance width="507"/>
  <unicode hex="0167"/>
  <outline>
    <contour>
      <point x="58" y="225" type="line"/>
      <point x="420" y="225" type="line"/>
      <point x="420" y="330" type="line"/>
      <point x="58" y="330" type="line"/>
    </contour>
    <component base="t" xOffset="48"/>
  </outline>
</glyph>
<glyph name="Schwa" format="1">
  <advance width="783"/>
  <unicode hex="018F"/>
  <outline>
    <contour>
      <point x="346" y="-10" type="curve" smooth="yes"/>
      <point x="532" y="-10"/>
      <point x="721" y="154"/>
      <point x="754" y="371" type="curve" smooth="yes"/>
      <point x="786" y="584"/>
      <point x="677" y="733"/>
      <point x="461" y="733" type="curve" smooth="yes"/>
      <point x="320" y="733"/>
      <point x="208" y="672"/>
      <point x="130" y="553" type="curve" smooth="yes"/>
      <point x="120" y="537"/>
      <point x="119" y="528"/>
      <point x="130" y="523" type="curve" smooth="yes"/>
      <point x="253" y="456" type="line" smooth="yes"/>
      <point x="269" y="448"/>
      <point x="275" y="450"/>
      <point x="280" y="457" type="curve" smooth="yes"/>
      <point x="336" y="530"/>
      <point x="378" y="564"/>
      <point x="438" y="564" type="curve" smooth="yes"/>
      <point x="533" y="564"/>
      <point x="540" y="493"/>
      <point x="532" y="436" type="curve" smooth="yes"/>
      <point x="529" y="420"/>
      <point x="521" y="414"/>
      <point x="509" y="414" type="curve" smooth="yes"/>
      <point x="90" y="414" type="line" smooth="yes"/>
      <point x="68" y="414"/>
      <point x="66" y="404"/>
      <point x="62" y="382" type="curve" smooth="yes"/>
      <point x="24" y="133"/>
      <point x="120" y="-10"/>
    </contour>
    <contour>
      <point x="367" y="142" type="curve" smooth="yes"/>
      <point x="301" y="142"/>
      <point x="270" y="196"/>
      <point x="279" y="260" type="curve" smooth="yes"/>
      <point x="282" y="275"/>
      <point x="287" y="278"/>
      <point x="303" y="278" type="curve" smooth="yes"/>
      <point x="505" y="277" type="line"/>
      <point x="481" y="187"/>
      <point x="445" y="142"/>
    </contour>
  </outline>
</glyph>
<glyph name="florin" format="1">
  <advance width="582"/>
  <unicode hex="0192"/>
  <outline>
    <contour>
      <point x="-52" y="-168" type="line"/>
      <point x="89" y="-168" type="line" smooth="yes"/>
      <point x="184" y="-168"/>
      <point x="260" y="-115"/>
      <point x="288" y="-30" type="curve" smooth="yes"/>
      <point x="424" y="385" type="line"/>
      <point x="516" y="385" type="line"/>
      <point x="560" y="517" type="line"/>
      <point x="461" y="517" type="line"/>
      <point x="471" y="547" type="line" smooth="yes"/>
      <point x="480" y="574"/>
      <point x="508" y="597"/>
      <point x="531" y="597" type="curve" smooth="yes"/>
      <point x="591" y="597" type="line"/>
      <point x="631" y="723" type="line"/>
      <point x="493" y="723" type="line" smooth="yes"/>
      <point x="399" y="723"/>
      <point x="324" y="671"/>
      <point x="295" y="586" type="curve" smooth="yes"/>
      <point x="273" y="517" type="line"/>
      <point x="189" y="517" type="line"/>
      <point x="146" y="385" type="line"/>
      <point x="230" y="385" type="line"/>
      <point x="110" y="20" type="line" smooth="yes"/>
      <point x="94" y="-30"/>
      <point x="81" y="-41"/>
      <point x="47" y="-41" type="curve" smooth="yes"/>
      <point x="-14" y="-41" type="line"/>
    </contour>
  </outline>
</glyph>
<glyph name="Ohorn" format="1">
  <advance width="735"/>
  <unicode hex="01A0"/>
  <outline>
    <component base="O" xOffset="-4"/>
    <component base="horncomb" xOffset="223" yOffset="210"/>
    <contour>
      <point x="344" y="0" type="move" name="bottom"/>
    </contour>
    <contour>
      <point x="439" y="723" type="move" name="top"/>
    </contour>
  </outline>
</glyph>
<glyph name="Aringacute" format="1">
  <advance width="789"/>
  <unicode hex="01FA"/>
  <outline>
    <contour>
      <point x="573" y="765" type="curve" smooth="yes"/>
      <point x="582" y="828"/>
      <point x="537" y="876"/>
      <point x="474" y="876" type="curve" smooth="yes"/>
      <point x="419" y="876"/>
      <point x="369" y="841"/>
      <point x="362" y="788" type="curve" smooth="yes"/>
      <point x="353" y="722"/>
      <point x="398" y="675"/>
      <point x="461" y="675" type="curve" smooth="yes"/>
      <point x="516" y="675"/>
      <point x="565" y="709"/>
    </contour>
    <contour>
      <point x="515" y="785" type="curve" smooth="yes"/>
      <point x="511" y="755"/>
      <point x="482" y="727"/>
      <point x="452" y="727" type="curve" smooth="yes"/>
      <point x="431" y="727"/>
      <point x="414" y="743"/>
      <point x="417" y="764" type="curve" smooth="yes"/>
      <point x="421" y="795"/>
      <point x="451" y="820"/>
      <point x="480" y="820" type="curve" smooth="yes"/>
      <point x="503" y="820"/>
      <point x="517" y="807"/>
    </contour>
    <contour>
      <point x="338" y="723" type="line"/>
      <point x="-13" y="0" type="line"/>
      <point x="186" y="0" type="line"/>
      <point x="253" y="140" type="line"/>
      <point x="471" y="140" type="line"/>
      <point x="495" y="0" type="line"/>
      <point x="721" y="0" type="line"/>
      <point x="576" y="723" type="line"/>
    </contour>
    <contour>
      <point x="449" y="306" type="line"/>
      <point x="316" y="306" type="line"/>
      <point x="412" y="507" type="line"/>
    </contour>
    <contour>
      <point x="467" y="939" type="line"/>
      <point x="436" y="853" type="line"/>
      <point x="521" y="853" type="line"/>
      <point x="575" y="939" type="line"/>
    </contour>
  </outline>
</glyph>
<glyph name="oinvertedbreve" format="1">
  <advance width="1124"/>
  <unicode hex="020F"/>
  <outline>
    <component base="o"/>
    <component base="breveinvertedcomb" xOffset="168"/>
    <contour>
      <point x="576" y="1034" type="move" name="top"/>
    </contour>
  </outline>
</glyph>
<glyph name="jdotless" format="1">
  <advance width="329"/>
  <unicode hex="0237"/>
  <outline>
    <contour>
      <point x="-11" y="-166" type="curve"/>
      <point x="127" y="-166"/>
      <point x="203" y="-100"/>
      <point x="223" y="28" type="curve" smooth="yes"/>
      <point x="297" y="517" type="line"/>
      <point x="103" y="517" type="line"/>
      <point x="29" y="28" type="line"/>
      <point x="26" y="7"/>
      <point x="13" y="-6"/>
      <point x="-25" y="-14" type="curve"/>
      <point x="-55" y="-19" type="line"/>
      <point x="-74" y="-149" type="line"/>
      <point x="-74" y="-149"/>
      <point x="-62" y="-166"/>
    </contour>
    <contour>
      <point x="199" y="517" type="move" name="top"/>
    </contour>
  </outline>
</glyph>
<glyph name="commaturnedmod" format="1">
  <advance width="278"/>
  <unicode hex="02BB"/>
  <outline>
    <contour>
      <point x="283" y="675" type="line"/>
      <point x="290" y="725" type="line"/>
      <point x="190" y="745"/>
      <point x="103" y="654"/>
      <point x="91" y="566" type="curve"/>
      <point x="70" y="417" type="line"/>
      <point x="247" y="417" type="line"/>
      <point x="271" y="585" type="line"/>
      <point x="189" y="594" type="line"/>
      <point x="191" y="605" type="line"/>
      <point x="196" y="644"/>
      <point x="237" y="668"/>
      <point x="269" y="673" type="curve"/>
    </contour>
  </outline>
</glyph>
<glyph name="gravecomb" format="1">
  <advance width="341"/>
  <unicode hex="0300"/>
  <outline>
    <contour>
      <point x="329" y="551" type="line"/>
      <point x="367" y="628" type="line"/>
      <point x="124" y="735" type="line"/>
      <point x="64" y="617" type="line"/>
    </contour>
    <contour>
      <point x="201" y="517" type="move" name="_top"/>
    </contour>
  </outline>
</glyph>
<glyph name="acutecomb" format="1">
  <advance width="341"/>
  <unicode hex="0301"/>
  <outline>
    <contour>
      <point x="83" y="551" type="line"/>
      <point x="368" y="617" type="line"/>
      <point x="345" y="735" type="line"/>
      <point x="69" y="628" type="line"/>
    </contour>
    <contour>
      <point x="201" y="517" type="move" name="_top"/>
    </contour>
  </outline>
</glyph>
<glyph name="circumflexcomb" format="1">
  <advance width="425"/>
  <unicode hex="0302"/>
  <outline>
    <contour>
      <point x="57" y="580" type="line"/>
      <point x="188" y="580" type="line"/>
      <point x="271" y="662" type="line"/>
      <point x="320" y="580" type="line"/>
      <point x="458" y="580" type="line"/>
      <point x="348" y="733" type="line"/>
      <point x="217" y="733" type="line"/>
    </contour>
    <contour>
      <point x="250" y="517" type="move" name="_top"/>
    </contour>
  </outline>
</glyph>
<glyph name="tildecomb" format="1">
  <advance width="478"/>
  <unicode hex="0303"/>
  <outline>
    <contour>
      <point x="118" y="588" type="line"/>
      <point x="153" y="615"/>
      <point x="175" y="624"/>
      <point x="209" y="624" type="curve" smooth="yes"/>
      <point x="264" y="624"/>
      <point x="303" y="594"/>
      <point x="361" y="594" type="curve" smooth="yes"/>
      <point x="408" y="594"/>
      <point x="454" y="614"/>
      <point x="481" y="635" type="curve"/>
      <point x="476" y="738" type="line"/>
      <point x="452" y="720"/>
      <point x="414" y="697"/>
      <point x="376" y="697" type="curve" smooth="yes"/>
      <point x="330" y="697"/>
      <point x="281" y="730"/>
      <point x="220" y="730" type="curve" smooth="yes"/>
      <point x="168" y="730"/>
      <point x="135" y="706"/>
      <point x="104" y="677" type="curve"/>
    </contour>
    <contour>
      <point x="268" y="517" type="move" name="_top"/>
    </contour>
  </outline>
</glyph>
<glyph name="macroncomb" format="1">
  <advance width="452"/>
  <unicode hex="0304"/>
  <outline>
    <contour>
      <point x="70" y="604" type="line"/>
      <point x="468" y="604" type="line"/>
      <point x="486" y="723" type="line"/>
      <point x="88" y="723" type="line"/>
    </contour>
    <contour>
      <point x="256" y="517" type="move" name="_top"/>
    </contour>
  </outline>
</glyph>
<glyph name="brevecomb" format="1">
  <advance width="432"/>
  <unicode hex="0306"/>
  <outline>
    <contour>
      <point x="259" y="578" type="curve" smooth="yes"/>
      <point x="347" y="578"/>
      <point x="433" y="625"/>
      <point x="477" y="723" type="curve"/>
      <point x="372" y="723" type="line"/>
      <point x="348" y="689"/>
      <point x="316" y="665"/>
      <point x="272" y="665" type="curve" smooth="yes"/>
      <point x="229" y="665"/>
      <point x="204" y="689"/>
      <point x="190" y="723" type="curve"/>
      <point x="85" y="723" type="line"/>
      <point x="99" y="622"/>
      <point x="173" y="578"/>
    </contour>
    <contour>
      <point x="250" y="517" type="move" name="_top"/>
    </contour>
  </outline>
</glyph>
<glyph name="dotaccentcomb" format="1">
  <advance width="247"/>
  <unicode hex="0307"/>
  <outline>
    <contour>
      <point x="67" y="560" type="line"/>
      <point x="261" y="560" type="line"/>
      <point x="286" y="723" type="line"/>
      <point x="92" y="723" type="line"/>
    </contour>
    <contour>
      <point x="158" y="517" type="move" name="_top"/>
    </contour>
  </outline>
</glyph>
<glyph name="dieresiscomb" format="1">
  <advance width="451"/>
  <unicode hex="0308"/>
  <outline>
    <contour>
      <point x="299" y="579" type="line"/>
      <point x="493" y="579" type="line"/>
      <point x="518" y="743" type="line"/>
      <point x="324" y="743" type="line"/>
    </contour>
    <contour>
      <point x="46" y="579" type="line"/>
      <point x="240" y="579" type="line"/>
      <point x="265" y="743" type="line"/>
      <point x="71" y="743" type="line"/>
    </contour>
    <contour>
      <point x="263" y="520" type="move" name="_top"/>
    </contour>
  </outline>
</glyph>
<glyph name="hookabovecomb" format="1">
  <advance width="598"/>
  <unicode hex="0309"/>
  <outline>
    <contour>
      <point x="378" y="592" type="line"/>
      <point x="459" y="636"/>
      <point x="480" y="699"/>
      <point x="450" y="761" type="curve" smooth="yes"/>
      <point x="425" y="813"/>
      <point x="355" y="828"/>
      <point x="284" y="786" type="curve"/>
      <point x="315" y="723" type="line"/>
      <point x="338" y="737"/>
      <point x="366" y="734"/>
      <point x="374" y="716" type="curve" smooth="yes"/>
      <point x="384" y="693"/>
      <point x="373" y="672"/>
      <point x="347" y="657" type="curve"/>
    </contour>
    <contour>
      <point x="315" y="517" type="move" name="_top"/>
    </contour>
    <contour>
      <point x="277" y="599" type="move" name="_topviet"/>
    </contour>
  </outline>
</glyph>
<glyph name="ringcomb" format="1">
  <advance width="277"/>
  <unicode hex="030A"/>
  <outline>
    <contour>
      <point x="174" y="548" type="curve" smooth="yes"/>
      <point x="236" y="548"/>
      <point x="295" y="598"/>
      <point x="304" y="662" type="curve" smooth="yes"/>
      <point x="314" y="724"/>
      <point x="271" y="774"/>
      <point x="208" y="774" type="curve" smooth="yes"/>
      <point x="146" y="774"/>
      <point x="87" y="725"/>
      <point x="78" y="664" type="curve" smooth="yes"/>
      <point x="68" y="599"/>
      <point x="110" y="548"/>
    </contour>
    <contour>
      <point x="183" y="613" type="curve" smooth="yes"/>
      <point x="157" y="613"/>
      <point x="138" y="636"/>
      <point x="142" y="661" type="curve" smooth="yes"/>
      <point x="146" y="687"/>
      <point x="171" y="707"/>
      <point x="197" y="707" type="curve" smooth="yes"/>
      <point x="223" y="707"/>
      <point x="240" y="687"/>
      <point x="236" y="661" type="curve" smooth="yes"/>
      <point x="232" y="636"/>
      <point x="209" y="613"/>
    </contour>
    <contour>
      <point x="167" y="506" type="move" name="_top"/>
    </contour>
  </outline>
</glyph>
<glyph name="hungarumlautcomb" format="1">
  <advance width="968"/>
  <unicode hex="030B"/>
  <outline>
    <contour>
      <point x="642" y="1082" type="line"/>
      <point x="1036" y="1286" type="line"/>
      <point x="908" y="1474" type="line"/>
      <point x="548" y="1202" type="line"/>
    </contour>
    <contour>
      <point x="218" y="1082" type="line"/>
      <point x="612" y="1286" type="line"/>
      <point x="484" y="1472" type="line"/>
      <point x="122" y="1202" type="line"/>
    </contour>
    <contour>
      <point x="546" y="1034" type="move" name="_top"/>
    </contour>
  </outline>
</glyph>
<glyph name="caroncomb" format="1">
  <advance width="439"/>
  <unicode hex="030C"/>
  <outline>
    <contour>
      <point x="190" y="570" type="line"/>
      <point x="322" y="570" type="line"/>
      <point x="479" y="724" type="line"/>
      <point x="340" y="724" type="line"/>
      <point x="266" y="642" type="line"/>
      <point x="208" y="724" type="line"/>
      <point x="77" y="724" type="line"/>
    </contour>
    <contour>
      <point x="248" y="517" type="move" name="_top"/>
    </contour>
  </outline>
</glyph>
<glyph name="dblgravecomb" format="1">
  <advance width="485"/>
  <unicode hex="030F"/>
  <outline>
    <contour>
      <point x="443" y="540" type="line"/>
      <point x="508" y="601" type="line"/>
      <point x="370" y="737" type="line"/>
      <point x="276" y="643" type="line"/>
    </contour>
    <contour>
      <point x="230" y="540" type="line"/>
      <point x="296" y="601" type="line"/>
      <point x="158" y="737" type="line"/>
      <point x="64" y="643" type="line"/>
    </contour>
    <contour>
      <point x="298" y="517" type="move" name="_top"/>
    </contour>
  </outline>
</glyph>
<glyph name="breveinvertedcomb" format="1">
  <advance width="422"/>
  <unicode hex="0311"/>
  <outline>
    <component base="brevecomb" yScale="-1" yxScale="-0.281" xOffset="183" yOffset="1335"/>
    <contour>
      <point x="237" y="517" type="move" name="_top"/>
    </contour>
  </outline>
</glyph>
<glyph name="horncomb" format="1">
  <advance width="227"/>
  <unicode hex="031B"/>
  <outline>
    <contour>
      <point x="26" y="440" type="line"/>
      <point x="201" y="420"/>
      <point x="253" y="476"/>
      <point x="280" y="639" type="curve"/>
      <point x="163" y="639" type="line"/>
      <point x="135" y="520"/>
      <point x="110" y="528"/>
      <point x="39" y="529" type="curve"/>
    </contour>
    <contour>
      <point x="26" y="440" type="move" name="_horn"/>
    </contour>
    <contour>
      <point x="145" y="530" type="move" name="_topright"/>
    </contour>
    <contour>
      <point x="145" y="530" type="move" name="topright"/>
    </contour>
  </outline>
</glyph>
<glyph name="dotbelowcomb" format="1">
  <advance width="206"/>
  <unicode hex="0323"/>
  <outline>
    <component base="dotaccentcomb" xOffset="-131" yOffset="-794"/>
    <contour>
      <point x="67" y="0" type="move" name="_bottom"/>
    </contour>
  </outline>
</glyph>
<glyph name="commaaccentcomb" format="1">
  <advance width="180"/>
  <unicode hex="0326"/>
  <outline>
    <component base="comma" xOffset="-87" yOffset="-217"/>
    <contour>
      <point x="54" y="0" type="move" name="_bottom"/>
    </contour>
  </outline>
</glyph>
<glyph name="cedillacomb" format="1">
  <advance width="310"/>
  <unicode hex="0327"/>
  <outline>
    <contour>
      <point x="83" y="-219" type="curve" smooth="yes"/>
      <point x="151" y="-219"/>
      <point x="217" y="-186"/>
      <point x="225" y="-134" type="curve" smooth="yes"/>
      <point x="230" y="-97"/>
      <point x="207" y="-52"/>
      <point x="126" y="-52" type="curve"/>
      <point x="155" y="5" type="line"/>
      <point x="77" y="5" type="line"/>
      <point x="27" y="-81" type="line" smooth="yes"/>
      <point x="20" y="-92"/>
      <point x="25" y="-93"/>
      <point x="35" y="-93" type="curve" smooth="yes"/>
      <point x="102" y="-93"/>
      <point x="121" y="-107"/>
      <point x="118" y="-131" type="curve" smooth="yes"/>
      <point x="115" y="-147"/>
      <point x="95" y="-157"/>
      <point x="68" y="-157" type="curve" smooth="yes"/>
      <point x="39" y="-157"/>
      <point x="9" y="-144"/>
      <point x="-12" y="-131" type="curve"/>
      <point x="-45" y="-190" type="line"/>
      <point x="-10" y="-213"/>
      <point x="36" y="-219"/>
    </contour>
    <contour>
      <point x="111" y="0" type="move" name="_bottom"/>
    </contour>
  </outline>
</glyph>
<glyph name="ogonekcomb" format="1">
  <advance width="284"/>
  <unicode hex="0328"/>
  <outline>
    <contour>
      <point x="78" y="-170" type="curve" smooth="yes"/>
      <point x="127" y="-170"/>
      <point x="175" y="-156"/>
      <point x="197" y="-143" type="curve"/>
      <point x="209" y="-61" type="line"/>
      <point x="183" y="-75"/>
      <point x="162" y="-86"/>
      <point x="133" y="-86" type="curve" smooth="yes"/>
      <point x="115" y="-86"/>
      <point x="108" y="-77"/>
      <point x="110" y="-58" type="curve" smooth="yes"/>
      <point x="114" y="-36"/>
      <point x="133" y="-18"/>
      <point x="210" y="6" type="curve"/>
      <point x="77" y="6" type="line"/>
      <point x="-2" y="-21"/>
      <point x="-22" y="-52"/>
      <point x="-27" y="-85" type="curve" smooth="yes"/>
      <point x="-36" y="-143"/>
      <point x="7" y="-170"/>
    </contour>
    <contour>
      <point x="188" y="10" type="move" name="_ogonek"/>
    </contour>
  </outline>
</glyph>
<glyph name="pi" format="1">
  <advance width="689"/>
  <unicode hex="03C0"/>
  <outline>
    <contour>
      <point x="9" y="0" type="curve"/>
      <point x="192" y="0" type="line"/>
      <point x="237" y="96"/>
      <point x="291" y="286"/>
      <point x="305" y="385" type="curve"/>
      <point x="413" y="385" type="line"/>
      <point x="359" y="0" type="line"/>
      <point x="545" y="0" type="line"/>
      <point x="599" y="385" type="line"/>
      <point x="677" y="385" type="line"/>
      <point x="695" y="517" type="line"/>
      <point x="56" y="517" type="line"/>
      <point x="38" y="385" type="line"/>
      <point x="109" y="385" type="line" smooth="yes"/>
      <point x="115" y="385"/>
      <point x="117" y="381"/>
      <point x="116" y="375" type="curve" smooth="yes"/>
      <point x="103" y="283"/>
      <point x="53" y="112"/>
    </contour>
  </outline>
</glyph>
<glyph name="endash" format="1">
  <advance width="628"/>
  <unicode hex="2013"/>
  <outline>
    <contour>
      <point x="44" y="178" type="line"/>
      <point x="550" y="178" type="line"/>
      <point x="571" y="315" type="line"/>
      <point x="65" y="315" type="line"/>
    </contour>
  </outline>
</glyph>
<glyph name="emdash" format="1">
  <advance width="937"/>
  <unicode hex="2014"/>
  <outline>
    <contour>
      <point x="884" y="315" type="line"/>
      <point x="59" y="315" type="line"/>
      <point x="40" y="178" type="line"/>
      <point x="866" y="178" type="line"/>
    </contour>
  </outline>
</glyph>
<glyph name="quoteright" format="1">
  <advance width="287"/>
  <unicode hex="2019"/>
  <outline>
    <contour>
      <point x="70" y="401" type="line"/>
      <point x="134" y="401" type="line"/>
      <point x="274" y="574" type="line"/>
      <point x="297" y="723" type="line"/>
      <point x="121" y="723" type="line"/>
      <point x="95" y="555" type="line"/>
      <point x="152" y="548" type="line"/>
    </contour>
  </outline>
</glyph>
<glyph name="quotesinglbase" format="1">
  <advance width="327"/>
  <unicode hex="201A"/>
  <outline>
    <contour>
      <point x="-8" y="-151" type="line"/>
      <point x="61" y="-151" type="line"/>
      <point x="212" y="22" type="line"/>
      <point x="235" y="172" type="line"/>
      <point x="44" y="172" type="line"/>
      <point x="18" y="3" type="line"/>
      <point x="79" y="-4" type="line"/>
    </contour>
  </outline>
</glyph>
<glyph name="quotedblleft" format="1">
  <advance width="535"/>
  <unicode hex="201C"/>
  <outline>
    <contour>
      <point x="284" y="401" type="line"/>
      <point x="460" y="401" type="line"/>
      <point x="486" y="569" type="line"/>
      <point x="429" y="576" type="line"/>
      <point x="511" y="723" type="line"/>
      <point x="447" y="723" type="line"/>
      <point x="307" y="550" type="line"/>
    </contour>
    <contour>
      <point x="36" y="401" type="line"/>
      <point x="212" y="401" type="line"/>
      <point x="237" y="569" type="line"/>
      <point x="181" y="576" type="line"/>
      <point x="263" y="723" type="line"/>
      <point x="199" y="723" type="line"/>
      <point x="59" y="550" type="line"/>
    </contour>
  </outline>
</glyph>
<glyph name="quotedblright" format="1">
  <advance width="535"/>
  <unicode hex="201D"/>
  <outline>
    <contour>
      <point x="317" y="401" type="line"/>
      <point x="382" y="401" type="line"/>
      <point x="522" y="574" type="line"/>
      <point x="545" y="723" type="line"/>
      <point x="368" y="723" type="line"/>
      <point x="343" y="555" type="line"/>
      <point x="400" y="548" type="line"/>
    </contour>
    <contour>
      <point x="70" y="401" type="line"/>
      <point x="134" y="401" type="line"/>
      <point x="274" y="574" type="line"/>
      <point x="297" y="723" type="line"/>
      <point x="121" y="723" type="line"/>
      <point x="95" y="555" type="line"/>
      <point x="152" y="548" type="line"/>
    </contour>
  </outline>
</glyph>
<glyph name="dagger" format="1">
  <advance width="577"/>
  <unicode hex="2020"/>
  <outline>
    <contour>
      <point x="128" y="-161" type="line"/>
      <point x="307" y="-161" type="line"/>
      <point x="352" y="375" type="line"/>
      <point x="532" y="347" type="line"/>
      <point x="557" y="511" type="line"/>
      <point x="375" y="486" type="line"/>
      <point x="442" y="723" type="line"/>
      <point x="260" y="723" type="line"/>
      <point x="255" y="486" type="line"/>
      <point x="82" y="511" type="line"/>
      <point x="57" y="347" type="line"/>
      <point x="244" y="375" type="line"/>
    </contour>
  </outline>
</glyph>
<glyph name="daggerdbl" format="1">
  <advance width="579"/>
  <unicode hex="2021"/>
  <outline>
    <contour>
      <point x="130" y="-161" type="line"/>
      <point x="312" y="-161" type="line"/>
      <point x="313" y="57" type="line"/>
      <point x="488" y="31" type="line"/>
      <point x="513" y="195" type="line"/>
      <point x="327" y="168" type="line"/>
      <point x="355" y="354" type="line"/>
      <point x="533" y="327" type="line"/>
      <point x="557" y="490" type="line"/>
      <point x="376" y="465" type="line"/>
      <point x="445" y="723" type="line"/>
      <point x="264" y="723" type="line"/>
      <point x="256" y="465" type="line"/>
      <point x="82" y="490" type="line"/>
      <point x="58" y="327" type="line"/>
      <point x="243" y="354" type="line"/>
      <point x="214" y="168" type="line"/>
      <point x="38" y="195" type="line"/>
      <point x="13" y="31" type="line"/>
      <point x="195" y="57" type="line"/>
    </contour>
  </outline>
</glyph>
<glyph name="bullet" format="1">
  <advance width="389"/>
  <unicode hex="2022"/>
  <outline>
    <contour>
      <point x="202" y="217" type="curve" smooth="yes"/>
      <point x="285" y="217"/>
      <point x="353" y="285"/>
      <point x="353" y="368" type="curve" smooth="yes"/>
      <point x="353" y="450"/>
      <point x="285" y="518"/>
      <point x="202" y="518" type="curve" smooth="yes"/>
      <point x="119" y="518"/>
      <point x="52" y="450"/>
      <point x="52" y="368" type="curve" smooth="yes"/>
      <point x="52" y="285"/>
      <point x="119" y="217"/>
    </contour>
  </outline>
</glyph>
<glyph name="perthousand" format="1">
  <advance width="1390"/>
  <unicode hex="2030"/>
  <outline>
    <contour>
      <point x="291" y="734" type="curve" smooth="yes"/>
      <point x="187" y="734"/>
      <point x="92" y="639"/>
      <point x="77" y="538" type="curve" smooth="yes"/>
      <point x="61" y="428"/>
      <point x="136" y="325"/>
      <point x="250" y="325" type="curve" smooth="yes"/>
      <point x="355" y="325"/>
      <point x="446" y="416"/>
      <point x="460" y="516" type="curve" smooth="yes"/>
      <point x="476" y="627"/>
      <point x="402" y="734"/>
    </contour>
    <contour>
      <point x="246" y="421" type="curve" smooth="yes"/>
      <point x="210" y="421"/>
      <point x="207" y="451"/>
      <point x="215" y="515" type="curve" smooth="yes"/>
      <point x="226" y="593"/>
      <point x="250" y="639"/>
      <point x="292" y="639" type="curve" smooth="yes"/>
      <point x="327" y="639"/>
      <point x="331" y="606"/>
      <point x="322" y="537" type="curve" smooth="yes"/>
      <point x="312" y="463"/>
      <point x="290" y="421"/>
    </contour>
    <contour>
      <point x="738" y="398" type="curve" smooth="yes"/>
      <point x="633" y="398"/>
      <point x="539" y="304"/>
      <point x="524" y="203" type="curve" smooth="yes"/>
      <point x="509" y="93"/>
      <point x="582" y="-10"/>
      <point x="696" y="-10" type="curve" smooth="yes"/>
      <point x="801" y="-10"/>
      <point x="893" y="81"/>
      <point x="907" y="181" type="curve" smooth="yes"/>
      <point x="923" y="292"/>
      <point x="849" y="398"/>
    </contour>
    <contour>
      <point x="693" y="86" type="curve" smooth="yes"/>
      <point x="657" y="86"/>
      <point x="653" y="116"/>
      <point x="663" y="180" type="curve" smooth="yes"/>
      <point x="673" y="258"/>
      <point x="697" y="304"/>
      <point x="740" y="304" type="curve" smooth="yes"/>
      <point x="775" y="304"/>
      <point x="779" y="271"/>
      <point x="769" y="202" type="curve" smooth="yes"/>
      <point x="758" y="128"/>
      <point x="738" y="86"/>
    </contour>
    <contour>
      <point x="1162" y="398" type="curve" smooth="yes"/>
      <point x="1058" y="398"/>
      <point x="964" y="304"/>
      <point x="949" y="203" type="curve" smooth="yes"/>
      <point x="933" y="93"/>
      <point x="1007" y="-10"/>
      <point x="1121" y="-10" type="curve" smooth="yes"/>
      <point x="1226" y="-10"/>
      <point x="1317" y="81"/>
      <point x="1332" y="181" type="curve" smooth="yes"/>
      <point x="1348" y="292"/>
      <point x="1274" y="398"/>
    </contour>
    <contour>
      <point x="1118" y="86" type="curve" smooth="yes"/>
      <point x="1082" y="86"/>
      <point x="1078" y="116"/>
      <point x="1087" y="180" type="curve" smooth="yes"/>
      <point x="1098" y="258"/>
      <point x="1122" y="304"/>
      <point x="1164" y="304" type="curve" smooth="yes"/>
      <point x="1199" y="304"/>
      <point x="1203" y="271"/>
      <point x="1194" y="202" type="curve" smooth="yes"/>
      <point x="1183" y="128"/>
      <point x="1162" y="86"/>
    </contour>
    <component base="fraction" xOffset="380"/>
  </outline>
</glyph>
<glyph name="guilsinglleft" format="1">
  <advance width="336"/>
  <unicode hex="2039"/>
  <outline>
    <contour>
      <point x="134" y="59" type="line"/>
      <point x="234" y="59" type="line"/>
      <point x="199" y="251" type="line"/>
      <point x="293" y="451" type="line"/>
      <point x="193" y="451" type="line"/>
      <point x="57" y="251" type="line"/>
    </contour>
  </outline>
</glyph>
<glyph name="guilsinglright" format="1">
  <advance width="338"/>
  <unicode hex="203A"/>
  <outline>
    <contour>
      <point x="32" y="59" type="line"/>
      <point x="131" y="59" type="line"/>
      <point x="267" y="251" type="line"/>
      <point x="192" y="451" type="line"/>
      <point x="92" y="451" type="line"/>
      <point x="125" y="251" type="line"/>
    </contour>
  </outline>
</glyph>
<glyph name="fraction" format="1">
  <advance width="272"/>
  <unicode hex="2044"/>
  <outline>
    <contour>
      <point x="-102" y="-4" type="line"/>
      <point x="493" y="731" type="line"/>
      <point x="389" y="731" type="line"/>
      <point x="-207" y="-2" type="line"/>
    </contour>
  </outline>
</glyph>
<glyph name="colonsign" format="1">
  <advance width="654"/>
  <unicode hex="20A1"/>
  <outline>
    <contour>
      <point x="303" y="516" type="line"/>
      <point x="360" y="723" type="line"/>
      <point x="259" y="721" type="line"/>
      <point x="207" y="546" type="line"/>
    </contour>
    <contour>
      <point x="220" y="1" type="line"/>
      <point x="270" y="178" type="line"/>
      <point x="175" y="208" type="line"/>
      <point x="120" y="4" type="line"/>
    </contour>
    <contour>
      <point x="400" y="1" type="line"/>
      <point x="449" y="178" type="line"/>
      <point x="354" y="208" type="line"/>
      <point x="298" y="4" type="line"/>
    </contour>
    <contour>
      <point x="483" y="516" type="line"/>
      <point x="539" y="723" type="line"/>
      <point x="438" y="721" type="line"/>
      <point x="387" y="546" type="line"/>
    </contour>
    <component base="c" xScale="1.08" xOffset="32" yOffset="103"/>
  </outline>
</glyph>
<glyph name="franc" format="1">
  <advance width="647"/>
  <unicode hex="20A3"/>
  <outline>
    <contour>
      <point x="18" y="0" type="line"/>
      <point x="238" y="0" type="line"/>
      <point x="280" y="279" type="line"/>
      <point x="494" y="279" type="line"/>
      <point x="517" y="434" type="line"/>
      <point x="303" y="434" type="line"/>
      <point x="323" y="564" type="line"/>
      <point x="654" y="564" type="line"/>
      <point x="679" y="723" type="line"/>
      <point x="128" y="723" type="line"/>
    </contour>
    <contour>
      <point x="-49" y="106" type="line"/>
      <point x="389" y="106" type="line"/>
      <point x="404" y="205" type="line"/>
      <point x="-34" y="205" type="line"/>
    </contour>
  </outline>
</glyph>
<glyph name="lira" format="1">
  <advance width="678"/>
  <unicode hex="20A4"/>
  <outline>
    <contour>
      <point x="-11" y="0" type="line"/>
      <point x="360" y="0" type="line" smooth="yes"/>
      <point x="484" y="0"/>
      <point x="586" y="73"/>
      <point x="636" y="206" type="curve"/>
      <point x="479" y="238" type="line"/>
      <point x="454" y="182"/>
      <point x="423" y="160"/>
      <point x="369" y="160" type="curve"/>
      <point x="266" y="160" type="line"/>
      <point x="300" y="180"/>
      <point x="326" y="207"/>
      <point x="343" y="239" type="curve"/>
      <point x="453" y="239" type="line"/>
      <point x="468" y="337" type="line"/>
      <point x="364" y="337" type="line"/>
      <point x="367" y="385" type="line"/>
      <point x="475" y="385" type="line"/>
      <point x="490" y="484" type="line"/>
      <point x="377" y="484" type="line" smooth="yes"/>
      <point x="370" y="484"/>
      <point x="367" y="488"/>
      <point x="367" y="496" type="curve" smooth="yes"/>
      <point x="368" y="506"/>
      <point x="368" y="515"/>
      <point x="369" y="523" type="curve" smooth="yes"/>
      <point x="375" y="561"/>
      <point x="396" y="583"/>
      <point x="426" y="583" type="curve" smooth="yes"/>
      <point x="460" y="583"/>
      <point x="470" y="552"/>
      <point x="477" y="519" type="curve"/>
      <point x="652" y="567" type="line"/>
      <point x="621" y="686"/>
      <point x="514" y="733"/>
      <point x="418" y="733" type="curve" smooth="yes"/>
      <point x="287" y="733"/>
      <point x="155" y="666"/>
      <point x="145" y="532" type="curve"/>
      <point x="141" y="484" type="line"/>
      <point x="63" y="484" type="line"/>
      <point x="48" y="385" type="line"/>
      <point x="140" y="385" type="line"/>
      <point x="138" y="337" type="line"/>
      <point x="41" y="337" type="line"/>
      <point x="26" y="239" type="line"/>
      <point x="127" y="239" type="line" smooth="yes"/>
      <point x="133" y="239"/>
      <point x="136" y="237"/>
      <point x="135" y="231" type="curve" smooth="yes"/>
      <point x="133" y="220"/>
      <point x="131" y="211"/>
      <point x="127" y="203" type="curve" smooth="yes"/>
      <point x="112" y="172"/>
      <point x="82" y="159"/>
      <point x="44" y="159" type="curve" smooth="yes"/>
      <point x="13" y="159" type="line"/>
    </contour>
  </outline>
</glyph>
<glyph name="naira" format="1">
  <advance width="879"/>
  <unicode hex="20A6"/>
  <outline>
    <contour>
      <point x="39" y="444" type="line"/>
      <point x="824" y="444" type="line"/>
      <point x="838" y="532" type="line"/>
      <point x="53" y="532" type="line"/>
    </contour>
    <contour>
      <point x="4" y="210" type="line"/>
      <point x="789" y="210" type="line"/>
      <point x="802" y="298" type="line"/>
      <point x="17" y="298" type="line"/>
    </contour>
    <component base="N" xScale="0.994" yxScale="0.152" xOffset="8"/>
  </outline>
</glyph>
<glyph name="won" format="1">
  <advance width="1197"/>
  <unicode hex="20A9"/>
  <outline>
    <contour>
      <point x="32" y="405" type="line"/>
      <point x="1195" y="405" type="line"/>
      <point x="1210" y="503" type="line"/>
      <point x="47" y="503" type="line"/>
    </contour>
    <contour>
      <point x="56" y="561" type="line"/>
      <point x="1219" y="561" type="line"/>
      <point x="1233" y="659" type="line"/>
      <point x="71" y="659" type="line"/>
    </contour>
    <component base="W" xScale="0.994" yxScale="0.152" xOffset="60"/>
  </outline>
</glyph>
<glyph name="dong" format="1">
  <advance width="561"/>
  <unicode hex="20AB"/>
  <outline>
    <contour>
      <point x="173" y="125" type="curve" smooth="yes"/>
      <point x="228" y="125"/>
      <point x="265" y="144"/>
      <point x="306" y="181" type="curve"/>
      <point x="298" y="133" type="line"/>
      <point x="456" y="133" type="line"/>
      <point x="546" y="723" type="line"/>
      <point x="386" y="723" type="line"/>
      <point x="357" y="532" type="line" smooth="yes"/>
      <point x="355" y="520"/>
      <point x="348" y="520"/>
      <point x="340" y="526" type="curve" smooth="yes"/>
      <point x="313" y="558"/>
      <point x="284" y="567"/>
      <point x="248" y="567" type="curve" smooth="yes"/>
      <point x="159" y="567"/>
      <point x="66" y="480"/>
      <point x="45" y="344" type="curve" smooth="yes"/>
      <point x="23" y="199"/>
      <point x="78" y="125"/>
    </contour>
    <contour>
      <point x="24" y="0" type="line"/>
      <point x="436" y="0" type="line"/>
      <point x="449" y="87" type="line"/>
      <point x="37" y="87" type="line"/>
    </contour>
    <contour>
      <point x="253" y="221" type="curve" smooth="yes"/>
      <point x="211" y="221"/>
      <point x="193" y="253"/>
      <point x="207" y="345" type="curve" smooth="yes"/>
      <point x="221" y="439"/>
      <point x="253" y="468"/>
      <point x="290" y="468" type="curve" smooth="yes"/>
      <point x="315" y="468"/>
      <point x="328" y="457"/>
      <point x="341" y="437" type="curve"/>
      <point x="317" y="275" type="line" smooth="yes"/>
      <point x="312" y="243"/>
      <point x="285" y="221"/>
    </contour>
    <contour>
      <point x="272" y="596" type="line"/>
      <point x="586" y="596" type="line"/>
      <point x="598" y="674" type="line"/>
      <point x="284" y="674" type="line"/>
    </contour>
  </outline>
</glyph>
<glyph name="euro" format="1">
  <advance width="700"/>
  <unicode hex="20AC"/>
  <outline>
    <contour>
      <point x="360" y="-10" type="curve" smooth="yes"/>
      <point x="466" y="-10"/>
      <point x="567" y="47"/>
      <point x="631" y="119" type="curve"/>
      <point x="545" y="226" type="line"/>
      <point x="517" y="190"/>
      <point x="459" y="150"/>
      <point x="410" y="150" type="curve" smooth="yes"/>
      <point x="349" y="150"/>
      <point x="300" y="207"/>
      <point x="325" y="368" type="curve" smooth="yes"/>
      <point x="349" y="527"/>
      <point x="404" y="583"/>
      <point x="469" y="583" type="curve" smooth="yes"/>
      <point x="518" y="583"/>
      <point x="541" y="549"/>
      <point x="563" y="516" type="curve"/>
      <point x="709" y="610" type="line"/>
      <point x="667" y="685"/>
      <point x="583" y="733"/>
      <point x="474" y="733" type="curve" smooth="yes"/>
      <point x="290" y="733"/>
      <point x="136" y="591"/>
      <point x="102" y="371" type="curve" smooth="yes"/>
      <point x="69" y="151"/>
      <point x="178" y="-10"/>
    </contour>
    <contour>
      <point x="6" y="229" type="line"/>
      <point x="453" y="229" type="line"/>
      <point x="468" y="328" type="line"/>
      <point x="21" y="328" type="line"/>
    </contour>
    <contour>
      <point x="32" y="395" type="line"/>
      <point x="479" y="395" type="line"/>
      <point x="494" y="493" type="line"/>
      <point x="46" y="493" type="line"/>
    </contour>
  </outline>
</glyph>
<glyph name="rupeeIndian" format="1">
  <advance width="699"/>
  <unicode hex="20B9"/>
  <outline>
    <contour>
      <point x="307" y="0" type="line"/>
      <point x="546" y="0" type="line"/>
      <point x="459" y="316" type="line" smooth="yes"/>
      <point x="457" y="324"/>
      <point x="458" y="332"/>
      <point x="464" y="334" type="curve" smooth="yes"/>
      <point x="544" y="364"/>
      <point x="607" y="433"/>
      <point x="620" y="522" type="curve" smooth="yes"/>
      <point x="639" y="648"/>
      <point x="541" y="723"/>
      <point x="356" y="723" type="curve" smooth="yes"/>
      <point x="100" y="723" type="line"/>
      <point x="86" y="628" type="line"/>
      <point x="307" y="628" type="line" smooth="yes"/>
      <point x="371" y="628"/>
      <point x="404" y="599"/>
      <point x="394" y="529" type="curve" smooth="yes"/>
      <point x="384" y="466"/>
      <point x="353" y="435"/>
      <point x="283" y="435" type="curve" smooth="yes"/>
      <point x="57" y="435" type="line"/>
      <point x="36" y="299" type="line"/>
      <point x="249" y="299" type="line"/>
    </contour>
    <contour>
      <point x="65" y="488" type="line"/>
      <point x="696" y="488" type="line"/>
      <point x="710" y="576" type="line"/>
      <point x="78" y="576" type="line"/>
    </contour>
    <contour>
      <point x="87" y="635" type="line"/>
      <point x="719" y="635" type="line"/>
      <point x="732" y="723" type="line"/>
      <point x="100" y="723" type="line"/>
    </contour>
  </outline>
</glyph>
<glyph name="liraTurkish" format="1">
  <advance width="729"/>
  <unicode hex="20BA"/>
  <outline>
    <contour>
      <point x="108" y="0" type="line"/>
      <point x="265" y="0" type="line" smooth="yes"/>
      <point x="516" y="0"/>
      <point x="639" y="133"/>
      <point x="711" y="271" type="curve"/>
      <point x="549" y="306" type="line"/>
      <point x="502" y="217"/>
      <point x="438" y="163"/>
      <point x="375" y="160" type="curve" smooth="yes"/>
      <point x="353" y="160" type="line"/>
      <point x="438" y="723" type="line"/>
      <point x="217" y="723" type="line"/>
    </contour>
    <contour>
      <point x="55" y="184" type="line"/>
      <point x="541" y="353" type="line"/>
      <point x="522" y="446" type="line"/>
      <point x="36" y="277" type="line"/>
    </contour>
    <contour>
      <point x="59" y="339" type="line"/>
      <point x="547" y="509" type="line"/>
      <point x="527" y="601" type="line"/>
      <point x="39" y="432" type="line"/>
    </contour>
  </outline>
</glyph>
<glyph name="literSign" format="1">
  <advance width="628"/>
  <unicode hex="2113"/>
  <outline>
    <contour>
      <point x="293" y="-10" type="curve" smooth="yes"/>
      <point x="522" y="215" type="line"/>
      <point x="510" y="206"/>
      <point x="510" y="206"/>
      <point x="511" y="206" type="curve" smooth="yes"/>
      <point x="464" y="161"/>
      <point x="410" y="131"/>
      <point x="362" y="131" type="curve" smooth="yes"/>
      <point x="316" y="131"/>
      <point x="287" y="159"/>
      <point x="292" y="195" type="curve"/>
      <point x="297" y="229" type="line"/>
      <point x="434" y="325"/>
      <point x="553" y="408"/>
      <point x="575" y="555" type="curve" smooth="yes"/>
      <point x="590" y="651"/>
      <point x="558" y="733"/>
      <point x="417" y="733" type="curve" smooth="yes"/>
      <point x="273" y="733"/>
      <point x="163" y="646"/>
      <point x="136" y="470" type="curve" smooth="yes"/>
      <point x="107" y="275" type="line"/>
      <point x="13" y="211" type="line"/>
      <point x="38" y="109" type="line"/>
      <point x="85" y="138" type="line" smooth="yes"/>
      <point x="87" y="140"/>
      <point x="89" y="139"/>
      <point x="89" y="135" type="curve" smooth="yes"/>
      <point x="99" y="58"/>
      <point x="140" y="-10"/>
    </contour>
    <contour>
      <point x="320" y="377" type="curve"/>
      <point x="337" y="487" type="line" smooth="yes"/>
      <point x="353" y="596"/>
      <point x="383" y="624"/>
      <point x="417" y="624" type="curve" smooth="yes"/>
      <point x="450" y="624"/>
      <point x="459" y="599"/>
      <point x="453" y="563" type="curve" smooth="yes"/>
      <point x="444" y="500"/>
      <point x="397" y="443"/>
    </contour>
  </outline>
</glyph>
<glyph name="published" format="1">
  <advance width="837"/>
  <unicode hex="2117"/>
  <outline>
    <contour>
      <point x="372" y="-10" type="curve" smooth="yes"/>
      <point x="575" y="-10"/>
      <point x="766" y="155"/>
      <point x="798" y="362" type="curve" smooth="yes"/>
      <point x="829" y="566"/>
      <point x="688" y="733"/>
      <point x="484" y="733" type="curve" smooth="yes"/>
      <point x="281" y="733"/>
      <point x="90" y="566"/>
      <point x="59" y="362" type="curve" smooth="yes"/>
      <point x="28" y="155"/>
      <point x="168" y="-10"/>
    </contour>
    <contour>
      <point x="387" y="89" type="curve" smooth="yes"/>
      <point x="227" y="89"/>
      <point x="142" y="195"/>
      <point x="168" y="362" type="curve" smooth="yes"/>
      <point x="193" y="527"/>
      <point x="310" y="636"/>
      <point x="470" y="636" type="curve" smooth="yes"/>
      <point x="628" y="636"/>
      <point x="714" y="527"/>
      <point x="689" y="362" type="curve" smooth="yes"/>
      <point x="664" y="195"/>
      <point x="545" y="89"/>
    </contour>
    <contour>
      <point x="250" y="170" type="line"/>
      <point x="367" y="170" type="line"/>
      <point x="386" y="293" type="line"/>
      <point x="468" y="293" type="line" smooth="yes"/>
      <point x="553" y="293"/>
      <point x="617" y="338"/>
      <point x="630" y="421" type="curve" smooth="yes"/>
      <point x="644" y="513"/>
      <point x="579" y="554"/>
      <point x="495" y="554" type="curve" smooth="yes"/>
      <point x="308" y="554" type="line"/>
    </contour>
    <contour>
      <point x="398" y="375" type="line"/>
      <point x="413" y="470" type="line"/>
      <point x="475" y="470" type="line" smooth="yes"/>
      <point x="498" y="470"/>
      <point x="516" y="456"/>
      <point x="511" y="423" type="curve" smooth="yes"/>
      <point x="506" y="393"/>
      <point x="489" y="375"/>
      <point x="464" y="375" type="curve" smooth="yes"/>
    </contour>
  </outline>
</glyph>
<glyph name="Ohm" format="1">
  <advance width="762"/>
  <unicode hex="2126"/>
  <outline>
    <contour>
      <point x="-1" y="0" type="line"/>
      <point x="318" y="0" type="line"/>
      <point x="339" y="140" type="line"/>
      <point x="288" y="180"/>
      <point x="252" y="269"/>
      <point x="270" y="390" type="curve" smooth="yes"/>
      <point x="294" y="548"/>
      <point x="370" y="598"/>
      <point x="434" y="598" type="curve" smooth="yes"/>
      <point x="502" y="598"/>
      <point x="551" y="542"/>
      <point x="529" y="395" type="curve" smooth="yes"/>
      <point x="508" y="259"/>
      <point x="443" y="179"/>
      <point x="385" y="140" type="curve"/>
      <point x="363" y="0" type="line"/>
      <point x="681" y="0" type="line"/>
      <point x="706" y="164" type="line"/>
      <point x="581" y="164" type="line"/>
      <point x="679" y="239"/>
      <point x="735" y="317"/>
      <point x="751" y="419" type="curve" smooth="yes"/>
      <point x="773" y="567"/>
      <point x="689" y="752"/>
      <point x="458" y="752" type="curve" smooth="yes"/>
      <point x="235" y="752"/>
      <point x="81" y="582"/>
      <point x="56" y="418" type="curve" smooth="yes"/>
      <point x="39" y="304"/>
      <point x="88" y="217"/>
      <point x="144" y="164" type="curve"/>
      <point x="24" y="164" type="line"/>
    </contour>
  </outline>
</glyph>
<glyph name="partialdiff" format="1">
  <advance width="614"/>
  <unicode hex="2202"/>
  <outline>
    <contour>
      <point x="246" y="-10" type="curve" smooth="yes"/>
      <point x="441" y="-10"/>
      <point x="555" y="138"/>
      <point x="588" y="354" type="curve" smooth="yes"/>
      <point x="627" y="613"/>
      <point x="512" y="733"/>
      <point x="331" y="733" type="curve" smooth="yes"/>
      <point x="222" y="733"/>
      <point x="139" y="687"/>
      <point x="109" y="665" type="curve"/>
      <point x="143" y="553" type="line"/>
      <point x="174" y="571"/>
      <point x="216" y="595"/>
      <point x="280" y="595" type="curve" smooth="yes"/>
      <point x="411" y="595"/>
      <point x="438" y="490"/>
      <point x="431" y="439" type="curve" smooth="yes"/>
      <point x="429" y="428"/>
      <point x="426" y="418"/>
      <point x="412" y="431" type="curve" smooth="yes"/>
      <point x="388" y="453"/>
      <point x="361" y="476"/>
      <point x="295" y="476" type="curve" smooth="yes"/>
      <point x="152" y="476"/>
      <point x="49" y="367"/>
      <point x="29" y="232" type="curve" smooth="yes"/>
      <point x="8" y="95"/>
      <point x="82" y="-10"/>
    </contour>
    <contour>
      <point x="264" y="123" type="line" smooth="yes"/>
      <point x="223" y="123"/>
      <point x="197" y="155"/>
      <point x="207" y="224" type="curve" smooth="yes"/>
      <point x="218" y="296"/>
      <point x="262" y="352"/>
      <point x="314" y="352" type="curve" smooth="yes"/>
      <point x="352" y="352"/>
      <point x="376" y="325"/>
      <point x="386" y="299" type="curve" smooth="yes"/>
      <point x="391" y="288"/>
      <point x="391" y="283"/>
      <point x="386" y="264" type="curve" smooth="yes"/>
      <point x="365" y="181"/>
      <point x="323" y="123"/>
      <point x="265" y="123" type="curve" smooth="yes"/>
    </contour>
  </outline>
</glyph>
<glyph name="emptyset" format="1">
  <advance width="615"/>
  <unicode hex="2205"/>
  <outline>
    <contour>
      <point x="66" y="105" type="line"/>
      <point x="611" y="552" type="line"/>
      <point x="563" y="613" type="line"/>
      <point x="17" y="167" type="line"/>
    </contour>
    <contour>
      <point x="281" y="123" type="curve" smooth="yes"/>
      <point x="413" y="123"/>
      <point x="537" y="231"/>
      <point x="557" y="364" type="curve" smooth="yes"/>
      <point x="577" y="496"/>
      <point x="486" y="604"/>
      <point x="354" y="604" type="curve" smooth="yes"/>
      <point x="223" y="604"/>
      <point x="99" y="496"/>
      <point x="79" y="364" type="curve" smooth="yes"/>
      <point x="59" y="231"/>
      <point x="150" y="123"/>
    </contour>
    <contour>
      <point x="294" y="205" type="curve" smooth="yes"/>
      <point x="207" y="205"/>
      <point x="147" y="276"/>
      <point x="161" y="364" type="curve" smooth="yes"/>
      <point x="174" y="450"/>
      <point x="255" y="522"/>
      <point x="342" y="522" type="curve" smooth="yes"/>
      <point x="429" y="522"/>
      <point x="489" y="450"/>
      <point x="476" y="364" type="curve" smooth="yes"/>
      <point x="462" y="276"/>
      <point x="381" y="205"/>
    </contour>
  </outline>
</glyph>
<glyph name="increment" format="1">
  <advance width="827"/>
  <unicode hex="2206"/>
  <outline>
    <contour>
      <point x="-21" y="0" type="line"/>
      <point x="776" y="0" type="line"/>
      <point x="497" y="723" type="line"/>
    </contour>
    <contour>
      <point x="282" y="159" type="line"/>
      <point x="446" y="386" type="line"/>
      <point x="530" y="159" type="line"/>
    </contour>
  </outline>
</glyph>
<glyph name="product" format="1">
  <advance width="734"/>
  <unicode hex="220F"/>
  <outline>
    <contour>
      <point x="58" y="0" type="line"/>
      <point x="256" y="0" type="line"/>
      <point x="341" y="566" type="line"/>
      <point x="466" y="566" type="line"/>
      <point x="380" y="0" type="line"/>
      <point x="577" y="0" type="line"/>
      <point x="663" y="566" type="line"/>
      <point x="745" y="566" type="line"/>
      <point x="769" y="723" type="line"/>
      <point x="87" y="723" type="line"/>
      <point x="63" y="566" type="line"/>
      <point x="144" y="566" type="line"/>
    </contour>
  </outline>
</glyph>
<glyph name="summation" format="1">
  <advance width="615"/>
  <unicode hex="2211"/>
  <outline>
    <contour>
      <point x="-4" y="0" type="line"/>
      <point x="534" y="0" type="line"/>
      <point x="559" y="162" type="line"/>
      <point x="271" y="162" type="line"/>
      <point x="493" y="380" type="line"/>
      <point x="354" y="570" type="line"/>
      <point x="603" y="570" type="line"/>
      <point x="626" y="723" type="line"/>
      <point x="115" y="723" type="line"/>
      <point x="96" y="595" type="line"/>
      <point x="250" y="357" type="line"/>
      <point x="13" y="114" type="line"/>
    </contour>
  </outline>
</glyph>
<glyph name="minus" format="1">
  <advance width="614"/>
  <unicode hex="2212"/>
  <outline>
    <contour>
      <point x="55" y="295" type="line"/>
      <point x="561" y="295" type="line"/>
      <point x="582" y="433" type="line"/>
      <point x="76" y="433" type="line"/>
    </contour>
  </outline>
</glyph>
<glyph name="bulletoperator" format="1">
  <advance width="385"/>
  <unicode hex="2219"/>
  <outline>
    <contour>
      <point x="186" y="275" type="curve" smooth="yes"/>
      <point x="236" y="275"/>
      <point x="283" y="316"/>
      <point x="290" y="366" type="curve" smooth="yes"/>
      <point x="298" y="416"/>
      <point x="263" y="457"/>
      <point x="214" y="457" type="curve" smooth="yes"/>
      <point x="164" y="457"/>
      <point x="117" y="416"/>
      <point x="110" y="366" type="curve" smooth="yes"/>
      <point x="102" y="316"/>
      <point x="137" y="275"/>
    </contour>
  </outline>
</glyph>
<glyph name="radical" format="1">
  <advance width="734"/>
  <unicode hex="221A"/>
  <outline>
    <contour>
      <point x="208" y="-161" type="line"/>
      <point x="401" y="-161" type="line"/>
      <point x="809" y="826" type="line"/>
      <point x="650" y="826" type="line"/>
      <point x="328" y="12" type="line"/>
      <point x="254" y="374" type="line"/>
      <point x="20" y="295" type="line"/>
      <point x="42" y="191" type="line"/>
      <point x="128" y="221" type="line"/>
    </contour>
  </outline>
</glyph>
